<svg width="16" height="16" viewBox="0 0 16 16" fill="none" xmlns="http://www.w3.org/2000/svg">
<g clip-path="url(#clip0_63_1021)">
<path d="M14.1626 4.07764H14.6626V3.87064L14.5166 3.72364L14.1626 4.07764ZM11.1626 1.07764L11.5166 0.723637L11.3696 0.577637H11.1626V1.07764ZM7.1626 11.0776H6.6626V11.5776H7.1626V11.0776ZM5.1626 10.0776H5.6626V9.87064L5.5166 9.72364L5.1626 10.0776ZM3.1626 8.07764H2.6626V8.28464L2.8086 8.43164L3.1626 8.07764ZM11.1626 7.07764V6.57764H10.6626V7.07764H11.1626ZM11.1626 9.07764H10.6626V9.57764H11.1626V9.07764ZM13.1626 9.07764H13.6626V8.57764H13.1626V9.07764ZM13.1626 11.0776V11.5776H13.6626V11.0776H13.1626ZM3.1626 10.0776L2.8086 9.72364L2.6626 9.87064V10.0776H3.1626ZM5.1626 8.07764L5.5166 8.43164L5.6626 8.28464V8.07764H5.1626ZM2.6626 5.57764V2.07764H1.6626V5.57764H2.6626ZM13.6626 4.07764V5.57764H14.6626V4.07764H13.6626ZM3.1626 1.57764H11.1626V0.577637H3.1626V1.57764ZM10.8086 1.43164L13.8086 4.43164L14.5166 3.72364L11.5166 0.723637L10.8086 1.43164ZM2.6626 2.07764C2.6626 1.94503 2.71528 1.81785 2.80904 1.72408C2.90281 1.63032 3.02999 1.57764 3.1626 1.57764V0.577637C2.76477 0.577637 2.38324 0.735672 2.10194 1.01698C1.82063 1.29828 1.6626 1.67981 1.6626 2.07764H2.6626ZM1.6626 12.5776V14.0776H2.6626V12.5776H1.6626ZM3.1626 15.5776H13.1626V14.5776H3.1626V15.5776ZM14.6626 14.0776V12.5776H13.6626V14.0776H14.6626ZM13.1626 15.5776C13.5604 15.5776 13.942 15.4196 14.2233 15.1383C14.5046 14.857 14.6626 14.4755 14.6626 14.0776H13.6626C13.6626 14.2102 13.6099 14.3374 13.5162 14.4312C13.4224 14.525 13.2952 14.5776 13.1626 14.5776V15.5776ZM1.6626 14.0776C1.6626 14.4755 1.82063 14.857 2.10194 15.1383C2.38324 15.4196 2.76477 15.5776 3.1626 15.5776V14.5776C3.02999 14.5776 2.90281 14.525 2.80904 14.4312C2.71528 14.3374 2.6626 14.2102 2.6626 14.0776H1.6626ZM6.6626 6.57764V11.0776H7.6626V6.57764H6.6626ZM7.1626 11.5776H9.6626V10.5776H7.1626V11.5776ZM4.6626 10.0776V11.5776H5.6626V10.0776H4.6626ZM5.5166 9.72364L3.5166 7.72364L2.8086 8.43164L4.8086 10.4316L5.5166 9.72364ZM3.6626 8.07764V6.57764H2.6626V8.07764H3.6626ZM13.6626 6.57764H11.1626V7.57764H13.6626V6.57764ZM10.6626 7.07764V9.07764H11.6626V7.07764H10.6626ZM11.1626 9.57764H13.1626V8.57764H11.1626V9.57764ZM12.6626 9.07764V11.0776H13.6626V9.07764H12.6626ZM13.1626 10.5776H10.6626V11.5776H13.1626V10.5776ZM3.6626 11.5776V10.0776H2.6626V11.5776H3.6626ZM3.5166 10.4316L5.5166 8.43164L4.8086 7.72364L2.8086 9.72364L3.5166 10.4316ZM5.6626 8.07764V6.57764H4.6626V8.07764H5.6626Z" fill="#10B981"/>
</g>
<defs>
<clipPath id="clip0_63_1021">
<rect width="15" height="15" fill="white" transform="translate(0.662598 0.577637)"/>
</clipPath>
</defs>
</svg>
