<svg width="33" height="24" viewBox="0 0 33 24" fill="none" xmlns="http://www.w3.org/2000/svg">
<mask id="mask0_444_28738" style="mask-type:alpha" maskUnits="userSpaceOnUse" x="0" y="0" width="33" height="24">
<rect x="0.604492" y="0.485596" width="31.8574" height="23.3339" fill="#1E293B"/>
</mask>
<g mask="url(#mask0_444_28738)">
<path d="M20.6977 23.7536V13.5536C20.6977 8.27362 21.8977 3.95362 24.2977 0.593619C26.6977 -2.84638 30.2177 -5.08638 34.8577 -6.12638V-0.726378C32.2977 -0.0863819 30.4177 1.11362 29.2177 2.87362C28.0177 4.55362 27.2577 6.71362 26.9377 9.35362H32.4577V23.7536H20.6977ZM0.657657 23.7536V13.5536C0.657657 8.27362 1.81766 3.95362 4.13766 0.593619C6.53766 -2.84638 10.0577 -5.08638 14.6977 -6.12638V-0.726378C12.2177 -0.0863819 10.3377 1.11362 9.05766 2.87362C7.85766 4.55362 7.13766 6.71362 6.89766 9.35362H12.2977V23.7536H0.657657Z" fill="#475569"/>
</g>
</svg>
