<svg width="26" height="27" viewBox="0 0 26 27" fill="none" xmlns="http://www.w3.org/2000/svg">
<path d="M24.44 13.3702C24.44 12.5252 24.3642 11.7127 24.2233 10.9327H13V15.5423H19.4133C19.1371 17.0318 18.2975 18.2939 17.0354 19.1389V22.1289H20.8867C23.14 20.0543 24.44 16.9993 24.44 13.3702Z" fill="#4285F4"/>
<path d="M12.9998 25.016C16.2173 25.016 18.9148 23.9489 20.8864 22.1289L17.0352 19.1389C15.9681 19.8539 14.6031 20.2764 12.9998 20.2764C9.896 20.2764 7.26892 18.1802 6.33184 15.3635H2.35059V18.451C4.31142 22.3456 8.34142 25.016 12.9998 25.016Z" fill="#34A853"/>
<path d="M6.33176 15.3635C6.09343 14.6485 5.95801 13.8848 5.95801 13.0993C5.95801 12.3139 6.09343 11.5502 6.33176 10.8352V7.74768H2.35051C1.51634 9.40828 1.08227 11.241 1.08301 13.0993C1.08301 15.0223 1.54343 16.8423 2.35051 18.451L6.33176 15.3635Z" fill="#FBBC05"/>
<path d="M12.9998 5.92226C14.7493 5.92226 16.3202 6.52351 17.5552 7.70434L20.9731 4.28643C18.9093 2.36351 16.2118 1.18268 12.9998 1.18268C8.34142 1.18268 4.31142 3.85309 2.35059 7.74768L6.33184 10.8352C7.26892 8.01851 9.896 5.92226 12.9998 5.92226Z" fill="#EA4335"/>
</svg>
