<svg width="17" height="17" viewBox="0 0 17 17" fill="none" xmlns="http://www.w3.org/2000/svg">
<path d="M5.41125 2.8916V4.3916M12.4113 2.8916V4.3916M2.91125 13.3916V5.8916C2.91125 5.49378 3.06929 5.11225 3.35059 4.83094C3.6319 4.54964 4.01343 4.3916 4.41125 4.3916H13.4113C13.8091 4.3916 14.1906 4.54964 14.4719 4.83094C14.7532 5.11225 14.9113 5.49378 14.9113 5.8916V13.3916M2.91125 13.3916C2.91125 13.7894 3.06929 14.171 3.35059 14.4523C3.6319 14.7336 4.01343 14.8916 4.41125 14.8916H13.4113C13.8091 14.8916 14.1906 14.7336 14.4719 14.4523C14.7532 14.171 14.9113 13.7894 14.9113 13.3916M2.91125 13.3916V8.3916C2.91125 7.99378 3.06929 7.61225 3.35059 7.33094C3.6319 7.04964 4.01343 6.8916 4.41125 6.8916H13.4113C13.8091 6.8916 14.1906 7.04964 14.4719 7.33094C14.7532 7.61225 14.9113 7.99378 14.9113 8.3916V13.3916" stroke="#334155" stroke-width="1.5" stroke-linecap="round" stroke-linejoin="round"/>
</svg>
