<svg width="25" height="25" viewBox="0 0 25 25" fill="none" xmlns="http://www.w3.org/2000/svg">
<mask id="mask0_953_20201" style="mask-type:alpha" maskUnits="userSpaceOnUse" x="0" y="0" width="25" height="25">
<rect x="0.557129" y="0.577637" width="24" height="24" fill="#D9D9D9"/>
</mask>
<g mask="url(#mask0_953_20201)">
<path d="M19.9974 21.0776C18.1129 21.0776 16.2196 20.6395 14.3176 19.7631C12.4158 18.8868 10.6684 17.6506 9.07538 16.0546C7.48255 14.4585 6.24796 12.711 5.37163 10.8121C4.4953 8.91347 4.05713 7.02189 4.05713 5.13739C4.05713 4.83455 4.15713 4.58222 4.35713 4.38039C4.55713 4.17855 4.80713 4.07764 5.10713 4.07764H8.36863C8.62113 4.07764 8.84388 4.16005 9.03688 4.32489C9.22988 4.48955 9.35263 4.69305 9.40513 4.93539L9.97838 7.87764C10.018 8.15064 10.0097 8.38522 9.95338 8.58139C9.89688 8.77755 9.79555 8.9423 9.64938 9.07564L7.33988 11.3239C7.71155 12.0046 8.13621 12.6485 8.61388 13.2556C9.09138 13.8626 9.60838 14.4424 10.1649 14.9949C10.7135 15.5437 11.2969 16.0534 11.9149 16.5239C12.5329 16.9944 13.2002 17.4322 13.9169 17.8374L16.1609 15.5739C16.3174 15.4111 16.5069 15.2969 16.7294 15.2314C16.9517 15.1661 17.1828 15.1501 17.4226 15.1834L20.1994 15.7489C20.4519 15.8156 20.658 15.9444 20.8176 16.1354C20.9773 16.3264 21.0571 16.5431 21.0571 16.7854V20.0276C21.0571 20.3276 20.9562 20.5776 20.7544 20.7776C20.5525 20.9776 20.3002 21.0776 19.9974 21.0776ZM6.63013 9.90464L8.41488 8.19689C8.44688 8.17122 8.46771 8.13597 8.47738 8.09114C8.48705 8.0463 8.48546 8.00464 8.47263 7.96614L8.03788 5.73139C8.02505 5.68022 8.00263 5.6418 7.97063 5.61614C7.93863 5.59047 7.89696 5.57764 7.84563 5.57764H5.70713C5.66863 5.57764 5.63655 5.59047 5.61088 5.61614C5.58538 5.6418 5.57263 5.67389 5.57263 5.71239C5.6238 6.39572 5.73563 7.08989 5.90813 7.79489C6.08046 8.50005 6.32113 9.2033 6.63013 9.90464ZM15.3301 18.5469C15.993 18.8559 16.6843 19.0921 17.4041 19.2556C18.1241 19.419 18.7969 19.5161 19.4224 19.5469C19.4609 19.5469 19.493 19.5341 19.5186 19.5084C19.5443 19.4827 19.5571 19.4506 19.5571 19.4121V17.3084C19.5571 17.2571 19.5443 17.2154 19.5186 17.1834C19.493 17.1514 19.4545 17.129 19.4034 17.1161L17.3034 16.6891C17.2649 16.6763 17.2312 16.6747 17.2024 16.6844C17.1735 16.6941 17.143 16.7149 17.1109 16.7469L15.3301 18.5469Z" fill="#94A3B8"/>
</g>
</svg>
