<svg width="16" height="17" viewBox="0 0 16 17" fill="none" xmlns="http://www.w3.org/2000/svg">
<path d="M6.88333 3.22761C7.16733 2.05694 8.83267 2.05694 9.11667 3.22761C9.15928 3.40348 9.24281 3.5668 9.36047 3.70428C9.47813 3.84176 9.62659 3.94951 9.79377 4.01877C9.96094 4.08803 10.1421 4.11684 10.3225 4.10286C10.5029 4.08887 10.6775 4.03248 10.832 3.93828C11.8607 3.31161 13.0387 4.48894 12.412 5.51828C12.3179 5.67271 12.2616 5.84717 12.2477 6.02746C12.2337 6.20775 12.2625 6.38879 12.3317 6.55586C12.4009 6.72294 12.5085 6.87133 12.6458 6.98898C12.7831 7.10663 12.9463 7.19021 13.122 7.23294C14.2927 7.51694 14.2927 9.18228 13.122 9.46628C12.9461 9.50889 12.7828 9.59242 12.6453 9.71008C12.5079 9.82774 12.4001 9.9762 12.3308 10.1434C12.2616 10.3106 12.2328 10.4917 12.2468 10.6721C12.2607 10.8525 12.3171 11.0271 12.4113 11.1816C13.038 12.2103 11.8607 13.3883 10.8313 12.7616C10.6769 12.6675 10.5024 12.6112 10.3222 12.5973C10.1419 12.5833 9.96082 12.6121 9.79375 12.6813C9.62667 12.7505 9.47828 12.8581 9.36063 12.9954C9.24298 13.1328 9.1594 13.2959 9.11667 13.4716C8.83267 14.6423 7.16733 14.6423 6.88333 13.4716C6.84072 13.2957 6.75719 13.1324 6.63953 12.9949C6.52187 12.8575 6.37341 12.7497 6.20623 12.6804C6.03906 12.6112 5.85789 12.5824 5.67748 12.5964C5.49706 12.6104 5.3225 12.6667 5.168 12.7609C4.13933 13.3876 2.96133 12.2103 3.588 11.1809C3.68207 11.0265 3.73837 10.8521 3.75232 10.6718C3.76628 10.4915 3.7375 10.3104 3.66831 10.1434C3.59913 9.97628 3.49151 9.82789 3.35418 9.71024C3.21686 9.59259 3.05371 9.50901 2.878 9.46628C1.70733 9.18228 1.70733 7.51694 2.878 7.23294C3.05387 7.19033 3.21719 7.1068 3.35467 6.98914C3.49215 6.87148 3.5999 6.72302 3.66916 6.55584C3.73843 6.38867 3.76723 6.2075 3.75325 6.02709C3.73926 5.84667 3.68287 5.67211 3.58867 5.51761C2.962 4.48894 4.13933 3.31094 5.16867 3.93761C5.83267 4.34294 6.69933 3.98428 6.88333 3.22761Z" stroke="#94A3B8" stroke-width="1.2" stroke-linecap="round" stroke-linejoin="round"/>
<path d="M10 8.34961C10 8.88004 9.78929 9.38875 9.41421 9.76382C9.03914 10.1389 8.53043 10.3496 8 10.3496C7.46957 10.3496 6.96086 10.1389 6.58579 9.76382C6.21071 9.38875 6 8.88004 6 8.34961C6 7.81918 6.21071 7.31047 6.58579 6.9354C6.96086 6.56032 7.46957 6.34961 8 6.34961C8.53043 6.34961 9.03914 6.56032 9.41421 6.9354C9.78929 7.31047 10 7.81918 10 8.34961Z" stroke="#94A3B8" stroke-width="1.2" stroke-linecap="round" stroke-linejoin="round"/>
</svg>
