<svg width="17" height="17" viewBox="0 0 17 17" fill="none" xmlns="http://www.w3.org/2000/svg">
<path d="M3.76493 8.24821H3.7716M8.4316 8.24821H8.43827M13.0983 8.24821H13.1049M4.4316 8.24821C4.4316 8.42502 4.36136 8.59459 4.23634 8.71961C4.11131 8.84464 3.94174 8.91488 3.76493 8.91488C3.58812 8.91488 3.41855 8.84464 3.29353 8.71961C3.1685 8.59459 3.09827 8.42502 3.09827 8.24821C3.09827 8.0714 3.1685 7.90183 3.29353 7.77681C3.41855 7.65178 3.58812 7.58154 3.76493 7.58154C3.94174 7.58154 4.11131 7.65178 4.23634 7.77681C4.36136 7.90183 4.4316 8.0714 4.4316 8.24821ZM9.09827 8.24821C9.09827 8.42502 9.02803 8.59459 8.903 8.71961C8.77798 8.84464 8.60841 8.91488 8.4316 8.91488C8.25479 8.91488 8.08522 8.84464 7.9602 8.71961C7.83517 8.59459 7.76493 8.42502 7.76493 8.24821C7.76493 8.0714 7.83517 7.90183 7.9602 7.77681C8.08522 7.65178 8.25479 7.58154 8.4316 7.58154C8.60841 7.58154 8.77798 7.65178 8.903 7.77681C9.02803 7.90183 9.09827 8.0714 9.09827 8.24821ZM13.7649 8.24821C13.7649 8.42502 13.6947 8.59459 13.5697 8.71961C13.4446 8.84464 13.2751 8.91488 13.0983 8.91488C12.9215 8.91488 12.7519 8.84464 12.6269 8.71961C12.5018 8.59459 12.4316 8.42502 12.4316 8.24821C12.4316 8.0714 12.5018 7.90183 12.6269 7.77681C12.7519 7.65178 12.9215 7.58154 13.0983 7.58154C13.2751 7.58154 13.4446 7.65178 13.5697 7.77681C13.6947 7.90183 13.7649 8.0714 13.7649 8.24821Z" stroke="#64748B" stroke-width="2" stroke-linecap="round" stroke-linejoin="round"/>
</svg>
