<svg width="15" height="14" viewBox="0 0 15 14" fill="none" xmlns="http://www.w3.org/2000/svg">
<path d="M7.97666 4.20039C7.60536 4.20039 7.24926 4.05289 6.98671 3.79034C6.72416 3.52779 6.57666 3.17169 6.57666 2.80039C6.57666 2.42909 6.72416 2.07299 6.98671 1.81044C7.24926 1.54789 7.60536 1.40039 7.97666 1.40039C8.34796 1.40039 8.70406 1.54789 8.96661 1.81044C9.22916 2.07299 9.37666 2.42909 9.37666 2.80039C9.37666 3.17169 9.22916 3.52779 8.96661 3.79034C8.70406 4.05289 8.34796 4.20039 7.97666 4.20039ZM7.97666 8.40039C7.60536 8.40039 7.24926 8.25289 6.98671 7.99034C6.72416 7.72779 6.57666 7.37169 6.57666 7.00039C6.57666 6.62909 6.72416 6.27299 6.98671 6.01044C7.24926 5.74789 7.60536 5.60039 7.97666 5.60039C8.34796 5.60039 8.70406 5.74789 8.96661 6.01044C9.22916 6.27299 9.37666 6.62909 9.37666 7.00039C9.37666 7.37169 9.22916 7.72779 8.96661 7.99034C8.70406 8.25289 8.34796 8.40039 7.97666 8.40039ZM7.97666 12.6004C7.60536 12.6004 7.24926 12.4529 6.98671 12.1903C6.72416 11.9278 6.57666 11.5717 6.57666 11.2004C6.57666 10.8291 6.72416 10.473 6.98671 10.2104C7.24926 9.94789 7.60536 9.80039 7.97666 9.80039C8.34796 9.80039 8.70406 9.94789 8.96661 10.2104C9.22916 10.473 9.37666 10.8291 9.37666 11.2004C9.37666 11.5717 9.22916 11.9278 8.96661 12.1903C8.70406 12.4529 8.34796 12.6004 7.97666 12.6004Z" fill="#94A3B8"/>
</svg>
