<svg width="21" height="21" viewBox="0 0 21 21" fill="none" xmlns="http://www.w3.org/2000/svg">
<path d="M13.2668 12.9231C12.6417 13.548 11.794 13.899 10.9102 13.899C10.0263 13.899 9.17858 13.548 8.55349 12.9231M8.41016 8.89974H8.41849M13.4102 8.89974H13.4185M18.4102 10.5664C18.4102 11.5513 18.2162 12.5266 17.8393 13.4365C17.4623 14.3465 16.9099 15.1733 16.2135 15.8697C15.517 16.5661 14.6902 17.1186 13.7803 17.4955C12.8703 17.8724 11.8951 18.0664 10.9102 18.0664C9.92524 18.0664 8.94997 17.8724 8.04003 17.4955C7.13009 17.1186 6.30329 16.5661 5.60686 15.8697C4.91042 15.1733 4.35797 14.3465 3.98106 13.4365C3.60415 12.5266 3.41016 11.5513 3.41016 10.5664C3.41016 8.57728 4.20033 6.66963 5.60686 5.26311C7.01338 3.85658 8.92103 3.06641 10.9102 3.06641C12.8993 3.06641 14.8069 3.85658 16.2135 5.26311C17.62 6.66963 18.4102 8.57728 18.4102 10.5664Z" stroke="#94A3B8" stroke-width="1.5" stroke-linecap="round" stroke-linejoin="round"/>
</svg>
