<svg width="25" height="24" viewBox="0 0 25 24" fill="none" xmlns="http://www.w3.org/2000/svg">
<mask id="mask0_978_21964" style="mask-type:alpha" maskUnits="userSpaceOnUse" x="0" y="0" width="25" height="24">
<rect x="0.160156" width="24" height="24" fill="#D9D9D9"/>
</mask>
<g mask="url(#mask0_978_21964)">
<path d="M13.1217 11.0384V5.53841H14.6217V8.48466L19.8524 3.25391L20.9062 4.30766L15.6754 9.53841H18.6217V11.0384H13.1217ZM19.6004 20.4999C17.7159 20.4999 15.8227 20.0617 13.9207 19.1854C12.0188 18.3091 10.2714 17.0729 8.67841 15.4769C7.08557 13.8807 5.85099 12.1332 4.97466 10.2344C4.09832 8.33574 3.66016 6.44416 3.66016 4.55966C3.66016 4.25682 3.76016 4.00449 3.96016 3.80266C4.16016 3.60082 4.41016 3.49991 4.71016 3.49991H7.97166C8.22416 3.49991 8.44691 3.58232 8.63991 3.74716C8.83291 3.91182 8.95566 4.11532 9.00816 4.35766L9.58141 7.29991C9.62107 7.57291 9.61274 7.80749 9.55641 8.00366C9.49991 8.19982 9.39857 8.36457 9.25241 8.49791L6.94291 10.7462C7.31457 11.4268 7.73924 12.0707 8.21691 12.6779C8.69441 13.2849 9.21141 13.8647 9.76791 14.4172C10.3166 14.966 10.8999 15.4757 11.5179 15.9462C12.1359 16.4167 12.8032 16.8545 13.5199 17.2597L15.7639 14.9962C15.9204 14.8333 16.1099 14.7192 16.3324 14.6537C16.5547 14.5883 16.7858 14.5723 17.0257 14.6057L19.8024 15.1712C20.0549 15.2378 20.261 15.3667 20.4207 15.5577C20.5803 15.7487 20.6602 15.9653 20.6602 16.2077V19.4499C20.6602 19.7499 20.5592 19.9999 20.3574 20.1999C20.1556 20.3999 19.9032 20.4999 19.6004 20.4999ZM6.23316 9.32691L8.01791 7.61916C8.04991 7.59349 8.07074 7.55824 8.08041 7.51341C8.09007 7.46857 8.08849 7.42691 8.07566 7.38841L7.64091 5.15366C7.62807 5.10249 7.60566 5.06407 7.57366 5.03841C7.54166 5.01274 7.49999 4.99991 7.44866 4.99991H5.31016C5.27166 4.99991 5.23957 5.01274 5.21391 5.03841C5.18841 5.06407 5.17566 5.09616 5.17566 5.13466C5.22682 5.81799 5.33866 6.51216 5.51116 7.21716C5.68349 7.92232 5.92416 8.62557 6.23316 9.32691ZM14.9332 17.9692C15.596 18.2782 16.2873 18.5144 17.0072 18.6779C17.7272 18.8412 18.3999 18.9383 19.0254 18.9692C19.0639 18.9692 19.096 18.9563 19.1217 18.9307C19.1473 18.905 19.1602 18.8729 19.1602 18.8344V16.7307C19.1602 16.6793 19.1473 16.6377 19.1217 16.6057C19.096 16.5737 19.0576 16.5512 19.0064 16.5384L16.9064 16.1114C16.8679 16.0986 16.8342 16.097 16.8054 16.1067C16.7766 16.1163 16.7461 16.1372 16.7139 16.1692L14.9332 17.9692Z" fill="#475569"/>
</g>
</svg>
