<svg width="56" height="54" viewBox="0 0 56 54" fill="none" xmlns="http://www.w3.org/2000/svg">
<path d="M15.6514 21.0938C15.6514 20.87 15.7419 20.6554 15.9031 20.4971C16.0642 20.3389 16.2828 20.25 16.5107 20.25H38.8545C39.0824 20.25 39.301 20.3389 39.4622 20.4971C39.6233 20.6554 39.7139 20.87 39.7139 21.0938C39.7139 21.3175 39.6233 21.5321 39.4622 21.6904C39.301 21.8486 39.0824 21.9375 38.8545 21.9375H16.5107C16.2828 21.9375 16.0642 21.8486 15.9031 21.6904C15.7419 21.5321 15.6514 21.3175 15.6514 21.0938ZM15.6514 26.1562C15.6514 25.9325 15.7419 25.7179 15.9031 25.5596C16.0642 25.4014 16.2828 25.3125 16.5107 25.3125H38.8545C39.0824 25.3125 39.301 25.4014 39.4622 25.5596C39.6233 25.7179 39.7139 25.9325 39.7139 26.1562C39.7139 26.38 39.6233 26.5946 39.4622 26.7529C39.301 26.9111 39.0824 27 38.8545 27H16.5107C16.2828 27 16.0642 26.9111 15.9031 26.7529C15.7419 26.5946 15.6514 26.38 15.6514 26.1562ZM16.5107 30.375C16.2828 30.375 16.0642 30.4639 15.9031 30.6221C15.7419 30.7804 15.6514 30.995 15.6514 31.2188C15.6514 31.4425 15.7419 31.6571 15.9031 31.8154C16.0642 31.9736 16.2828 32.0625 16.5107 32.0625H38.8545C39.0824 32.0625 39.301 31.9736 39.4622 31.8154C39.6233 31.6571 39.7139 31.4425 39.7139 31.2188C39.7139 30.995 39.6233 30.7804 39.4622 30.6221C39.301 30.4639 39.0824 30.375 38.8545 30.375H16.5107ZM15.6514 36.2812C15.6514 36.0575 15.7419 35.8429 15.9031 35.6846C16.0642 35.5264 16.2828 35.4375 16.5107 35.4375H30.2607C30.4887 35.4375 30.7072 35.5264 30.8684 35.6846C31.0296 35.8429 31.1201 36.0575 31.1201 36.2812C31.1201 36.505 31.0296 36.7196 30.8684 36.8779C30.7072 37.0361 30.4887 37.125 30.2607 37.125H16.5107C16.2828 37.125 16.0642 37.0361 15.9031 36.8779C15.7419 36.7196 15.6514 36.505 15.6514 36.2812Z" fill="url(#paint0_linear_444_28911)"/>
<path d="M31.1201 5.0625C31.1201 4.16739 30.758 3.30895 30.1133 2.67601C29.4686 2.04308 28.5943 1.6875 27.6826 1.6875C26.7709 1.6875 25.8966 2.04308 25.2519 2.67601C24.6073 3.30895 24.2451 4.16739 24.2451 5.0625H22.5264C21.6147 5.0625 20.7403 5.41808 20.0957 6.05101C19.451 6.68395 19.0889 7.54239 19.0889 8.4375H13.9326C13.4768 8.4375 13.0396 8.61529 12.7173 8.93176C12.3949 9.24823 12.2139 9.67745 12.2139 10.125V45.5625C12.2139 46.0101 12.3949 46.4393 12.7173 46.7557C13.0396 47.0722 13.4768 47.25 13.9326 47.25H31.6237C32.0795 47.2499 32.5166 47.0721 32.8389 46.7556L42.6478 37.125C42.9701 36.8086 43.1513 36.3795 43.1514 35.9319V10.125C43.1514 9.67745 42.9703 9.24823 42.648 8.93176C42.3256 8.61529 41.8885 8.4375 41.4326 8.4375H36.2764C36.2764 7.54239 35.9142 6.68395 35.2695 6.05101C34.6249 5.41808 33.7505 5.0625 32.8389 5.0625H31.1201ZM19.0889 10.125V10.9688C19.0889 11.1925 19.1794 11.4071 19.3406 11.5654C19.5017 11.7236 19.7203 11.8125 19.9482 11.8125H35.417C35.6449 11.8125 35.8635 11.7236 36.0247 11.5654C36.1858 11.4071 36.2764 11.1925 36.2764 10.9688V10.125H41.4326V35.4375H33.6982C33.0145 35.4375 32.3587 35.7042 31.8752 36.1789C31.3917 36.6536 31.1201 37.2974 31.1201 37.9688V45.5625H13.9326V10.125H19.0889ZM29.4014 5.0625C29.4014 5.51005 29.2203 5.93928 28.898 6.25574C28.5756 6.57221 28.1385 6.75 27.6826 6.75C27.2268 6.75 26.7896 6.57221 26.4673 6.25574C26.1449 5.93928 25.9639 5.51005 25.9639 5.0625C25.9639 4.61495 26.1449 4.18572 26.4673 3.86926C26.7896 3.55279 27.2268 3.375 27.6826 3.375C28.1385 3.375 28.5756 3.55279 28.898 3.86926C29.2203 4.18572 29.4014 4.61495 29.4014 5.0625ZM40.2175 37.125L32.8389 44.3694V37.9688C32.8389 37.745 32.9294 37.5304 33.0906 37.3721C33.2517 37.2139 33.4703 37.125 33.6982 37.125H40.2175Z" fill="url(#paint1_linear_444_28911)"/>
<path d="M44.0107 6.75H37.9951C37.9951 5.85489 37.633 4.99645 36.9883 4.36351C36.3436 3.73058 35.4693 3.375 34.5576 3.375H44.0107C45.1503 3.375 46.2433 3.81947 47.0491 4.61064C47.8549 5.40181 48.3076 6.47487 48.3076 7.59375V48.0938C48.3076 49.2126 47.8549 50.2857 47.0491 51.0769C46.2433 51.868 45.1503 52.3125 44.0107 52.3125H11.3545C10.2149 52.3125 9.12196 51.868 8.31614 51.0769C7.51032 50.2857 7.05762 49.2126 7.05762 48.0938V7.59375C7.05762 6.47487 7.51032 5.40181 8.31614 4.61064C9.12196 3.81947 10.2149 3.375 11.3545 3.375H20.8076C19.8959 3.375 19.0216 3.73058 18.3769 4.36351C17.7323 4.99645 17.3701 5.85489 17.3701 6.75H11.3545C11.1266 6.75 10.908 6.8389 10.7468 6.99713C10.5857 7.15536 10.4951 7.36997 10.4951 7.59375V48.0938C10.4951 48.3175 10.5857 48.5321 10.7468 48.6904C10.908 48.8486 11.1266 48.9375 11.3545 48.9375H44.0107C44.2387 48.9375 44.4572 48.8486 44.6184 48.6904C44.7796 48.5321 44.8701 48.3175 44.8701 48.0938V7.59375C44.8701 7.36997 44.7796 7.15536 44.6184 6.99713C44.4572 6.8389 44.2387 6.75 44.0107 6.75Z" fill="url(#paint2_linear_444_28911)"/>
<defs>
<linearGradient id="paint0_linear_444_28911" x1="39.9676" y1="20.25" x2="21.2245" y2="21.7081" gradientUnits="userSpaceOnUse">
<stop stop-color="#3B82F6"/>
<stop offset="1" stop-color="#9747FF"/>
</linearGradient>
<linearGradient id="paint1_linear_444_28911" x1="43.4777" y1="1.6875" x2="19.2668" y2="2.58438" gradientUnits="userSpaceOnUse">
<stop stop-color="#3B82F6"/>
<stop offset="1" stop-color="#9747FF"/>
</linearGradient>
<linearGradient id="paint2_linear_444_28911" x1="48.7427" y1="3.375" x2="16.4854" y2="4.85839" gradientUnits="userSpaceOnUse">
<stop stop-color="#3B82F6"/>
<stop offset="1" stop-color="#9747FF"/>
</linearGradient>
</defs>
</svg>
