<svg width="25" height="25" viewBox="0 0 25 25" fill="none" xmlns="http://www.w3.org/2000/svg">
<path d="M13.4888 16.5776H12.4888V12.5776H11.4888M12.4888 8.57764H12.4988M21.4888 12.5776C21.4888 13.7595 21.256 14.9299 20.8037 16.0218C20.3514 17.1137 19.6885 18.1059 18.8527 18.9416C18.017 19.7773 17.0249 20.4403 15.9329 20.8926C14.841 21.3448 13.6707 21.5776 12.4888 21.5776C11.3069 21.5776 10.1365 21.3448 9.04462 20.8926C7.95269 20.4403 6.96054 19.7773 6.12481 18.9416C5.28908 18.1059 4.62615 17.1137 4.17385 16.0218C3.72156 14.9299 3.48877 13.7595 3.48877 12.5776C3.48877 10.1907 4.43698 7.9015 6.12481 6.21368C7.81264 4.52585 10.1018 3.57764 12.4888 3.57764C14.8757 3.57764 17.1649 4.52585 18.8527 6.21368C20.5406 7.9015 21.4888 10.1907 21.4888 12.5776Z" stroke="#94A3B8" stroke-width="2" stroke-linecap="round" stroke-linejoin="round"/>
</svg>
