<svg width="16" height="17" viewBox="0 0 16 17" fill="none" xmlns="http://www.w3.org/2000/svg">
<path d="M10.3464 12.2242L10.7 12.5777L11.0536 12.2242L11.8536 11.4242L12.2071 11.0706L11.8536 10.7171L9.50711 8.37061L11.8536 6.02416L12.2071 5.67061L11.8536 5.31705L11.0536 4.51705L10.7 4.1635L10.3464 4.51705L8 6.8635L5.65355 4.51705L5.3 4.1635L4.94645 4.51705L4.14645 5.31705L3.79289 5.67061L4.14645 6.02416L6.49289 8.37061L4.14645 10.7171L3.79289 11.0706L4.14645 11.4242L4.94645 12.2242L5.3 12.5777L5.65355 12.2242L8 9.87771L10.3464 12.2242ZM1.5 8.37061C1.5 4.74675 4.37614 1.87061 8 1.87061C11.6239 1.87061 14.5 4.74675 14.5 8.37061C14.5 11.9945 11.6239 14.8706 8 14.8706C4.37614 14.8706 1.5 11.9945 1.5 8.37061Z" fill="#334155" stroke="#334155"/>
</svg>
