<svg width="17" height="17" viewBox="0 0 17 17" fill="none" xmlns="http://www.w3.org/2000/svg">
<mask id="mask0_205_4659" style="mask-type:alpha" maskUnits="userSpaceOnUse" x="0" y="0" width="17" height="17">
<rect x="0.431641" y="0.248047" width="16" height="16" fill="#D9D9D9"/>
</mask>
<g mask="url(#mask0_205_4659)">
<path d="M4.59827 9.41455H9.59827V8.41455H4.59827V9.41455ZM4.59827 7.41455H12.2649V6.41455H4.59827V7.41455ZM4.59827 5.41455H12.2649V4.41455H4.59827V5.41455ZM2.09827 14.2736V3.11972C2.09827 2.78294 2.21493 2.49788 2.44827 2.26455C2.6816 2.03122 2.96666 1.91455 3.30343 1.91455H13.5598C13.8965 1.91455 14.1816 2.03122 14.4149 2.26455C14.6483 2.49788 14.7649 2.78294 14.7649 3.11972V10.7094C14.7649 11.0462 14.6483 11.3312 14.4149 11.5646C14.1816 11.7979 13.8965 11.9145 13.5598 11.9145H4.45727L2.09827 14.2736ZM4.0316 10.9145H13.5598C13.6111 10.9145 13.6581 10.8932 13.7008 10.8504C13.7435 10.8077 13.7649 10.7607 13.7649 10.7094V3.11972C13.7649 3.06838 13.7435 3.02138 13.7008 2.97872C13.6581 2.93594 13.6111 2.91455 13.5598 2.91455H3.30343C3.2521 2.91455 3.2051 2.93594 3.16243 2.97872C3.11966 3.02138 3.09827 3.06838 3.09827 3.11972V11.8377L4.0316 10.9145Z" fill="#64748B"/>
</g>
</svg>
