<svg width="25" height="24" viewBox="0 0 25 24" fill="none" xmlns="http://www.w3.org/2000/svg">
<mask id="mask0_978_19656" style="mask-type:alpha" maskUnits="userSpaceOnUse" x="0" y="0" width="25" height="24">
<rect x="0.160156" width="24" height="24" fill="#D9D9D9"/>
</mask>
<g mask="url(#mask0_978_19656)">
<path d="M3.53138 19.7751L1.62563 17.9193C1.41913 17.7193 1.31746 17.4812 1.32063 17.2048C1.32396 16.9285 1.4288 16.6872 1.63513 16.4808C3.01846 15.0257 4.64079 13.9151 6.50213 13.1491C8.36346 12.3831 10.249 12.0001 12.1589 12.0001C14.0687 12.0001 15.9521 12.3831 17.8091 13.1491C19.6661 13.9151 21.2915 15.0257 22.6851 16.4808C22.8915 16.6872 22.9963 16.9285 22.9996 17.2048C23.0028 17.4812 22.9011 17.7193 22.6946 17.9193L20.7889 19.7751C20.5864 19.9712 20.3595 20.0808 20.1081 20.1038C19.857 20.127 19.625 20.0603 19.4121 19.9038L16.8966 17.9923C16.7313 17.8667 16.6089 17.7273 16.5294 17.5743C16.4499 17.4213 16.4101 17.2492 16.4101 17.0578V14.2366C15.6871 13.9917 14.9826 13.8077 14.2966 13.6846C13.6108 13.5616 12.8986 13.5001 12.1601 13.5001C11.4216 13.5001 10.7095 13.5616 10.0236 13.6846C9.33763 13.8077 8.63313 13.9917 7.91013 14.2366V17.0578C7.91013 17.2492 7.87038 17.4213 7.79088 17.5743C7.71138 17.7273 7.58896 17.8667 7.42363 17.9923L4.90813 19.9038C4.6953 20.0603 4.4633 20.127 4.21213 20.1038C3.9608 20.0808 3.73388 19.9712 3.53138 19.7751ZM6.41013 14.7251C5.81146 15.0136 5.23263 15.3539 4.67363 15.7461C4.11463 16.1384 3.59346 16.5507 3.11013 16.9828C3.07813 17.0148 3.06213 17.0468 3.06213 17.0788C3.06213 17.111 3.07813 17.1431 3.11013 17.1751L4.20638 18.2616C4.23838 18.2936 4.27838 18.3144 4.32638 18.3241C4.37455 18.3337 4.41788 18.3226 4.45638 18.2906L6.29488 16.8808C6.32688 16.8552 6.35405 16.8231 6.37638 16.7846C6.39888 16.7462 6.41013 16.711 6.41013 16.6788V14.7251ZM17.9101 14.7558V16.6788C17.9101 16.711 17.9214 16.7462 17.9439 16.7846C17.9662 16.8231 17.9934 16.8552 18.0254 16.8808L19.8639 18.2906C19.9024 18.3226 19.9457 18.3337 19.9939 18.3241C20.0419 18.3144 20.0819 18.2936 20.1139 18.2616L21.2101 17.2058C21.2421 17.1738 21.2581 17.1417 21.2581 17.1096C21.2581 17.0776 21.2421 17.0456 21.2101 17.0136C20.7268 16.5609 20.2056 16.141 19.6466 15.7538C19.0876 15.3667 18.5088 15.034 17.9101 14.7558ZM12.1389 11.0231L7.16963 6.05383V9.00007H5.66988V3.50007H11.1696V5.00007H8.22363L12.1236 8.90007L17.6101 3.41357L18.6794 4.48282L12.1389 11.0231Z" fill="#475569"/>
</g>
</svg>
