<svg width="25" height="25" viewBox="0 0 25 25" fill="none" xmlns="http://www.w3.org/2000/svg">
<mask id="mask0_978_24382" style="mask-type:alpha" maskUnits="userSpaceOnUse" x="0" y="0" width="25" height="25">
<rect x="0.85144" y="0.747559" width="24" height="24" fill="#D9D9D9"/>
</mask>
<g mask="url(#mask0_978_24382)">
<path d="M10.2554 16.4976H11.7552V8.99756H10.2554V16.4976ZM13.9477 16.4976H15.4474V8.99756H13.9477V16.4976ZM12.8532 22.2476C11.5392 22.2476 10.3041 21.9982 9.14794 21.4996C7.99177 21.0009 6.98611 20.3241 6.13094 19.4693C5.27577 18.6145 4.59869 17.6092 4.09969 16.4536C3.60086 15.2979 3.35144 14.0631 3.35144 12.7493C3.35144 11.4353 3.60077 10.2002 4.09944 9.04406C4.59811 7.88789 5.27486 6.88222 6.12969 6.02706C6.98452 5.17189 7.98977 4.49481 9.14544 3.99581C10.3011 3.49698 11.5359 3.24756 12.8497 3.24756C14.1637 3.24756 15.3988 3.49689 16.5549 3.99556C17.7111 4.49422 18.7168 5.17098 19.5719 6.02581C20.4271 6.88064 21.1042 7.88589 21.6032 9.04156C22.102 10.1972 22.3514 11.432 22.3514 12.7458C22.3514 14.0598 22.1021 15.2949 21.6034 16.4511C21.1048 17.6072 20.428 18.6129 19.5732 19.4681C18.7184 20.3232 17.7131 21.0003 16.5574 21.4993C15.4018 21.9981 14.167 22.2476 12.8532 22.2476ZM12.8514 20.7476C15.0848 20.7476 16.9764 19.9726 18.5264 18.4226C20.0764 16.8726 20.8514 14.9809 20.8514 12.7476C20.8514 10.5142 20.0764 8.62256 18.5264 7.07256C16.9764 5.52256 15.0848 4.74756 12.8514 4.74756C10.6181 4.74756 8.72644 5.52256 7.17644 7.07256C5.62644 8.62256 4.85144 10.5142 4.85144 12.7476C4.85144 14.9809 5.62644 16.8726 7.17644 18.4226C8.72644 19.9726 10.6181 20.7476 12.8514 20.7476Z" fill="#94A3B8"/>
</g>
</svg>
