<svg width="17" height="17" viewBox="0 0 17 17" fill="none" xmlns="http://www.w3.org/2000/svg">
<mask id="mask0_205_4660" style="mask-type:alpha" maskUnits="userSpaceOnUse" x="0" y="0" width="17" height="17">
<rect x="0.431641" y="0.248047" width="16" height="16" fill="#D9D9D9"/>
</mask>
<g mask="url(#mask0_205_4660)">
<path d="M13.124 8.06838C13.0856 6.78972 12.62 5.70405 11.7272 4.81138C10.8344 3.91861 9.74874 3.453 8.47018 3.41455V2.41455C9.24796 2.43166 9.97613 2.59105 10.6547 2.89272C11.3333 3.1945 11.9261 3.59877 12.433 4.10555C12.9398 4.61244 13.344 5.20516 13.6457 5.88372C13.9475 6.56238 14.1069 7.29061 14.124 8.06838H13.124ZM10.4573 8.06838C10.4189 7.53416 10.2116 7.07794 9.83552 6.69972C9.4594 6.32161 9.00429 6.11544 8.47018 6.08122V5.08122C9.28129 5.11544 9.97229 5.41905 10.5432 5.99205C11.1142 6.56516 11.4189 7.25727 11.4573 8.06838H10.4573ZM13.3918 13.9146C12.1355 13.9146 10.8733 13.6224 9.60535 13.0382C8.33746 12.454 7.17146 11.6299 6.10735 10.5659C5.04757 9.50177 4.22557 8.33677 3.64135 7.07088C3.05713 5.80511 2.76501 4.54405 2.76501 3.28772C2.76501 3.08772 2.83168 2.91994 2.96501 2.78438C3.09835 2.64894 3.26501 2.58122 3.46501 2.58122H5.63935C5.80768 2.58122 5.95618 2.63616 6.08485 2.74605C6.21351 2.85583 6.29535 2.9915 6.33035 3.15305L6.71251 5.11455C6.73896 5.29655 6.7334 5.45294 6.69585 5.58372C6.65818 5.7145 6.59063 5.82433 6.49318 5.91322L4.95351 7.41205C5.20129 7.86583 5.4844 8.29511 5.80285 8.69988C6.12118 9.10455 6.46585 9.49105 6.83685 9.85938C7.20263 10.2253 7.59151 10.5651 8.00351 10.8787C8.41551 11.1924 8.8604 11.4843 9.33818 11.7544L10.8342 10.2454C10.9385 10.1368 11.0648 10.0607 11.2132 10.0171C11.3614 9.9735 11.5155 9.96283 11.6753 9.98505L13.5265 10.3621C13.6948 10.4065 13.8322 10.4924 13.9387 10.6197C14.0451 10.7471 14.0983 10.8915 14.0983 11.0531V13.2146C14.0983 13.4146 14.0306 13.5812 13.8952 13.7146C13.7596 13.8479 13.5918 13.9146 13.3918 13.9146ZM4.48035 6.46588L5.67018 5.32738C5.69151 5.31027 5.7054 5.28677 5.71185 5.25688C5.71829 5.227 5.71724 5.19922 5.70868 5.17355L5.41885 3.68372C5.41029 3.64961 5.39535 3.62399 5.37401 3.60688C5.35268 3.58977 5.3249 3.58122 5.29068 3.58122H3.86501C3.83935 3.58122 3.81796 3.58977 3.80085 3.60688C3.78385 3.62399 3.77535 3.64538 3.77535 3.67105C3.80946 4.12661 3.88401 4.58938 3.99901 5.05938C4.1139 5.5295 4.27435 5.99833 4.48035 6.46588ZM10.2803 12.2274C10.7222 12.4334 11.1831 12.5909 11.663 12.6999C12.143 12.8088 12.5915 12.8735 13.0085 12.8941C13.0342 12.8941 13.0556 12.8855 13.0727 12.8684C13.0898 12.8513 13.0983 12.8299 13.0983 12.8042V11.4017C13.0983 11.3675 13.0898 11.3397 13.0727 11.3184C13.0556 11.2971 13.03 11.2821 12.9958 11.2736L11.5958 10.9889C11.5702 10.9803 11.5477 10.9793 11.5285 10.9857C11.5093 10.9922 11.489 11.0061 11.4675 11.0274L10.2803 12.2274Z" fill="#64748B"/>
</g>
</svg>
