<svg width="24" height="24" viewBox="0 0 24 24" fill="none" xmlns="http://www.w3.org/2000/svg">
<path d="M12.9998 2.03027V4.05027C17.3898 4.59027 20.4998 8.58027 19.9598 12.9703C19.4998 16.6103 16.6398 19.5003 12.9998 19.9303V21.9303C18.4998 21.3803 22.4998 16.5003 21.9498 11.0003C21.4998 6.25027 17.7298 2.50027 12.9998 2.03027ZM10.9998 2.06027C9.0498 2.25027 7.18981 3.00027 5.6698 4.26027L7.0998 5.74027C8.2198 4.84027 9.5698 4.26027 10.9998 4.06027V2.06027ZM4.2598 5.67027C3.01025 7.18809 2.2409 9.04358 2.0498 11.0003H4.0498C4.2398 9.58027 4.7998 8.23027 5.6898 7.10027L4.2598 5.67027ZM2.0598 13.0003C2.2598 14.9603 3.0298 16.8103 4.2698 18.3303L5.6898 16.9003C4.80665 15.7699 4.24366 14.4229 4.0598 13.0003H2.0598ZM7.0998 18.3703L5.6698 19.7403C7.18477 21.0027 9.03917 21.789 10.9998 22.0003V20.0003C9.57718 19.8164 8.23016 19.2534 7.0998 18.3703ZM12.4998 7.00027V12.2503L16.9998 14.9203L16.2498 16.1503L10.9998 13.0003V7.00027H12.4998Z" fill="#3B82F6"/>
</svg>
