<svg width="17" height="16" viewBox="0 0 17 16" fill="none" xmlns="http://www.w3.org/2000/svg">
<path d="M14.9258 14L10.9258 10M12.2591 6.66667C12.2591 7.2795 12.1384 7.88634 11.9039 8.45252C11.6694 9.01871 11.3256 9.53316 10.8923 9.9665C10.4589 10.3998 9.94449 10.7436 9.3783 10.9781C8.81212 11.2126 8.20528 11.3333 7.59245 11.3333C6.97961 11.3333 6.37278 11.2126 5.80659 10.9781C5.24041 10.7436 4.72596 10.3998 4.29262 9.9665C3.85928 9.53316 3.51553 9.01871 3.28101 8.45252C3.04649 7.88634 2.92578 7.2795 2.92578 6.66667C2.92578 5.42899 3.41745 4.242 4.29262 3.36683C5.16779 2.49167 6.35477 2 7.59245 2C8.83013 2 10.0171 2.49167 10.8923 3.36683C11.7674 4.242 12.2591 5.42899 12.2591 6.66667Z" stroke="#94A3B8" stroke-width="2" stroke-linecap="round" stroke-linejoin="round"/>
</svg>
