<svg width="17" height="17" viewBox="0 0 17 17" fill="none" xmlns="http://www.w3.org/2000/svg">
<path d="M14.6504 14.3672L10.6504 10.3672M11.9837 7.03385C11.9837 7.64669 11.863 8.25352 11.6285 8.81971C11.394 9.3859 11.0502 9.90035 10.6169 10.3337C10.1835 10.767 9.6691 11.1108 9.10291 11.3453C8.53673 11.5798 7.92989 11.7005 7.31706 11.7005C6.70422 11.7005 6.09739 11.5798 5.5312 11.3453C4.96502 11.1108 4.45057 10.767 4.01723 10.3337C3.58389 9.90035 3.24014 9.3859 3.00562 8.81971C2.7711 8.25352 2.65039 7.64669 2.65039 7.03385C2.65039 5.79618 3.14206 4.60919 4.01723 3.73402C4.8924 2.85885 6.07938 2.36719 7.31706 2.36719C8.55473 2.36719 9.74172 2.85885 10.6169 3.73402C11.4921 4.60919 11.9837 5.79618 11.9837 7.03385Z" stroke="#64748B" stroke-width="2" stroke-linecap="round" stroke-linejoin="round"/>
</svg>
