<svg width="16" height="17" viewBox="0 0 16 17" fill="none" xmlns="http://www.w3.org/2000/svg">
<path opacity="0.5" d="M14.1667 8.37028C14.1667 11.7761 11.4059 14.5369 8.00004 14.5369C4.59418 14.5369 1.83337 11.7761 1.83337 8.37028C1.83337 4.96442 4.59418 2.20361 8.00004 2.20361C11.4059 2.20361 14.1667 4.96442 14.1667 8.37028Z" fill="white" stroke="white"/>
<path d="M10.6866 6.35033C10.7803 6.44408 10.8329 6.57116 10.8329 6.70366C10.8329 6.83616 10.7803 6.96324 10.6866 7.05699L7.35331 10.3903C7.25956 10.484 7.13248 10.5366 6.99998 10.5366C6.86748 10.5366 6.7404 10.484 6.64665 10.3903L5.31331 9.05699C5.26419 9.01122 5.22479 8.95602 5.19746 8.89469C5.17013 8.83335 5.15544 8.76714 5.15425 8.70001C5.15307 8.63287 5.16542 8.56619 5.19057 8.50393C5.21571 8.44167 5.25314 8.38512 5.30062 8.33764C5.3481 8.29016 5.40466 8.25273 5.46692 8.22758C5.52917 8.20243 5.59586 8.19008 5.66299 8.19127C5.73013 8.19245 5.79634 8.20715 5.85767 8.23447C5.91901 8.2618 5.97421 8.3012 6.01998 8.35033L6.99998 9.33033L8.48998 7.84033L9.97998 6.35033C10.0737 6.25669 10.2008 6.2041 10.3333 6.2041C10.4658 6.2041 10.5929 6.25669 10.6866 6.35033Z" fill="white"/>
</svg>
