<svg width="24" height="25" viewBox="0 0 24 25" fill="none" xmlns="http://www.w3.org/2000/svg">
<mask id="mask0_978_13968" style="mask-type:alpha" maskUnits="userSpaceOnUse" x="0" y="0" width="24" height="25">
<rect y="0.5" width="24" height="24" fill="#D9D9D9"/>
</mask>
<g mask="url(#mask0_978_13968)">
<path d="M18.4402 22C16.5557 22 14.6625 21.5618 12.7605 20.6855C10.8587 19.8092 9.11125 18.573 7.51825 16.977C5.92542 15.3808 4.69083 13.6333 3.8145 11.7345C2.93817 9.83583 2.5 7.94425 2.5 6.05975C2.5 5.75692 2.6 5.50458 2.8 5.30275C3 5.10092 3.25 5 3.55 5H6.8115C7.064 5 7.28675 5.08242 7.47975 5.24725C7.67275 5.41192 7.7955 5.61542 7.848 5.85775L8.42125 8.8C8.46092 9.073 8.45258 9.30758 8.39625 9.50375C8.33975 9.69992 8.23842 9.86467 8.09225 9.998L5.78275 12.2463C6.15442 12.9269 6.57908 13.5708 7.05675 14.178C7.53425 14.785 8.05125 15.3648 8.60775 15.9173C9.15642 16.4661 9.73975 16.9757 10.3577 17.4462C10.9757 17.9167 11.6431 18.3546 12.3598 18.7598L14.6038 16.4962C14.7603 16.3334 14.9498 16.2193 15.1723 16.1538C15.3946 16.0884 15.6257 16.0724 15.8655 16.1058L18.6423 16.6712C18.8948 16.7379 19.1008 16.8667 19.2605 17.0577C19.4202 17.2487 19.5 17.4654 19.5 17.7078V20.95C19.5 21.25 19.3991 21.5 19.1973 21.7C18.9954 21.9 18.7431 22 18.4402 22ZM5.073 10.827L6.85775 9.11925C6.88975 9.09358 6.91058 9.05833 6.92025 9.0135C6.92992 8.96867 6.92833 8.927 6.9155 8.8885L6.48075 6.65375C6.46792 6.60258 6.4455 6.56417 6.4135 6.5385C6.3815 6.51283 6.33983 6.5 6.2885 6.5H4.15C4.1115 6.5 4.07942 6.51283 4.05375 6.5385C4.02825 6.56417 4.0155 6.59625 4.0155 6.63475C4.06667 7.31808 4.1785 8.01225 4.351 8.71725C4.52333 9.42242 4.764 10.1257 5.073 10.827ZM13.773 19.4693C14.4358 19.7783 15.1272 20.0145 15.847 20.178C16.567 20.3413 17.2397 20.4384 17.8652 20.4693C17.9037 20.4693 17.9358 20.4564 17.9615 20.4307C17.9872 20.4051 18 20.373 18 20.3345V18.2308C18 18.1794 17.9872 18.1377 17.9615 18.1058C17.9358 18.0738 17.8974 18.0513 17.8462 18.0385L15.7462 17.6115C15.7077 17.5987 15.6741 17.5971 15.6453 17.6068C15.6164 17.6164 15.5859 17.6373 15.5538 17.6693L13.773 19.4693ZM16.7515 12.5C15.4377 12.5 14.3173 12.037 13.3905 11.111C12.4635 10.185 12 9.06517 12 7.7515C12 6.43767 12.463 5.31733 13.389 4.3905C14.315 3.4635 15.4348 3 16.7485 3C18.0623 3 19.1827 3.463 20.1095 4.389C21.0365 5.315 21.5 6.43483 21.5 7.7485C21.5 9.06233 21.037 10.1827 20.111 11.1095C19.185 12.0365 18.0652 12.5 16.7515 12.5ZM16.3077 10.6923H17.1923V6.904H16.3077V10.6923ZM16.75 5.84625C16.8833 5.84625 17 5.79625 17.1 5.69625C17.2 5.59625 17.25 5.47958 17.25 5.34625C17.25 5.21292 17.2 5.09625 17.1 4.99625C17 4.89625 16.8833 4.84625 16.75 4.84625C16.6167 4.84625 16.5 4.89625 16.4 4.99625C16.3 5.09625 16.25 5.21292 16.25 5.34625C16.25 5.47958 16.3 5.59625 16.4 5.69625C16.5 5.79625 16.6167 5.84625 16.75 5.84625Z" fill="#475569"/>
</g>
</svg>
