<svg width="40" height="40" viewBox="0 0 40 40" fill="none" xmlns="http://www.w3.org/2000/svg">
<rect width="40" height="40" rx="20" fill="#3B82F6" fill-opacity="0.2"/>
<mask id="mask0_463_31710" style="mask-type:alpha" maskUnits="userSpaceOnUse" x="8" y="8" width="24" height="24">
<rect x="8" y="8" width="24" height="24" fill="#D9D9D9"/>
</mask>
<g mask="url(#mask0_463_31710)">
<path d="M14.5 27.5C13.118 27.5 11.9392 27.0206 10.9635 26.0617C9.98783 25.1029 9.5 23.9311 9.5 22.5463C9.5 21.3039 9.89967 20.2113 10.699 19.2683C11.4983 18.3253 12.4897 17.7666 13.673 17.5923C13.9935 16.0974 14.7452 14.875 15.928 13.925C17.1107 12.975 18.468 12.5 20 12.5C21.8107 12.5 23.3467 13.1307 24.608 14.392C25.8693 15.6533 26.5 17.1893 26.5 19V19.5H26.8078C27.8616 19.582 28.7404 20.0058 29.4443 20.7713C30.1481 21.5366 30.5 22.4462 30.5 23.5C30.5 24.6153 30.1154 25.5608 29.3463 26.3365C28.5769 27.1122 27.6346 27.5 26.5193 27.5H21.0577C20.5526 27.5 20.125 27.325 19.775 26.975C19.425 26.625 19.25 26.1974 19.25 25.6923V20.2152L17.4 22.0345L16.3463 20.9905L20 17.3365L23.6538 20.9905L22.6 22.0345L20.75 20.2152V25.6923C20.75 25.7692 20.7821 25.8398 20.8462 25.9038C20.9102 25.9679 20.9808 26 21.0577 26H26.5C27.2 26 27.7917 25.7583 28.275 25.275C28.7583 24.7917 29 24.2 29 23.5C29 22.8 28.7583 22.2083 28.275 21.725C27.7917 21.2417 27.2 21 26.5 21H25V19C25 17.6167 24.5125 16.4375 23.5375 15.4625C22.5625 14.4875 21.3833 14 20 14C18.6167 14 17.4375 14.4875 16.4625 15.4625C15.4875 16.4375 15 17.6167 15 19H14.4808C13.5333 19 12.7163 19.3417 12.0298 20.025C11.3433 20.7083 11 21.5333 11 22.5C11 23.4667 11.3417 24.2917 12.025 24.975C12.7083 25.6583 13.5333 26 14.5 26H17V27.5H14.5Z" fill="#3B82F6"/>
</g>
</svg>
