<svg width="49" height="48" viewBox="0 0 49 48" fill="none" xmlns="http://www.w3.org/2000/svg">
<path d="M22.1004 4.53174C10.8112 4.54527 1.66293 13.6935 1.64941 24.9827V36.4352C1.64922 39.5838 5.05759 41.5519 7.78447 39.9778C7.91439 39.9028 8.04009 39.8207 8.16098 39.7319C10.7419 37.8668 15.2554 35.6172 22.1004 35.6172C28.9453 35.6172 33.4588 37.8545 36.0397 39.7319C37.2905 40.6515 38.954 40.7838 40.3344 40.0734C41.7008 39.3763 42.5583 37.9691 42.5513 36.4352V24.9827C42.5378 13.6935 33.3895 4.54527 22.1004 4.53174ZM40.9152 24.9827V28.3019C37.875 26.229 34.5113 24.676 30.9617 23.7065C30.3601 17.3403 27.9352 11.2827 23.9777 6.25985C33.5889 7.23512 40.9048 15.3222 40.9152 24.9827ZM29.2786 23.2934C24.5474 22.2736 19.6533 22.2736 14.9221 23.2934C15.8914 14.5384 20.4643 8.48081 22.1004 6.57683C23.7364 8.48286 28.3092 14.5363 29.2786 23.2934ZM20.223 6.26188C16.2655 11.2847 13.8406 17.3424 13.239 23.7086C9.68936 24.6781 6.32568 26.231 3.28549 28.3039V24.9827C3.29695 15.323 10.6126 7.23707 20.223 6.26188ZM39.5818 38.6173C38.7543 39.0505 37.7518 38.971 37.0029 38.4128C34.2257 36.3902 29.385 33.9811 22.1004 33.9811C14.8157 33.9811 9.97499 36.3882 7.19775 38.4087C6.4489 38.9669 5.44636 39.0464 4.61889 38.6132C3.7935 38.203 3.27546 37.3568 3.28549 36.4352V30.2999C14.4936 22.1152 29.7071 22.1152 40.9152 30.2999V36.4352C40.9268 37.3583 40.4085 38.2065 39.5818 38.6173Z" fill="#64748B"/>
</svg>
