<svg width="25" height="24" viewBox="0 0 25 24" fill="none" xmlns="http://www.w3.org/2000/svg">
<path opacity="0.5" d="M2.75 11.9993C2.75 7.28527 2.75 4.92827 4.214 3.46327C5.68 1.99927 8.036 1.99927 12.75 1.99927C17.464 1.99927 19.821 1.99927 21.285 3.46327C22.75 4.92927 22.75 7.28527 22.75 11.9993C22.75 16.7133 22.75 19.0703 21.285 20.5343C19.822 21.9993 17.464 21.9993 12.75 21.9993C8.036 21.9993 5.679 21.9993 4.214 20.5343C2.75 19.0713 2.75 16.7133 2.75 11.9993Z" fill="#64748B"/>
<path d="M14 15.9993C14 15.8004 14.079 15.6096 14.2197 15.4689C14.3603 15.3283 14.5511 15.2493 14.75 15.2493H19.75C19.9489 15.2493 20.1397 15.3283 20.2803 15.4689C20.421 15.6096 20.5 15.8004 20.5 15.9993C20.5 16.1982 20.421 16.3889 20.2803 16.5296C20.1397 16.6703 19.9489 16.7493 19.75 16.7493H14.75C14.5511 16.7493 14.3603 16.6703 14.2197 16.5296C14.079 16.3889 14 16.1982 14 15.9993ZM10.75 7.24927C10.9489 7.24927 11.1397 7.32829 11.2803 7.46894C11.421 7.60959 11.5 7.80036 11.5 7.99927C11.5 8.19818 11.421 8.38894 11.2803 8.5296C11.1397 8.67025 10.9489 8.74927 10.75 8.74927H5.75C5.55109 8.74927 5.36032 8.67025 5.21967 8.5296C5.07902 8.38894 5 8.19818 5 7.99927C5 7.80036 5.07902 7.60959 5.21967 7.46894C5.36032 7.32829 5.55109 7.24927 5.75 7.24927H10.75ZM5 15.9993C5 15.8004 5.07902 15.6096 5.21967 15.4689C5.36032 15.3283 5.55109 15.2493 5.75 15.2493H6.75C6.94891 15.2493 7.13968 15.3283 7.28033 15.4689C7.42098 15.6096 7.5 15.8004 7.5 15.9993C7.5 16.1982 7.42098 16.3889 7.28033 16.5296C7.13968 16.6703 6.94891 16.7493 6.75 16.7493H5.75C5.55109 16.7493 5.36032 16.6703 5.21967 16.5296C5.07902 16.3889 5 16.1982 5 15.9993ZM19.75 7.24927C19.9489 7.24927 20.1397 7.32829 20.2803 7.46894C20.421 7.60959 20.5 7.80036 20.5 7.99927C20.5 8.19818 20.421 8.38894 20.2803 8.5296C20.1397 8.67025 19.9489 8.74927 19.75 8.74927H18.75C18.5511 8.74927 18.3603 8.67025 18.2197 8.5296C18.079 8.38894 18 8.19818 18 7.99927C18 7.80036 18.079 7.60959 18.2197 7.46894C18.3603 7.32829 18.5511 7.24927 18.75 7.24927H19.75Z" fill="#64748B"/>
<path fill-rule="evenodd" clip-rule="evenodd" d="M8 15.9993C8 16.7286 8.28973 17.4281 8.80546 17.9438C9.32118 18.4595 10.0207 18.7493 10.75 18.7493C11.4793 18.7493 12.1788 18.4595 12.6945 17.9438C13.2103 17.4281 13.5 16.7286 13.5 15.9993C13.5 15.2699 13.2103 14.5704 12.6945 14.0547C12.1788 13.539 11.4793 13.2493 10.75 13.2493C10.0207 13.2493 9.32118 13.539 8.80546 14.0547C8.28973 14.5704 8 15.2699 8 15.9993ZM9.5 15.9993C9.5 16.3308 9.6317 16.6487 9.86612 16.8832C10.1005 17.1176 10.4185 17.2493 10.75 17.2493C11.0815 17.2493 11.3995 17.1176 11.6339 16.8832C11.8683 16.6487 12 16.3308 12 15.9993C12 15.6677 11.8683 15.3498 11.6339 15.1154C11.3995 14.881 11.0815 14.7493 10.75 14.7493C10.4185 14.7493 10.1005 14.881 9.86612 15.1154C9.6317 15.3498 9.5 15.6677 9.5 15.9993ZM14.75 10.7493C15.4793 10.7493 16.1788 10.4595 16.6945 9.94381C17.2103 9.42809 17.5 8.72861 17.5 7.99927C17.5 7.26992 17.2103 6.57045 16.6945 6.05472C16.1788 5.539 15.4793 5.24927 14.75 5.24927C14.0207 5.24927 13.3212 5.539 12.8055 6.05472C12.2897 6.57045 12 7.26992 12 7.99927C12 8.72861 12.2897 9.42809 12.8055 9.94381C13.3212 10.4595 14.0207 10.7493 14.75 10.7493ZM14.75 9.24927C15.0815 9.24927 15.3995 9.11757 15.6339 8.88315C15.8683 8.64873 16 8.33079 16 7.99927C16 7.66775 15.8683 7.3498 15.6339 7.11538C15.3995 6.88096 15.0815 6.74927 14.75 6.74927C14.4185 6.74927 14.1005 6.88096 13.8661 7.11538C13.6317 7.3498 13.5 7.66775 13.5 7.99927C13.5 8.33079 13.6317 8.64873 13.8661 8.88315C14.1005 9.11757 14.4185 9.24927 14.75 9.24927Z" fill="#64748B"/>
</svg>
