<svg width="25" height="24" viewBox="0 0 25 24" fill="none" xmlns="http://www.w3.org/2000/svg">
<path opacity="0.5" d="M16.306 14.5473L15.851 15.0273C15.851 15.0273 14.768 16.1663 11.813 13.0553C8.858 9.94432 9.941 8.80532 9.941 8.80532L10.228 8.50232C10.934 7.75832 11.001 6.56432 10.384 5.69232L9.124 3.90932C8.36 2.82932 6.885 2.68732 6.01 3.60832L4.441 5.25932C4.008 5.71632 3.718 6.30732 3.753 6.96432C3.843 8.64432 4.561 12.2573 8.565 16.4743C12.812 20.9443 16.797 21.1223 18.426 20.9613C18.942 20.9113 19.39 20.6323 19.751 20.2523L21.171 18.7563C22.131 17.7463 21.861 16.0163 20.633 15.3103L18.723 14.2103C17.917 13.7473 16.936 13.8833 16.306 14.5463" fill="#64748B"/>
<path d="M14.01 1.87939C14.0421 1.68309 14.1509 1.50756 14.3123 1.39132C14.4737 1.27509 14.6746 1.22764 14.871 1.25939C14.896 1.26439 14.978 1.27939 15.021 1.28939C15.106 1.30739 15.225 1.33739 15.373 1.37939C15.67 1.46639 16.085 1.60939 16.583 1.83739C17.579 2.29439 18.904 3.09339 20.28 4.46839C21.656 5.84439 22.455 7.17039 22.912 8.16639C23.14 8.66439 23.282 9.07839 23.369 9.37639C23.4128 9.52612 23.4505 9.67758 23.482 9.83039L23.487 9.86139C23.5199 10.0594 23.4737 10.2625 23.3583 10.4267C23.2428 10.591 23.0675 10.7033 22.87 10.7394C22.6742 10.7712 22.4738 10.7241 22.3126 10.6085C22.1514 10.4928 22.0426 10.3181 22.01 10.1224C21.9895 10.0119 21.9625 9.90268 21.929 9.79539C21.8268 9.45196 21.6998 9.11641 21.549 8.79139C21.159 7.94139 20.457 6.76739 19.219 5.52939C17.982 4.29139 16.808 3.59039 15.957 3.20039C15.6323 3.04961 15.2971 2.92261 14.954 2.82039C14.8488 2.7907 14.7427 2.76403 14.636 2.74039C14.4396 2.70768 14.2639 2.59909 14.1468 2.43803C14.0297 2.27697 13.9805 2.07633 14.01 1.87939Z" fill="#64748B"/>
<path fill-rule="evenodd" clip-rule="evenodd" d="M14.236 5.32916C14.263 5.2344 14.3083 5.14588 14.3695 5.06866C14.4307 4.99144 14.5065 4.92702 14.5926 4.87911C14.6787 4.83119 14.7734 4.8007 14.8712 4.78939C14.9691 4.77807 15.0683 4.78615 15.163 4.81316L15.166 4.81416L15.169 4.81516L15.177 4.81716L15.197 4.82316L15.253 4.84316C15.5188 4.94555 15.7754 5.07033 16.02 5.21616C16.509 5.50616 17.177 5.98616 17.962 6.77216C18.747 7.55716 19.228 8.22516 19.518 8.71416C19.663 8.95916 19.759 9.15816 19.821 9.30416C19.8543 9.38053 19.8843 9.45827 19.911 9.53716L19.916 9.55716L19.919 9.56516V9.56816L19.92 9.56916C19.92 9.56916 19.92 9.57116 19.2 9.77716L19.92 9.57116C19.9708 9.76039 19.9455 9.96197 19.8496 10.1328C19.7537 10.3036 19.5947 10.4301 19.4067 10.4853C19.2187 10.5404 19.0166 10.5198 18.8436 10.4278C18.6706 10.3359 18.5405 10.1798 18.481 9.99317L18.478 9.98316C18.4077 9.80902 18.3241 9.64052 18.228 9.47916C18.004 9.10216 17.601 8.53216 16.901 7.83216C16.201 7.13216 15.632 6.73016 15.255 6.50716C15.0937 6.41103 14.9252 6.32745 14.751 6.25716L14.741 6.25316C14.5521 6.19637 14.3932 6.06745 14.2987 5.89431C14.2041 5.72118 14.1816 5.51878 14.236 5.32916Z" fill="#64748B"/>
</svg>
