<svg width="25" height="24" viewBox="0 0 25 24" fill="none" xmlns="http://www.w3.org/2000/svg">
<path fill-rule="evenodd" clip-rule="evenodd" d="M7.75 4.99927H11.75C13.636 4.99927 14.578 4.99927 15.164 5.58527C15.75 6.17127 15.75 7.11327 15.75 8.99927V21.2493H22.75C22.9489 21.2493 23.1397 21.3283 23.2803 21.4689C23.421 21.6096 23.5 21.8004 23.5 21.9993C23.5 22.1982 23.421 22.3889 23.2803 22.5296C23.1397 22.6703 22.9489 22.7493 22.75 22.7493H2.75C2.55109 22.7493 2.36032 22.6703 2.21967 22.5296C2.07902 22.3889 2 22.1982 2 21.9993C2 21.8004 2.07902 21.6096 2.21967 21.4689C2.36032 21.3283 2.55109 21.2493 2.75 21.2493H3.75V8.99927C3.75 7.11327 3.75 6.17127 4.336 5.58527C4.922 4.99927 5.864 4.99927 7.75 4.99927ZM6 7.99927C6 7.80036 6.07902 7.60959 6.21967 7.46894C6.36032 7.32829 6.55109 7.24927 6.75 7.24927H12.75C12.9489 7.24927 13.1397 7.32829 13.2803 7.46894C13.421 7.60959 13.5 7.80036 13.5 7.99927C13.5 8.19818 13.421 8.38894 13.2803 8.5296C13.1397 8.67025 12.9489 8.74927 12.75 8.74927H6.75C6.55109 8.74927 6.36032 8.67025 6.21967 8.5296C6.07902 8.38894 6 8.19818 6 7.99927ZM6 10.9993C6 10.8004 6.07902 10.6096 6.21967 10.4689C6.36032 10.3283 6.55109 10.2493 6.75 10.2493H12.75C12.9489 10.2493 13.1397 10.3283 13.2803 10.4689C13.421 10.6096 13.5 10.8004 13.5 10.9993C13.5 11.1982 13.421 11.3889 13.2803 11.5296C13.1397 11.6702 12.9489 11.7493 12.75 11.7493H6.75C6.55109 11.7493 6.36032 11.6702 6.21967 11.5296C6.07902 11.3889 6 11.1982 6 10.9993ZM6 13.9993C6 13.8004 6.07902 13.6096 6.21967 13.4689C6.36032 13.3283 6.55109 13.2493 6.75 13.2493H12.75C12.9489 13.2493 13.1397 13.3283 13.2803 13.4689C13.421 13.6096 13.5 13.8004 13.5 13.9993C13.5 14.1982 13.421 14.3889 13.2803 14.5296C13.1397 14.6702 12.9489 14.7493 12.75 14.7493H6.75C6.55109 14.7493 6.36032 14.6702 6.21967 14.5296C6.07902 14.3889 6 14.1982 6 13.9993ZM9.75 18.2493C9.94891 18.2493 10.1397 18.3283 10.2803 18.4689C10.421 18.6096 10.5 18.8004 10.5 18.9993V21.2493H9V18.9993C9 18.8004 9.07902 18.6096 9.21967 18.4689C9.36032 18.3283 9.55109 18.2493 9.75 18.2493Z" fill="#64748B"/>
<path opacity="0.5" d="M15.75 1.99927H17.75C19.636 1.99927 20.578 1.99927 21.164 2.58527C21.75 3.17127 21.75 4.11327 21.75 5.99927V21.2493H15.75V8.99927C15.75 7.11327 15.75 6.17127 15.164 5.58527C14.592 5.01227 13.678 4.99927 11.876 4.99927V3.49927C11.96 3.11227 12.101 2.81927 12.336 2.58527C12.92 1.99927 13.864 1.99927 15.75 1.99927Z" fill="#64748B"/>
</svg>
