<svg width="25" height="24" viewBox="0 0 25 24" fill="none" xmlns="http://www.w3.org/2000/svg">
<path opacity="0.5" d="M6.97199 4.6003C7.41457 4.30467 7.88121 4.04676 8.36699 3.8293C9.73899 3.2143 10.425 2.9073 11.337 3.4993C12.25 4.0893 12.25 5.0593 12.25 6.9993V8.4993C12.25 10.3853 12.25 11.3273 12.836 11.9133C13.422 12.4993 14.364 12.4993 16.25 12.4993H17.75C19.69 12.4993 20.66 12.4993 21.25 13.4113C21.842 14.3243 21.535 15.0103 20.92 16.3813C20.0409 18.3452 18.5211 19.9525 16.6094 20.9398C14.6976 21.9272 12.5073 22.2363 10.397 21.8163C8.55425 21.4497 6.86158 20.545 5.53302 19.2164C4.20447 17.8879 3.29969 16.1952 2.93309 14.3525C2.56649 12.5098 2.75453 10.5997 3.47345 8.86383C4.19236 7.12796 5.40986 5.64425 6.97199 4.6003Z" fill="#64748B"/>
<path d="M22.196 7.06834C21.7924 6.04688 21.1834 5.11914 20.4068 4.34252C19.6302 3.5659 18.7025 2.95695 17.681 2.55334C16.139 1.94634 14.75 3.34334 14.75 4.99934V8.99934C14.75 9.26456 14.8554 9.51891 15.0429 9.70645C15.2304 9.89398 15.4848 9.99934 15.75 9.99934H19.75C21.407 9.99934 22.803 8.60934 22.196 7.06834Z" fill="#64748B"/>
</svg>
