<svg width="25" height="24" viewBox="0 0 25 24" fill="none" xmlns="http://www.w3.org/2000/svg">
<path opacity="0.5" fill-rule="evenodd" clip-rule="evenodd" d="M14.75 21.9993H10.75C6.979 21.9993 5.093 21.9993 3.922 20.8273C2.75 19.6563 2.75 17.7703 2.75 13.9993V9.99927C2.75 6.22827 2.75 4.34227 3.922 3.17127C5.093 1.99927 6.989 1.99927 10.78 1.99927C11.386 1.99927 11.871 1.99927 12.28 2.01627C12.267 2.09627 12.26 2.17727 12.26 2.26027L12.25 5.09427C12.25 6.19127 12.25 7.16127 12.355 7.94227C12.469 8.78927 12.73 9.63627 13.422 10.3283C14.112 11.0183 14.96 11.2803 15.807 11.3943C16.588 11.4993 17.558 11.4993 18.655 11.4993H22.707C22.75 12.0333 22.75 12.6893 22.75 13.5623V13.9993C22.75 17.7703 22.75 19.6563 21.578 20.8273C20.407 21.9993 18.521 21.9993 14.75 21.9993Z" fill="#64748B"/>
<path d="M12.26 2.25915L12.25 5.09415C12.25 6.19115 12.25 7.16015 12.355 7.94215C12.469 8.78915 12.73 9.63615 13.422 10.3272C14.112 11.0182 14.96 11.2802 15.807 11.3942C16.588 11.4992 17.558 11.4992 18.655 11.4992H22.707C22.72 11.6542 22.729 11.8202 22.735 11.9992H22.75C22.75 11.7312 22.75 11.5971 22.74 11.4391C22.663 10.4889 22.3321 9.57679 21.782 8.79815C21.688 8.67015 21.624 8.59415 21.497 8.44115C20.704 7.49315 19.66 6.31115 18.75 5.49915C17.94 4.77515 16.829 3.98415 15.86 3.33815C15.028 2.78215 14.612 2.50415 14.041 2.29815C13.8749 2.23871 13.706 2.18732 13.535 2.14415C13.151 2.04915 12.777 2.01615 12.25 2.00415L12.26 2.25915Z" fill="#64748B"/>
</svg>
