<svg width="25" height="24" viewBox="0 0 25 24" fill="none" xmlns="http://www.w3.org/2000/svg">
<path opacity="0.5" d="M3.75 10C3.75 6.229 3.75 4.343 4.922 3.172C6.093 2 7.979 2 11.75 2H13.75C17.521 2 19.407 2 20.578 3.172C21.75 4.343 21.75 6.229 21.75 10V14C21.75 17.771 21.75 19.657 20.578 20.828C19.407 22 17.521 22 13.75 22H11.75C7.979 22 6.093 22 4.922 20.828C3.75 19.657 3.75 17.771 3.75 14V10Z" fill="#64748B"/>
<path fill-rule="evenodd" clip-rule="evenodd" d="M8 12C8 11.8011 8.07902 11.6103 8.21967 11.4697C8.36032 11.329 8.55109 11.25 8.75 11.25H16.75C16.9489 11.25 17.1397 11.329 17.2803 11.4697C17.421 11.6103 17.5 11.8011 17.5 12C17.5 12.1989 17.421 12.3897 17.2803 12.5303C17.1397 12.671 16.9489 12.75 16.75 12.75H8.75C8.55109 12.75 8.36032 12.671 8.21967 12.5303C8.07902 12.3897 8 12.1989 8 12ZM8 8C8 7.80109 8.07902 7.61032 8.21967 7.46967C8.36032 7.32902 8.55109 7.25 8.75 7.25H16.75C16.9489 7.25 17.1397 7.32902 17.2803 7.46967C17.421 7.61032 17.5 7.80109 17.5 8C17.5 8.19891 17.421 8.38968 17.2803 8.53033C17.1397 8.67098 16.9489 8.75 16.75 8.75H8.75C8.55109 8.75 8.36032 8.67098 8.21967 8.53033C8.07902 8.38968 8 8.19891 8 8ZM8 16C8 15.8011 8.07902 15.6103 8.21967 15.4697C8.36032 15.329 8.55109 15.25 8.75 15.25H13.75C13.9489 15.25 14.1397 15.329 14.2803 15.4697C14.421 15.6103 14.5 15.8011 14.5 16C14.5 16.1989 14.421 16.3897 14.2803 16.5303C14.1397 16.671 13.9489 16.75 13.75 16.75H8.75C8.55109 16.75 8.36032 16.671 8.21967 16.5303C8.07902 16.3897 8 16.1989 8 16Z" fill="#64748B"/>
</svg>
