<svg width="25" height="24" viewBox="0 0 25 24" fill="none" xmlns="http://www.w3.org/2000/svg">
<path opacity="0.5" d="M22.75 12C22.75 17.523 18.273 22 12.75 22C7.227 22 2.75 17.523 2.75 12C2.75 6.477 7.227 2 12.75 2C18.273 2 22.75 6.477 22.75 12Z" fill="#64748B"/>
<path d="M12.75 7.74992C12.129 7.74992 11.625 8.25392 11.625 8.87492C11.625 9.07383 11.546 9.26459 11.4053 9.40525C11.2647 9.5459 11.0739 9.62492 10.875 9.62492C10.6761 9.62492 10.4853 9.5459 10.3447 9.40525C10.204 9.26459 10.125 9.07383 10.125 8.87492C10.125 8.44485 10.2307 8.02138 10.4327 7.64174C10.6348 7.26209 10.927 6.93791 11.2837 6.69768C11.6405 6.45746 12.0507 6.30856 12.4785 6.26408C12.9062 6.2196 13.3384 6.28089 13.7369 6.44258C14.1354 6.60426 14.4881 6.86139 14.7639 7.19133C15.0398 7.52128 15.2303 7.91395 15.3188 8.33481C15.4073 8.75567 15.3911 9.19182 15.2715 9.60492C15.1519 10.018 14.9326 10.3954 14.633 10.7039C14.541 10.7989 14.453 10.8869 14.369 10.9709C14.1659 11.1644 13.9752 11.3704 13.798 11.5879C13.578 11.8699 13.5 12.0769 13.5 12.2499V12.9999C13.5 13.1988 13.421 13.3896 13.2803 13.5302C13.1397 13.6709 12.9489 13.7499 12.75 13.7499C12.5511 13.7499 12.3603 13.6709 12.2197 13.5302C12.079 13.3896 12 13.1988 12 12.9999V12.2499C12 11.5949 12.305 11.0639 12.614 10.6669C12.843 10.3729 13.13 10.0869 13.364 9.85292C13.434 9.78292 13.5 9.71792 13.557 9.65892C13.7111 9.50032 13.8151 9.29981 13.8559 9.08247C13.8967 8.86512 13.8725 8.64057 13.7864 8.43687C13.7003 8.23318 13.5561 8.05939 13.3717 7.93721C13.1874 7.81503 12.9711 7.74988 12.75 7.74992ZM12.75 16.9999C13.0152 16.9999 13.2696 16.8946 13.4571 16.707C13.6446 16.5195 13.75 16.2651 13.75 15.9999C13.75 15.7347 13.6446 15.4803 13.4571 15.2928C13.2696 15.1053 13.0152 14.9999 12.75 14.9999C12.4848 14.9999 12.2304 15.1053 12.0429 15.2928C11.8554 15.4803 11.75 15.7347 11.75 15.9999C11.75 16.2651 11.8554 16.5195 12.0429 16.707C12.2304 16.8946 12.4848 16.9999 12.75 16.9999Z" fill="#64748B"/>
</svg>
