<svg width="25" height="24" viewBox="0 0 25 24" fill="none" xmlns="http://www.w3.org/2000/svg">
<path fill-rule="evenodd" clip-rule="evenodd" d="M11.154 22.4799L11.429 22.0149C11.869 21.2699 12.089 20.8979 12.441 20.6899C12.792 20.4829 13.251 20.4679 14.166 20.4379C15.025 20.4109 15.602 20.3359 16.096 20.1319C16.6106 19.9187 17.0781 19.6061 17.4719 19.2122C17.8657 18.8182 18.178 18.3506 18.391 17.8359C18.714 17.0569 18.714 16.0689 18.714 14.0929V13.2449C18.714 10.4679 18.714 9.07991 18.089 8.05991C17.739 7.48991 17.259 7.00991 16.689 6.65991C15.669 6.03491 14.281 6.03491 11.504 6.03491H8.96C6.183 6.03491 4.795 6.03491 3.775 6.65991C3.205 7.00991 2.725 7.48991 2.375 8.05991C1.75 9.07991 1.75 10.4679 1.75 13.2449V14.0929C1.75 16.0689 1.75 17.0569 2.073 17.8369C2.50343 18.876 3.32896 19.7015 4.368 20.1319C4.862 20.3359 5.438 20.4119 6.298 20.4379C7.214 20.4679 7.672 20.4829 8.023 20.6899C8.373 20.8979 8.594 21.2699 9.035 22.0149L9.31 22.4799C9.72 23.1719 10.744 23.1719 11.154 22.4799ZM13.943 14.5169C14.2241 14.5169 14.4937 14.4052 14.6925 14.2064C14.8913 14.0077 15.003 13.738 15.003 13.4569C15.003 13.1758 14.8913 12.9062 14.6925 12.7074C14.4937 12.5086 14.2241 12.3969 13.943 12.3969C13.6619 12.3969 13.3923 12.5086 13.1935 12.7074C12.9947 12.9062 12.883 13.1758 12.883 13.4569C12.883 13.738 12.9947 14.0077 13.1935 14.2064C13.3923 14.4052 13.6619 14.5169 13.943 14.5169ZM11.293 13.4569C11.293 13.5962 11.2656 13.7341 11.2123 13.8627C11.159 13.9914 11.0809 14.1083 10.9824 14.2068C10.8839 14.3053 10.767 14.3834 10.6383 14.4367C10.5097 14.49 10.3718 14.5174 10.2325 14.5174C10.0932 14.5174 9.95533 14.49 9.82666 14.4367C9.698 14.3834 9.58109 14.3053 9.48261 14.2068C9.38414 14.1083 9.30602 13.9914 9.25273 13.8627C9.19943 13.7341 9.172 13.5962 9.172 13.4569C9.172 13.1758 9.28368 12.9062 9.48247 12.7074C9.68126 12.5086 9.95087 12.3969 10.232 12.3969C10.5131 12.3969 10.7827 12.5086 10.9815 12.7074C11.1803 12.9062 11.292 13.1758 11.292 13.4569M6.52 14.5169C6.80113 14.5169 7.07074 14.4052 7.26953 14.2064C7.46832 14.0077 7.58 13.738 7.58 13.4569C7.58 13.1758 7.46832 12.9062 7.26953 12.7074C7.07074 12.5086 6.80113 12.3969 6.52 12.3969C6.23887 12.3969 5.96926 12.5086 5.77047 12.7074C5.57168 12.9062 5.46 13.1758 5.46 13.4569C5.46 13.738 5.57168 14.0077 5.77047 14.2064C5.96926 14.4052 6.23887 14.5169 6.52 14.5169Z" fill="#64748B"/>
<path opacity="0.5" d="M16.236 1C17.503 1 18.51 1 19.318 1.077C20.147 1.156 20.848 1.321 21.471 1.703C22.1129 2.09635 22.6526 2.63606 23.046 3.278C23.429 3.902 23.594 4.603 23.673 5.431C23.749 6.239 23.749 7.247 23.749 8.513V9.379C23.749 10.28 23.749 10.998 23.709 11.579C23.669 12.174 23.584 12.685 23.386 13.163C23.1401 13.7565 22.7769 14.2943 22.3181 14.744C21.8593 15.1937 21.3143 15.5461 20.716 15.78C20.575 15.834 20.454 15.88 20.348 15.915H18.698C18.714 15.416 18.714 14.822 18.714 14.093V13.245C18.714 10.468 18.714 9.08 18.089 8.06C17.739 7.49 17.259 7.01 16.689 6.66C15.669 6.035 14.281 6.035 11.504 6.035H8.95999C7.97399 6.035 7.16399 6.035 6.48199 6.063V4.413C6.51499 4.299 6.55999 4.169 6.61199 4.017C6.70199 3.757 6.81499 3.512 6.95799 3.278C7.35166 2.63597 7.89172 2.09626 8.53399 1.703C9.15799 1.321 9.858 1.156 10.687 1.077C11.495 1 12.502 1 13.769 1H16.236Z" fill="#64748B"/>
</svg>
