<svg width="25" height="24" viewBox="0 0 25 24" fill="none" xmlns="http://www.w3.org/2000/svg">
<path fill-rule="evenodd" clip-rule="evenodd" d="M21.58 10.7143L21.062 12.6463C20.457 14.9013 20.155 16.0293 19.47 16.7603C18.9295 17.3374 18.23 17.7414 17.46 17.9213C17.363 17.9443 17.265 17.9613 17.165 17.9733C16.25 18.0863 15.133 17.7873 13.101 17.2433C10.846 16.6383 9.71799 16.3363 8.98699 15.6513C8.40966 15.1105 8.00563 14.4106 7.82599 13.6403C7.59799 12.6643 7.89999 11.5373 8.50499 9.28226L9.02199 7.35026L9.26599 6.44526C9.72099 4.77926 10.027 3.86226 10.614 3.23526C11.1546 2.65846 11.8541 2.2548 12.624 2.07526C13.6 1.84726 14.728 2.14926 16.984 2.75426C19.238 3.35826 20.366 3.66026 21.097 4.34426C21.6745 4.88532 22.0785 5.58551 22.258 6.35626C22.486 7.33226 22.184 8.45926 21.58 10.7143ZM11.801 9.80426C11.8265 9.70911 11.8705 9.61992 11.9305 9.54178C11.9905 9.46364 12.0654 9.39809 12.1507 9.34888C12.236 9.29966 12.3302 9.26773 12.4279 9.25493C12.5256 9.24213 12.6249 9.2487 12.72 9.27426L17.55 10.5693C17.6476 10.5924 17.7397 10.6349 17.8206 10.6943C17.9015 10.7537 17.9697 10.8287 18.0211 10.9149C18.0725 11.0011 18.1061 11.0967 18.1199 11.1961C18.1336 11.2955 18.1273 11.3967 18.1013 11.4936C18.0752 11.5905 18.03 11.6812 17.9683 11.7604C17.9065 11.8395 17.8295 11.9054 17.7419 11.9543C17.6542 12.0031 17.5576 12.0338 17.4578 12.0447C17.358 12.0555 17.2571 12.0462 17.161 12.0173L12.331 10.7233C12.139 10.6717 11.9754 10.5461 11.876 10.3739C11.7767 10.2018 11.7497 9.99627 11.801 9.80426ZM11.025 12.7033C11.0766 12.5113 11.2022 12.3477 11.3743 12.2483C11.5464 12.1489 11.751 12.1219 11.943 12.1733L14.841 12.9503C14.9391 12.9729 15.0317 13.0151 15.1131 13.0743C15.1946 13.1335 15.2633 13.2084 15.3152 13.2948C15.3671 13.3811 15.401 13.4769 15.415 13.5767C15.429 13.6764 15.4228 13.7779 15.3968 13.8752C15.3707 13.9724 15.3253 14.0635 15.2633 14.1428C15.2013 14.2222 15.124 14.2882 15.0359 14.337C14.9478 14.3858 14.8508 14.4164 14.7507 14.4269C14.6505 14.4375 14.5493 14.4277 14.453 14.3983L11.555 13.6223C11.4598 13.5967 11.3706 13.5527 11.2925 13.4927C11.2144 13.4327 11.1488 13.3579 11.0996 13.2726C11.0504 13.1872 11.0185 13.093 11.0057 12.9953C10.9929 12.8977 10.9994 12.7984 11.025 12.7033Z" fill="#64748B"/>
<path opacity="0.5" d="M17.165 17.9743C16.9558 18.6143 16.5885 19.1911 16.097 19.6513C15.366 20.3363 14.238 20.6383 11.983 21.2423C9.728 21.8463 8.6 22.1493 7.625 21.9213C6.85461 21.7417 6.15478 21.3377 5.614 20.7603C4.929 20.0293 4.626 18.9013 4.022 16.6463L3.505 14.7143C2.9 12.4593 2.598 11.3313 2.825 10.3563C3.00491 9.58583 3.4093 8.88599 3.987 8.34534C4.718 7.66034 5.846 7.35834 8.101 6.75334C8.527 6.63934 8.914 6.53534 9.266 6.44434L9.022 7.35034L8.505 9.28234C7.9 11.5373 7.598 12.6643 7.825 13.6403C8.00491 14.4108 8.4093 15.1107 8.987 15.6513C9.718 16.3363 10.846 16.6383 13.101 17.2433C15.133 17.7873 16.25 18.0873 17.165 17.9743Z" fill="#64748B"/>
</svg>
