<svg width="25" height="24" viewBox="0 0 25 24" fill="none" xmlns="http://www.w3.org/2000/svg">
<path opacity="0.5" d="M3.75 10C3.75 6.229 3.75 4.343 4.922 3.172C6.093 2 7.979 2 11.75 2H13.75C17.521 2 19.407 2 20.578 3.172C21.75 4.343 21.75 6.229 21.75 10V14C21.75 17.771 21.75 19.657 20.578 20.828C19.407 22 17.521 22 13.75 22H11.75C7.979 22 6.093 22 4.922 20.828C3.75 19.657 3.75 17.771 3.75 14V10Z" fill="#64748B"/>
<path d="M17.269 16.5009C17.444 16.3649 17.603 16.2059 17.92 15.8889L21.877 11.9309C21.973 11.8359 21.929 11.6709 21.802 11.6259C21.1828 11.4101 20.6207 11.0566 20.158 10.5919C19.6934 10.1292 19.3398 9.56711 19.124 8.94792C19.079 8.82092 18.914 8.77692 18.819 8.87292L14.86 12.8299C14.543 13.1469 14.384 13.3059 14.248 13.4809C14.087 13.6879 13.948 13.9109 13.836 14.1469C13.741 14.3469 13.67 14.5609 13.528 14.9869L13.344 15.5369L13.052 16.4119L12.779 17.2319C12.745 17.3347 12.7402 17.4449 12.7651 17.5503C12.7901 17.6556 12.8439 17.7519 12.9204 17.8285C12.997 17.905 13.0933 17.9588 13.1987 17.9838C13.304 18.0088 13.4142 18.004 13.517 17.9699L14.337 17.6969L15.212 17.4049L15.762 17.2209C16.188 17.0789 16.402 17.0089 16.602 16.9129C16.838 16.7999 17.063 16.6629 17.269 16.5009ZM23.117 10.6919C23.5227 10.2861 23.7505 9.73583 23.7504 9.16206C23.7503 8.5883 23.5223 8.03807 23.1165 7.63242C22.7107 7.22677 22.1604 6.99893 21.5867 6.99902C21.0129 6.99912 20.4627 7.22714 20.057 7.63292L19.931 7.76092C19.8705 7.8206 19.8254 7.89413 19.7996 7.97514C19.7738 8.05615 19.7681 8.14222 19.783 8.22592C19.803 8.33292 19.838 8.49092 19.903 8.67792C20.033 9.05292 20.279 9.54492 20.742 10.0079C21.116 10.3848 21.5708 10.6718 22.072 10.8469C22.26 10.9119 22.417 10.9469 22.524 10.9669C22.6077 10.9817 22.6937 10.976 22.7747 10.9502C22.8557 10.9244 22.9293 10.8794 22.989 10.8189L23.117 10.6919Z" fill="#64748B"/>
<path fill-rule="evenodd" clip-rule="evenodd" d="M8 9C8 8.80109 8.07902 8.61032 8.21967 8.46967C8.36032 8.32902 8.55109 8.25 8.75 8.25H15.25C15.4489 8.25 15.6397 8.32902 15.7803 8.46967C15.921 8.61032 16 8.80109 16 9C16 9.19891 15.921 9.38968 15.7803 9.53033C15.6397 9.67098 15.4489 9.75 15.25 9.75H8.75C8.55109 9.75 8.36032 9.67098 8.21967 9.53033C8.07902 9.38968 8 9.19891 8 9ZM8 13C8 12.8011 8.07902 12.6103 8.21967 12.4697C8.36032 12.329 8.55109 12.25 8.75 12.25H11.75C11.9489 12.25 12.1397 12.329 12.2803 12.4697C12.421 12.6103 12.5 12.8011 12.5 13C12.5 13.1989 12.421 13.3897 12.2803 13.5303C12.1397 13.671 11.9489 13.75 11.75 13.75H8.75C8.55109 13.75 8.36032 13.671 8.21967 13.5303C8.07902 13.3897 8 13.1989 8 13ZM8 17C8 16.8011 8.07902 16.6103 8.21967 16.4697C8.36032 16.329 8.55109 16.25 8.75 16.25H10.25C10.4489 16.25 10.6397 16.329 10.7803 16.4697C10.921 16.6103 11 16.8011 11 17C11 17.1989 10.921 17.3897 10.7803 17.5303C10.6397 17.671 10.4489 17.75 10.25 17.75H8.75C8.55109 17.75 8.36032 17.671 8.21967 17.5303C8.07902 17.3897 8 17.1989 8 17Z" fill="#64748B"/>
</svg>
