<svg width="25" height="24" viewBox="0 0 25 24" fill="none" xmlns="http://www.w3.org/2000/svg">
<path opacity="0.5" d="M2.75 12C2.75 7.286 2.75 4.929 4.214 3.464C5.68 2 8.036 2 12.75 2C17.464 2 19.821 2 21.285 3.464C22.75 4.93 22.75 7.286 22.75 12C22.75 16.714 22.75 19.071 21.285 20.535C19.822 22 17.464 22 12.75 22C8.036 22 5.679 22 4.214 20.535C2.75 19.072 2.75 16.714 2.75 12Z" fill="#64748B"/>
<path d="M15.25 10.75C15.0511 10.75 14.8603 10.671 14.7197 10.5303C14.579 10.3897 14.5 10.1989 14.5 10C14.5 9.80109 14.579 9.61032 14.7197 9.46967C14.8603 9.32902 15.0511 9.25 15.25 9.25H17.75C17.9489 9.25 18.1397 9.32902 18.2803 9.46967C18.421 9.61032 18.5 9.80109 18.5 10V12.5C18.5 12.6989 18.421 12.8897 18.2803 13.0303C18.1397 13.171 17.9489 13.25 17.75 13.25C17.5511 13.25 17.3603 13.171 17.2197 13.0303C17.079 12.8897 17 12.6989 17 12.5V11.81L14.987 13.823C14.6588 14.1509 14.2139 14.3351 13.75 14.3351C13.2861 14.3351 12.8412 14.1509 12.513 13.823L10.927 12.237C10.9038 12.2137 10.8762 12.1952 10.8458 12.1826C10.8154 12.17 10.7829 12.1636 10.75 12.1636C10.7171 12.1636 10.6846 12.17 10.6542 12.1826C10.6238 12.1952 10.5962 12.2137 10.573 12.237L8.28 14.53C8.13782 14.6625 7.94978 14.7346 7.75548 14.7312C7.56118 14.7277 7.37579 14.649 7.23838 14.5116C7.10096 14.3742 7.02225 14.1888 7.01882 13.9945C7.0154 13.8002 7.08752 13.6122 7.22 13.47L9.513 11.177C9.84115 10.8491 10.2861 10.6649 10.75 10.6649C11.2139 10.6649 11.6588 10.8491 11.987 11.177L13.573 12.763C13.5962 12.7863 13.6238 12.8048 13.6542 12.8174C13.6846 12.83 13.7171 12.8364 13.75 12.8364C13.7829 12.8364 13.8154 12.83 13.8458 12.8174C13.8762 12.8048 13.9038 12.7863 13.927 12.763L15.939 10.75H15.25Z" fill="#64748B"/>
</svg>
