<svg width="25" height="24" viewBox="0 0 25 24" fill="none" xmlns="http://www.w3.org/2000/svg">
<path d="M2.75 17.4993C2.75 16.3058 3.22411 15.1612 4.06802 14.3173C4.91193 13.4734 6.05653 12.9993 7.25 12.9993H9.95C10.58 12.9993 10.895 12.9993 11.136 13.1223C11.347 13.2293 11.52 13.4023 11.627 13.6133C11.75 13.8533 11.75 14.1693 11.75 14.7993V17.4993C11.75 18.0902 11.6336 18.6754 11.4075 19.2213C11.1813 19.7673 10.8498 20.2634 10.432 20.6812C10.0141 21.0991 9.51804 21.4306 8.97208 21.6567C8.42611 21.8829 7.84095 21.9993 7.25 21.9993C6.65905 21.9993 6.07389 21.8829 5.52792 21.6567C4.98196 21.4306 4.48588 21.0991 4.06802 20.6812C3.65016 20.2634 3.31869 19.7673 3.09254 19.2213C2.8664 18.6754 2.75 18.0902 2.75 17.4993ZM13.75 6.49927C13.75 5.60925 14.0139 4.73922 14.5084 3.9992C15.0029 3.25918 15.7057 2.68241 16.5279 2.34181C17.3502 2.00122 18.255 1.9121 19.1279 2.08574C20.0008 2.25937 20.8026 2.68795 21.432 3.31729C22.0613 3.94663 22.4899 4.74845 22.6635 5.62136C22.8372 6.49428 22.7481 7.39908 22.4075 8.22134C22.0669 9.04361 21.4901 9.74642 20.7501 10.2409C20.01 10.7353 19.14 10.9993 18.25 10.9993H15.036C14.886 10.9993 14.812 10.9993 14.749 10.9923C14.4957 10.9637 14.2597 10.8501 14.0794 10.6698C13.8992 10.4896 13.7855 10.2535 13.757 10.0003C13.75 9.93727 13.75 9.86327 13.75 9.71327V6.49927Z" fill="#64748B"/>
<path opacity="0.5" d="M2.75 6.49927C2.75 5.30579 3.22411 4.1612 4.06802 3.31729C4.91193 2.47337 6.05653 1.99927 7.25 1.99927C8.44347 1.99927 9.58807 2.47337 10.432 3.31729C11.2759 4.1612 11.75 5.30579 11.75 6.49927V9.49927C11.75 9.84827 11.75 10.0223 11.712 10.1653C11.6609 10.3562 11.5605 10.5303 11.4207 10.67C11.281 10.8097 11.1069 10.9102 10.916 10.9613C10.773 10.9993 10.6 10.9993 10.25 10.9993H7.25C6.05653 10.9993 4.91193 10.5252 4.06802 9.68125C3.22411 8.83733 2.75 7.69274 2.75 6.49927ZM13.75 14.4993C13.75 14.1503 13.75 13.9763 13.788 13.8333C13.892 13.4453 14.196 13.1413 14.584 13.0373C14.727 12.9993 14.901 12.9993 15.25 12.9993H18.25C19.14 12.9993 20.01 13.2632 20.7501 13.7577C21.4901 14.2521 22.0669 14.9549 22.4075 15.7772C22.7481 16.5995 22.8372 17.5043 22.6635 18.3772C22.4899 19.2501 22.0613 20.0519 21.432 20.6812C20.8026 21.3106 20.0008 21.7392 19.1279 21.9128C18.255 22.0864 17.3502 21.9973 16.5279 21.6567C15.7057 21.3161 15.0029 20.7394 14.5084 19.9993C14.0139 19.2593 13.75 18.3893 13.75 17.4993V14.4993Z" fill="#64748B"/>
</svg>
