<svg width="25" height="24" viewBox="0 0 25 24" fill="none" xmlns="http://www.w3.org/2000/svg">
<path opacity="0.5" fill-rule="evenodd" clip-rule="evenodd" d="M15.029 2.152C14.659 2 14.189 2 13.25 2C12.311 2 11.842 2 11.471 2.152C10.9785 2.35421 10.5864 2.74377 10.381 3.235C10.287 3.458 10.251 3.719 10.236 4.098C10.2293 4.3726 10.1527 4.64097 10.0134 4.87772C9.87416 5.11447 9.67679 5.31178 9.44 5.451C9.19874 5.5851 8.92754 5.65615 8.65153 5.65754C8.37551 5.65894 8.1036 5.59065 7.861 5.459C7.523 5.281 7.278 5.183 7.036 5.151C6.50655 5.08148 5.97107 5.2238 5.546 5.547C5.228 5.789 4.993 6.193 4.524 7C4.054 7.807 3.82 8.21 3.767 8.605C3.697 9.131 3.841 9.663 4.167 10.084C4.315 10.276 4.524 10.437 4.847 10.639C5.324 10.936 5.63 11.442 5.63 12C5.63 12.558 5.324 13.064 4.848 13.36C4.524 13.563 4.315 13.724 4.166 13.916C4.00508 14.1239 3.88697 14.3617 3.81848 14.6156C3.75 14.8694 3.7325 15.1343 3.767 15.395C3.82 15.789 4.054 16.193 4.524 17C4.994 17.807 5.228 18.21 5.546 18.453C5.97 18.776 6.506 18.918 7.036 18.849C7.278 18.817 7.523 18.719 7.861 18.541C8.10372 18.4092 8.37581 18.3408 8.65203 18.3422C8.92824 18.3436 9.19962 18.4147 9.441 18.549C9.927 18.829 10.215 19.344 10.236 19.902C10.251 20.282 10.287 20.542 10.381 20.765C10.585 21.255 10.977 21.645 11.471 21.848C11.841 22 12.311 22 13.25 22C14.189 22 14.659 22 15.029 21.848C15.5215 21.6458 15.9136 21.2562 16.119 20.765C16.213 20.542 16.249 20.282 16.264 19.902C16.284 19.344 16.573 18.828 17.06 18.549C17.3013 18.4149 17.5725 18.3439 17.8485 18.3425C18.1245 18.3411 18.3964 18.4093 18.639 18.541C18.977 18.719 19.222 18.817 19.464 18.849C19.994 18.919 20.53 18.776 20.954 18.453C21.272 18.211 21.507 17.807 21.976 17C22.446 16.193 22.68 15.79 22.733 15.395C22.7674 15.1343 22.7497 14.8693 22.681 14.6155C22.6124 14.3616 22.4941 14.1239 22.333 13.916C22.185 13.724 21.976 13.563 21.653 13.361C21.176 13.064 20.87 12.558 20.87 12C20.87 11.442 21.176 10.936 21.652 10.64C21.976 10.437 22.185 10.276 22.334 10.084C22.4949 9.87606 22.613 9.63829 22.6815 9.38443C22.75 9.13057 22.7675 8.86566 22.733 8.605C22.68 8.211 22.446 7.807 21.976 7C21.506 6.193 21.272 5.79 20.954 5.547C20.5289 5.2238 19.9934 5.08148 19.464 5.151C19.222 5.183 18.977 5.281 18.639 5.459C18.3963 5.59083 18.1242 5.65922 17.848 5.65782C17.5718 5.65642 17.3004 5.58528 17.059 5.451C16.8224 5.31166 16.6252 5.11429 16.4861 4.87755C16.347 4.64081 16.2706 4.37251 16.264 4.098C16.249 3.718 16.213 3.458 16.119 3.235C16.0174 2.99174 15.8688 2.77088 15.6817 2.58506C15.4947 2.39923 15.2729 2.25208 15.029 2.152Z" fill="#64748B"/>
<path d="M16.273 12C16.273 13.657 14.919 15 13.25 15C11.58 15 10.227 13.657 10.227 12C10.227 10.343 11.58 9 13.25 9C14.92 9 16.273 10.343 16.273 12Z" fill="#64748B"/>
</svg>
