<svg width="25" height="24" viewBox="0 0 25 24" fill="none" xmlns="http://www.w3.org/2000/svg">
<path opacity="0.5" d="M14.379 20.4713L13.837 21.3873C13.354 22.2033 12.147 22.2033 11.663 21.3873L11.121 20.4713C10.701 19.7613 10.491 19.4053 10.153 19.2093C9.815 19.0123 9.39 19.0053 8.54 18.9903C7.284 18.9693 6.497 18.8923 5.837 18.6183C5.23037 18.367 4.67917 17.9987 4.21487 17.5344C3.75057 17.0701 3.38227 16.5189 3.131 15.9123C2.75 14.9943 2.75 13.8293 2.75 11.4993V10.4993C2.75 7.22627 2.75 5.58927 3.487 4.38727C3.89904 3.71446 4.46445 3.14872 5.137 2.73627C6.34 1.99927 7.978 1.99927 11.25 1.99927H14.25C17.523 1.99927 19.16 1.99927 20.363 2.73627C21.0354 3.14843 21.6008 3.71383 22.013 4.38627C22.75 5.58927 22.75 7.22727 22.75 10.4993V11.4993C22.75 13.8293 22.75 14.9943 22.37 15.9123C22.1186 16.519 21.7502 17.0702 21.2857 17.5346C20.8212 17.9989 20.2698 18.3671 19.663 18.6183C19.003 18.8923 18.216 18.9683 16.96 18.9903C16.11 19.0053 15.685 19.0123 15.347 19.2093C15.009 19.4053 14.799 19.7603 14.379 20.4713Z" fill="#64748B"/>
<path d="M17.75 10.9993C17.75 11.2645 17.6446 11.5188 17.4571 11.7064C17.2696 11.8939 17.0152 11.9993 16.75 11.9993C16.4848 11.9993 16.2304 11.8939 16.0429 11.7064C15.8554 11.5188 15.75 11.2645 15.75 10.9993C15.75 10.7341 15.8554 10.4797 16.0429 10.2922C16.2304 10.1046 16.4848 9.99927 16.75 9.99927C17.0152 9.99927 17.2696 10.1046 17.4571 10.2922C17.6446 10.4797 17.75 10.7341 17.75 10.9993ZM13.75 10.9993C13.75 11.2645 13.6446 11.5188 13.4571 11.7064C13.2696 11.8939 13.0152 11.9993 12.75 11.9993C12.4848 11.9993 12.2304 11.8939 12.0429 11.7064C11.8554 11.5188 11.75 11.2645 11.75 10.9993C11.75 10.7341 11.8554 10.4797 12.0429 10.2922C12.2304 10.1046 12.4848 9.99927 12.75 9.99927C13.0152 9.99927 13.2696 10.1046 13.4571 10.2922C13.6446 10.4797 13.75 10.7341 13.75 10.9993ZM9.75 10.9993C9.75 11.2645 9.64464 11.5188 9.45711 11.7064C9.26957 11.8939 9.01522 11.9993 8.75 11.9993C8.48478 11.9993 8.23043 11.8939 8.04289 11.7064C7.85536 11.5188 7.75 11.2645 7.75 10.9993C7.75 10.7341 7.85536 10.4797 8.04289 10.2922C8.23043 10.1046 8.48478 9.99927 8.75 9.99927C9.01522 9.99927 9.26957 10.1046 9.45711 10.2922C9.64464 10.4797 9.75 10.7341 9.75 10.9993Z" fill="#64748B"/>
</svg>
