<svg width="25" height="24" viewBox="0 0 25 24" fill="none" xmlns="http://www.w3.org/2000/svg">
<path opacity="0.5" fill-rule="evenodd" clip-rule="evenodd" d="M12.75 22C18.273 22 22.75 17.523 22.75 12C22.75 6.477 18.273 2 12.75 2C7.227 2 2.75 6.477 2.75 12C2.75 17.523 7.227 22 12.75 22ZM12.75 16C13.8109 16 14.8283 15.5786 15.5784 14.8284C16.3286 14.0783 16.75 13.0609 16.75 12C16.75 10.9391 16.3286 9.92172 15.5784 9.17157C14.8283 8.42143 13.8109 8 12.75 8C11.6891 8 10.6717 8.42143 9.92157 9.17157C9.17143 9.92172 8.75 10.9391 8.75 12C8.75 13.0609 9.17143 14.0783 9.92157 14.8284C10.6717 15.5786 11.6891 16 12.75 16Z" fill="#64748B"/>
<path d="M6.229 19.582L10.501 15.309C10.0843 15.0252 9.72476 14.6656 9.441 14.249L5.168 18.52C5.495 18.9 5.849 19.254 6.228 19.58M5.168 5.47999L9.441 9.75199C9.72478 9.33535 10.0844 8.97578 10.501 8.69199L6.23 4.41699C5.85 4.74399 5.496 5.09899 5.169 5.47799M14.998 8.69099L19.27 4.41999C19.649 4.74599 20.004 5.09999 20.33 5.47999L16.06 9.75199C15.7759 9.33525 15.416 8.97566 14.999 8.69199M20.331 18.521L16.058 14.248C15.7743 14.6647 15.4147 15.0242 14.998 15.308L19.27 19.582C19.65 19.255 20.005 18.9 20.331 18.521Z" fill="#64748B"/>
</svg>
