<svg width="25" height="24" viewBox="0 0 25 24" fill="none" xmlns="http://www.w3.org/2000/svg">
<path opacity="0.5" d="M21.75 15.998V9.998C21.75 7.17 21.75 5.756 20.871 4.877C20.103 4.109 18.925 4.012 16.75 4H8.75C6.575 4.012 5.397 4.109 4.629 4.877C3.75 5.756 3.75 7.17 3.75 9.998V15.998C3.75 18.827 3.75 20.241 4.629 21.12C5.507 21.998 6.922 21.998 9.75 21.998H15.75C18.578 21.998 19.993 21.998 20.871 21.12C21.75 20.24 21.75 18.827 21.75 15.998Z" fill="#64748B"/>
<path d="M8.75 3.5C8.75 3.10218 8.90804 2.72064 9.18934 2.43934C9.47064 2.15804 9.85218 2 10.25 2H15.25C15.6478 2 16.0294 2.15804 16.3107 2.43934C16.592 2.72064 16.75 3.10218 16.75 3.5V4.5C16.75 4.89782 16.592 5.27936 16.3107 5.56066C16.0294 5.84196 15.6478 6 15.25 6H10.25C9.85218 6 9.47064 5.84196 9.18934 5.56066C8.90804 5.27936 8.75 4.89782 8.75 4.5V3.5Z" fill="#64748B"/>
<path fill-rule="evenodd" clip-rule="evenodd" d="M7 10.5C7 10.3011 7.07902 10.1103 7.21967 9.96967C7.36032 9.82902 7.55109 9.75 7.75 9.75H17.75C17.9489 9.75 18.1397 9.82902 18.2803 9.96967C18.421 10.1103 18.5 10.3011 18.5 10.5C18.5 10.6989 18.421 10.8897 18.2803 11.0303C18.1397 11.171 17.9489 11.25 17.75 11.25H7.75C7.55109 11.25 7.36032 11.171 7.21967 11.0303C7.07902 10.8897 7 10.6989 7 10.5ZM8 14C8 13.8011 8.07902 13.6103 8.21967 13.4697C8.36032 13.329 8.55109 13.25 8.75 13.25H16.75C16.9489 13.25 17.1397 13.329 17.2803 13.4697C17.421 13.6103 17.5 13.8011 17.5 14C17.5 14.1989 17.421 14.3897 17.2803 14.5303C17.1397 14.671 16.9489 14.75 16.75 14.75H8.75C8.55109 14.75 8.36032 14.671 8.21967 14.5303C8.07902 14.3897 8 14.1989 8 14ZM9 17.5C9 17.3011 9.07902 17.1103 9.21967 16.9697C9.36032 16.829 9.55109 16.75 9.75 16.75H15.75C15.9489 16.75 16.1397 16.829 16.2803 16.9697C16.421 17.1103 16.5 17.3011 16.5 17.5C16.5 17.6989 16.421 17.8897 16.2803 18.0303C16.1397 18.171 15.9489 18.25 15.75 18.25H9.75C9.55109 18.25 9.36032 18.171 9.21967 18.0303C9.07902 17.8897 9 17.6989 9 17.5Z" fill="#64748B"/>
</svg>
