<svg width="25" height="24" viewBox="0 0 25 24" fill="none" xmlns="http://www.w3.org/2000/svg">
<path opacity="0.5" d="M22.75 12C22.75 17.523 18.273 22 12.75 22C7.227 22 2.75 17.523 2.75 12C2.75 6.477 7.227 2 12.75 2C18.273 2 22.75 6.477 22.75 12Z" fill="#64748B"/>
<path d="M16.78 8.97007C16.9205 9.1107 16.9993 9.30132 16.9993 9.50007C16.9993 9.69882 16.9205 9.88945 16.78 10.0301L11.78 15.0301C11.6394 15.1705 11.4488 15.2494 11.25 15.2494C11.0513 15.2494 10.8606 15.1705 10.72 15.0301L8.72 13.0301C8.64631 12.9614 8.58721 12.8786 8.54622 12.7866C8.50523 12.6946 8.48319 12.5953 8.48141 12.4946C8.47963 12.3939 8.49816 12.2939 8.53588 12.2005C8.5736 12.1071 8.62974 12.0223 8.70096 11.951C8.77218 11.8798 8.85701 11.8237 8.9504 11.7859C9.04379 11.7482 9.14382 11.7297 9.24452 11.7315C9.34523 11.7333 9.44454 11.7553 9.53654 11.7963C9.62854 11.8373 9.71134 11.8964 9.78 11.9701L11.25 13.4401L13.485 11.2051L15.72 8.97007C15.8606 8.82962 16.0513 8.75073 16.25 8.75073C16.4488 8.75073 16.6394 8.82962 16.78 8.97007Z" fill="#64748B"/>
</svg>
