<svg width="25" height="24" viewBox="0 0 25 24" fill="none" xmlns="http://www.w3.org/2000/svg">
<path d="M16.25 7.49927C16.25 7.95889 16.1595 8.41402 15.9836 8.83866C15.8077 9.2633 15.5499 9.64914 15.2249 9.97414C14.8999 10.2991 14.514 10.557 14.0894 10.7328C13.6648 10.9087 13.2096 10.9993 12.75 10.9993C12.2904 10.9993 11.8352 10.9087 11.4106 10.7328C10.986 10.557 10.6001 10.2991 10.2751 9.97414C9.95012 9.64914 9.69231 9.2633 9.51642 8.83866C9.34053 8.41402 9.25 7.95889 9.25 7.49927C9.25 6.57101 9.61875 5.68077 10.2751 5.02439C10.9315 4.36802 11.8217 3.99927 12.75 3.99927C13.6783 3.99927 14.5685 4.36802 15.2249 5.02439C15.8813 5.68077 16.25 6.57101 16.25 7.49927Z" fill="#64748B"/>
<path opacity="0.4" d="M20.25 7.49927C20.25 8.16231 19.9866 8.79819 19.5178 9.26703C19.0489 9.73588 18.413 9.99927 17.75 9.99927C17.087 9.99927 16.4511 9.73588 15.9822 9.26703C15.5134 8.79819 15.25 8.16231 15.25 7.49927C15.25 6.83623 15.5134 6.20034 15.9822 5.7315C16.4511 5.26266 17.087 4.99927 17.75 4.99927C18.413 4.99927 19.0489 5.26266 19.5178 5.7315C19.9866 6.20034 20.25 6.83623 20.25 7.49927ZM5.25 7.49927C5.25 8.16231 5.51339 8.79819 5.98223 9.26703C6.45107 9.73588 7.08696 9.99927 7.75 9.99927C8.41304 9.99927 9.04893 9.73588 9.51777 9.26703C9.98661 8.79819 10.25 8.16231 10.25 7.49927C10.25 6.83623 9.98661 6.20034 9.51777 5.7315C9.04893 5.26266 8.41304 4.99927 7.75 4.99927C7.08696 4.99927 6.45107 5.26266 5.98223 5.7315C5.51339 6.20034 5.25 6.83623 5.25 7.49927Z" fill="#64748B"/>
<path d="M18.75 16.4993C18.75 18.4323 16.064 19.9993 12.75 19.9993C9.436 19.9993 6.75 18.4323 6.75 16.4993C6.75 14.5663 9.436 12.9993 12.75 12.9993C16.064 12.9993 18.75 14.5663 18.75 16.4993Z" fill="#64748B"/>
<path opacity="0.4" d="M22.75 16.4993C22.75 17.8793 20.96 18.9993 18.75 18.9993C16.54 18.9993 14.75 17.8793 14.75 16.4993C14.75 15.1193 16.54 13.9993 18.75 13.9993C20.96 13.9993 22.75 15.1193 22.75 16.4993ZM2.75 16.4993C2.75 17.8793 4.54 18.9993 6.75 18.9993C8.96 18.9993 10.75 17.8793 10.75 16.4993C10.75 15.1193 8.96 13.9993 6.75 13.9993C4.54 13.9993 2.75 15.1193 2.75 16.4993Z" fill="#64748B"/>
</svg>
