<svg width="25" height="24" viewBox="0 0 25 24" fill="none" xmlns="http://www.w3.org/2000/svg">
<path opacity="0.4" d="M15.75 9C17.4069 9 18.75 7.65685 18.75 6C18.75 4.34315 17.4069 3 15.75 3C14.0931 3 12.75 4.34315 12.75 6C12.75 7.65685 14.0931 9 15.75 9Z" fill="#64748B"/>
<path opacity="0.4" d="M16.75 20C19.5114 20 21.75 18.6569 21.75 17C21.75 15.3431 19.5114 14 16.75 14C13.9886 14 11.75 15.3431 11.75 17C11.75 18.6569 13.9886 20 16.75 20Z" fill="#64748B"/>
<path d="M9.75101 10C11.9601 10 13.751 8.20914 13.751 6C13.751 3.79086 11.9601 2 9.75101 2C7.54187 2 5.75101 3.79086 5.75101 6C5.75101 8.20914 7.54187 10 9.75101 10Z" fill="#64748B"/>
<path d="M9.75101 21.001C13.617 21.001 16.751 19.2101 16.751 17.001C16.751 14.7918 13.617 13.001 9.75101 13.001C5.88501 13.001 2.75101 14.7918 2.75101 17.001C2.75101 19.2101 5.88501 21.001 9.75101 21.001Z" fill="#64748B"/>
</svg>
