<svg width="123" height="40" viewBox="0 0 123 40" fill="none" xmlns="http://www.w3.org/2000/svg">
<g clip-path="url(#clip0_444_28908)">
<path d="M45.9781 27.9248L43.1912 24.0023C43.5562 23.9036 43.8894 23.7613 44.1878 23.5813C44.4891 23.3984 44.7411 23.1778 44.9642 22.9135C45.1785 22.6522 45.3437 22.3503 45.4711 22.0106C45.5986 21.6709 45.6536 21.2818 45.6536 20.8492C45.6536 20.344 45.5667 19.8882 45.3929 19.4788C45.2104 19.0695 44.9584 18.724 44.6339 18.4423C44.3008 18.1607 43.8981 17.9429 43.423 17.792C42.9392 17.6381 42.409 17.5626 41.8152 17.5626H37.209V27.9248H39.0138V24.313H41.2937L43.843 27.9248H45.981H45.9781ZM43.8083 20.945C43.8083 21.4793 43.6171 21.9061 43.2318 22.2225C42.8436 22.5419 42.3279 22.6987 41.6732 22.6987H39.0138V19.2059H41.6645C42.3453 19.2059 42.8755 19.3511 43.2463 19.6443C43.6171 19.9347 43.8083 20.3702 43.8083 20.945ZM60.0371 17.5626H52.3891V27.9248H60.1153V26.2815H54.1939V23.5116H59.3795V21.8683H54.1939V19.203H60.0371V17.5597V17.5626ZM74.4669 17.5626H66.787V27.9248H68.5918V23.7062H73.8006V22.0628H68.5918V19.2059H74.464V17.5626H74.4669ZM89.6644 17.5626H87.8596V23.5291C87.8596 24.4872 87.6307 25.2072 87.1643 25.6892C86.6979 26.1711 86.0635 26.415 85.2494 26.415C84.4354 26.415 83.7835 26.1624 83.3171 25.6601C82.8594 25.155 82.6219 24.4204 82.6219 23.4536V17.5626H80.817V23.5291C80.817 24.2781 80.9184 24.9372 81.1328 25.5034C81.3385 26.0724 81.6311 26.5486 82.0193 26.9318C82.3988 27.318 82.8652 27.6054 83.404 27.797C83.9429 27.9887 84.5512 28.0845 85.2175 28.0845C85.8838 28.0845 86.5154 27.9887 87.0629 27.797C87.6104 27.6054 88.0768 27.3122 88.4563 26.9231C88.8445 26.5341 89.1371 26.0463 89.3515 25.4656C89.5659 24.882 89.6673 24.2085 89.6673 23.4391V17.5626H89.6644ZM103.874 24.7282L98.3495 17.5626H96.6635V27.9248H98.4683V20.5531L104.161 27.9248H105.682V17.5626H103.877V24.7282H103.874ZM122.183 22.7306C122.183 22.0019 122.055 21.3196 121.786 20.6866C121.517 20.0566 121.146 19.5079 120.653 19.0433C120.169 18.5788 119.584 18.2159 118.912 17.9546C118.24 17.6932 117.496 17.5626 116.687 17.5626H112.831V27.9248H116.687C117.496 27.9248 118.24 27.7912 118.912 27.5241C119.584 27.257 120.169 26.8912 120.653 26.4295C121.143 25.965 121.517 25.4163 121.786 24.7775C122.055 24.1417 122.183 23.4594 122.183 22.7277V22.7306ZM120.282 22.7597C120.282 23.2765 120.196 23.7497 120.022 24.1794C119.848 24.612 119.61 24.9837 119.295 25.2943C118.985 25.6079 118.605 25.8489 118.162 26.026C117.719 26.2002 117.229 26.2844 116.682 26.2844H114.639V19.2088H116.682C117.229 19.2088 117.719 19.2988 118.162 19.4759C118.605 19.6559 118.985 19.9027 119.295 20.2221C119.61 20.5386 119.848 20.9131 120.022 21.3457C120.196 21.7754 120.282 22.2487 120.282 22.7655V22.7597Z" fill="white"/>
<path d="M46.0473 12.3627L44.8769 11.1752C44.4337 11.5904 43.9817 11.9185 43.5298 12.1623C43.0721 12.4062 42.5332 12.5253 41.8988 12.5253C41.4092 12.5253 40.9486 12.4295 40.5285 12.2349C40.1085 12.0433 39.7464 11.7762 39.4364 11.4394C39.1351 11.1026 38.8976 10.7106 38.7324 10.2606C38.5586 9.8106 38.4804 9.32864 38.4804 8.81474C38.4804 8.30084 38.5586 7.81887 38.7324 7.37465C38.8976 6.93044 39.1351 6.54138 39.4364 6.21039C39.7464 5.87941 40.1085 5.6152 40.5285 5.42358C40.9486 5.23195 41.4063 5.13324 41.8988 5.13324C42.4927 5.13324 43.0228 5.25228 43.4835 5.49035C43.9499 5.72843 44.3844 6.03909 44.8045 6.42525L45.9691 5.07517C45.7228 4.83709 45.4621 4.61934 45.184 4.42191C44.9059 4.22448 44.6075 4.05318 44.283 3.91091C43.9586 3.76864 43.6022 3.65541 43.214 3.57702C42.8171 3.49863 42.3913 3.45798 41.9162 3.45798C41.1253 3.45798 40.404 3.60025 39.7551 3.88188C39.0974 4.16351 38.5354 4.54966 38.0603 5.04033C37.5939 5.531 37.2202 6.10007 36.9595 6.75623C36.6988 7.4095 36.5713 8.10631 36.5713 8.84667C36.5713 9.58704 36.6988 10.3013 36.9682 10.9545C37.2376 11.6078 37.6026 12.174 38.069 12.653C38.5441 13.135 39.0974 13.5124 39.7406 13.7882C40.3808 14.0641 41.079 14.2034 41.8467 14.2034C42.3305 14.2034 42.765 14.1628 43.1677 14.0786C43.5646 13.9944 43.9354 13.8695 44.2685 13.7069C44.6075 13.5444 44.9174 13.3498 45.21 13.1292C45.5026 12.9056 45.7807 12.653 46.0502 12.3656L46.0473 12.3627ZM60.0425 8.81474C60.0425 8.08308 59.9093 7.38917 59.6398 6.73591C59.3791 6.08265 59.0054 5.51358 58.5303 5.02872C58.0552 4.54385 57.4845 4.1606 56.8269 3.87897C56.1606 3.59734 55.4334 3.45508 54.6339 3.45508C53.8343 3.45508 53.1072 3.59734 52.4409 3.88478C51.7833 4.17222 51.2068 4.56127 50.723 5.04904C50.2392 5.53971 49.8684 6.11168 49.599 6.76204C49.3295 7.4153 49.1963 8.10631 49.1963 8.84087C49.1963 9.57542 49.3295 10.2664 49.599 10.9197C49.8684 11.573 50.2334 12.1391 50.7085 12.6269C51.1836 13.1118 51.7543 13.495 52.4119 13.7766C53.0782 14.0583 53.8053 14.2005 54.6049 14.2005C55.4045 14.2005 56.1403 14.0554 56.7979 13.7708C57.4642 13.4834 58.032 13.0943 58.5158 12.6066C58.9996 12.1159 59.3791 11.5439 59.6398 10.8907C59.9093 10.2374 60.0425 9.54639 60.0425 8.81183V8.81474ZM58.1334 8.84377C58.1334 9.34896 58.0465 9.82511 57.8727 10.2751C57.6989 10.7252 57.4613 11.1171 57.1513 11.4481C56.8414 11.7791 56.4793 12.0433 56.0505 12.2349C55.616 12.4266 55.1466 12.5253 54.6339 12.5253C54.1211 12.5253 53.6431 12.4266 53.2086 12.2291C52.7798 12.0317 52.409 11.7646 52.0932 11.4278C51.7833 11.091 51.5399 10.699 51.3719 10.249C51.1981 9.79898 51.1112 9.32283 51.1112 8.81764C51.1112 8.31245 51.1981 7.83629 51.3719 7.38627C51.537 6.93624 51.7833 6.54428 52.0846 6.2133C52.3916 5.88231 52.7566 5.6181 53.1941 5.42648C53.6228 5.23486 54.0893 5.13614 54.602 5.13614C55.1148 5.13614 55.5928 5.23486 56.0273 5.43229C56.4619 5.62972 56.8356 5.89683 57.1427 6.23362C57.4526 6.57042 57.696 6.96237 57.8698 7.4124C58.0436 7.86242 58.1305 8.33858 58.1305 8.84377H58.1334ZM73.047 14.0234L70.2456 10.0922C70.6107 9.99351 70.9409 9.85415 71.2422 9.66833C71.5435 9.48542 71.8042 9.26186 72.0186 9.00055C72.2416 8.73925 72.4068 8.43729 72.5342 8.09469C72.6617 7.755 72.7168 7.36594 72.7168 6.93044C72.7168 6.42525 72.6298 5.96941 72.456 5.55713C72.2735 5.14485 72.0215 4.79935 71.6883 4.51772C71.3639 4.23609 70.9525 4.01834 70.4774 3.86446C70.0023 3.71058 69.4635 3.63509 68.8696 3.63509H64.246V14.0263H66.0595V10.4058H68.3481L70.8975 14.0263H73.0499L73.047 14.0234ZM70.8714 7.02625C70.8714 7.56337 70.6744 7.99017 70.2862 8.30664C69.9067 8.62602 69.3852 8.7857 68.7276 8.7857H66.0595V5.28421H68.7102C69.3997 5.28421 69.9299 5.42938 70.3007 5.72553C70.6802 6.01877 70.8714 6.45138 70.8714 7.02915V7.02625ZM85.7531 14.0234L82.9517 10.0922C83.3168 9.99351 83.6557 9.85415 83.957 9.66833C84.2583 9.48542 84.5103 9.26186 84.7334 9.00055C84.9477 8.73925 85.1216 8.43729 85.2403 8.09469C85.3678 7.755 85.4315 7.36594 85.4315 6.93044C85.4315 6.42525 85.3359 5.96941 85.1621 5.55713C84.9883 5.14485 84.7276 4.79935 84.4031 4.51772C84.07 4.23609 83.6673 4.01834 83.1835 3.86446C82.7084 3.71058 82.1696 3.63509 81.5757 3.63509H76.9608V14.0263H78.7656V10.4058H81.0542L83.6122 14.0263H85.756L85.7531 14.0234ZM83.5775 7.02625C83.5775 7.56337 83.3863 7.99017 82.9981 8.30664C82.6099 8.62602 82.0884 8.7857 81.4395 8.7857H78.7627V5.28421H81.4221C82.1029 5.28421 82.6331 5.42938 83.0068 5.72553C83.3863 6.01877 83.5775 6.45138 83.5775 7.02915V7.02625ZM97.3352 3.63509H89.664V14.0263H97.4047V12.3801H91.4688V9.60446H96.6689V7.95824H91.4688V5.28712H97.3352V3.63799V3.63509ZM110.603 12.3627L109.439 11.1752C108.987 11.5904 108.544 11.9185 108.086 12.1623C107.634 12.4062 107.089 12.5253 106.464 12.5253C105.965 12.5253 105.505 12.4295 105.085 12.2349C104.673 12.0433 104.308 11.7762 104.001 11.4394C103.691 11.1026 103.454 10.7106 103.288 10.2606C103.123 9.8106 103.036 9.32864 103.036 8.81474C103.036 8.30084 103.123 7.81887 103.288 7.37465C103.454 6.93044 103.691 6.54138 104.001 6.21039C104.311 5.87941 104.673 5.6152 105.085 5.42358C105.505 5.23195 105.962 5.13324 106.464 5.13324C107.049 5.13324 107.579 5.25228 108.045 5.49035C108.503 5.72843 108.949 6.03909 109.36 6.42525L110.531 5.07517C110.285 4.83709 110.024 4.61934 109.749 4.42191C109.471 4.22448 109.172 4.05318 108.845 3.91091C108.52 3.76864 108.155 3.65541 107.767 3.57702C107.379 3.49863 106.944 3.45798 106.469 3.45798C105.684 3.45798 104.966 3.60025 104.308 3.88188C103.659 4.16351 103.097 4.54966 102.622 5.04033C102.147 5.531 101.782 6.10007 101.521 6.75623C101.261 7.4095 101.124 8.10631 101.124 8.84667C101.124 9.58704 101.258 10.3013 101.527 10.9545C101.788 11.6078 102.162 12.174 102.628 12.653C103.094 13.135 103.651 13.5124 104.291 13.7882C104.931 14.0641 105.638 14.2034 106.397 14.2034C106.881 14.2034 107.324 14.1628 107.718 14.0786C108.121 13.9944 108.486 13.8695 108.827 13.7069C109.161 13.5444 109.476 13.3498 109.769 13.1292C110.053 12.9056 110.34 12.653 110.6 12.3656L110.603 12.3627ZM118.9 5.32776H122.185V3.63509H113.778V5.32776H117.064V14.0263H118.9V5.32776Z" fill="white"/>
<path d="M4.16302 39.2073L3.83856 38.8851C3.62418 39.0883 3.40981 39.2451 3.18964 39.3583C2.97526 39.4687 2.71453 39.5267 2.41325 39.5267C2.16701 39.5267 1.93815 39.4803 1.73246 39.3845C1.51809 39.2886 1.34427 39.1609 1.18494 38.9954C1.03429 38.8299 0.915517 38.6354 0.828608 38.4118C0.741699 38.1883 0.695348 37.9473 0.695348 37.6889C0.695348 37.4305 0.741699 37.1924 0.828608 36.9688C0.915517 36.7482 1.03429 36.5536 1.18494 36.3882C1.34427 36.2227 1.51809 36.0949 1.73246 36.002C1.93815 35.9091 2.16701 35.8626 2.41325 35.8626C2.71453 35.8626 2.97526 35.9178 3.18964 36.0339C3.40401 36.1472 3.6097 36.2923 3.798 36.4724L4.13695 36.1065C4.02686 36.002 3.91388 35.9033 3.798 35.8191C3.67922 35.732 3.55176 35.6594 3.40981 35.5984C3.27655 35.5375 3.1259 35.491 2.95788 35.4562C2.79855 35.4213 2.61893 35.4039 2.41035 35.4039C2.08589 35.4039 1.7933 35.4649 1.51519 35.5839C1.23708 35.703 1.00822 35.8684 0.811226 36.0775C0.614233 36.2865 0.454899 36.5304 0.344815 36.8091C0.23473 37.0879 0.179688 37.384 0.179688 37.7005C0.179688 38.017 0.23473 38.3218 0.344815 38.6005C0.454899 38.8793 0.614233 39.1202 0.811226 39.3264C1.00822 39.5296 1.23998 39.6922 1.5065 39.8113C1.77592 39.9303 2.0772 39.9884 2.39297 39.9884C2.58996 39.9884 2.78116 39.968 2.9405 39.9303C3.10563 39.8925 3.26496 39.8403 3.40691 39.7706C3.54886 39.7038 3.68502 39.6225 3.80379 39.5267C3.93126 39.4309 4.05004 39.3235 4.16012 39.2073H4.16302ZM13.2827 36.8904C13.2827 36.6698 13.2421 36.4724 13.1639 36.2981C13.0915 36.1239 12.9727 35.9759 12.8307 35.8568C12.6888 35.7349 12.515 35.642 12.3093 35.5781C12.1036 35.5142 11.8747 35.4794 11.6285 35.4794H9.97433V39.91H10.4726V38.345H11.5503C11.7791 38.345 12.008 38.3131 12.2166 38.2521C12.431 38.1912 12.6135 38.0983 12.7699 37.9763C12.9292 37.8544 13.0538 37.7034 13.1494 37.5205C13.2363 37.3405 13.2827 37.1285 13.2827 36.8875V36.8904ZM12.7844 36.9079C12.7844 37.0559 12.7525 37.1895 12.6975 37.3114C12.6424 37.4305 12.5642 37.535 12.4512 37.6221C12.3412 37.7092 12.2137 37.776 12.063 37.8224C11.9124 37.8689 11.7473 37.8921 11.5648 37.8921H10.4726V35.941H11.5966C11.953 35.941 12.2369 36.0223 12.4599 36.1849C12.6743 36.3475 12.7844 36.5885 12.7844 36.9079ZM20.7887 35.4446H20.3223L18.3118 39.9071H18.8188L19.3489 38.737H21.7563L22.272 39.9071H22.8108L20.7916 35.4446H20.7887ZM21.5564 38.2928H19.5372L20.5512 36.031L21.5564 38.2928ZM28.9089 36.5798C28.9089 36.4782 28.9321 36.3823 28.9727 36.2952C29.019 36.2081 29.0827 36.1298 29.1639 36.0659C29.2508 36.002 29.3464 35.9526 29.4651 35.9149C29.5752 35.8772 29.7114 35.8568 29.8533 35.8568C30.0822 35.8568 30.2966 35.8946 30.5023 35.9701C30.7166 36.0456 30.9223 36.1675 31.128 36.3388L31.4206 35.9526C31.1917 35.7726 30.9542 35.6391 30.7166 35.5491C30.4704 35.4591 30.1865 35.4155 29.862 35.4155C29.6563 35.4155 29.4593 35.4475 29.2826 35.5055C29.1088 35.5665 28.9495 35.6507 28.8249 35.761C28.6916 35.8684 28.596 35.9962 28.5149 36.1443C28.4425 36.2923 28.4135 36.4549 28.4135 36.632C28.4135 36.8091 28.4454 36.9775 28.5004 37.114C28.5642 37.2505 28.6511 37.3695 28.7699 37.4711C28.8973 37.5727 29.048 37.6598 29.2363 37.7295C29.4275 37.8021 29.6476 37.866 29.9026 37.9211C30.1314 37.9734 30.3226 38.0257 30.4733 38.0808C30.6239 38.136 30.7427 38.197 30.8296 38.2637C30.9078 38.3305 30.9716 38.406 31.0034 38.4873C31.0353 38.5715 31.0498 38.6644 31.0498 38.7689C31.0498 38.9983 30.9629 39.1812 30.7891 39.3206C30.6065 39.4599 30.369 39.5296 30.0677 39.5296C29.7664 39.5296 29.4912 39.4774 29.2537 39.3728C29.0161 39.2683 28.7872 39.1115 28.5497 38.9025L28.2397 39.2683C28.5091 39.5064 28.7872 39.6864 29.0798 39.7996C29.3724 39.9158 29.6969 39.9709 30.0532 39.9709C30.2676 39.9709 30.4733 39.9419 30.6558 39.8809C30.847 39.8229 31.0034 39.7387 31.1309 39.6283C31.2642 39.518 31.3684 39.3845 31.4409 39.2306C31.5191 39.0738 31.5596 38.8996 31.5596 38.7109C31.5596 38.3683 31.4409 38.1012 31.2033 37.9066C30.9745 37.7121 30.6094 37.5611 30.1199 37.4508C29.8736 37.3985 29.6679 37.3463 29.5173 37.2911C29.3579 37.233 29.2392 37.1692 29.1465 37.0995C29.0596 37.0298 29.0045 36.9543 28.964 36.8672C28.9321 36.783 28.9176 36.6872 28.9176 36.5827L28.9089 36.5798ZM44.8596 39.7067L44.0919 38.9141C44.2107 38.7544 44.3208 38.5802 44.4251 38.3944C44.5265 38.2086 44.6308 38.0111 44.7264 37.7992L44.315 37.6105C44.2368 37.7963 44.1557 37.9705 44.0687 38.136C43.9731 38.3015 43.8862 38.4554 43.7848 38.5976L42.7796 37.5669C43.1041 37.4508 43.3561 37.3027 43.5386 37.1198C43.7298 36.9369 43.8167 36.6988 43.8167 36.4085C43.8167 36.2691 43.7935 36.1385 43.7385 36.0165C43.6835 35.8946 43.611 35.7872 43.5154 35.6971C43.4198 35.6071 43.3097 35.5346 43.1765 35.4823C43.049 35.43 42.8984 35.4039 42.7477 35.4039C42.5652 35.4039 42.4088 35.4329 42.2639 35.4852C42.122 35.5404 42.0032 35.6159 41.8989 35.7088C41.7975 35.8046 41.7164 35.9149 41.6614 36.0456C41.6063 36.1733 41.5745 36.3127 41.5745 36.4607C41.5745 36.6378 41.615 36.8033 41.6845 36.9514C41.757 37.1024 41.8671 37.265 42.0177 37.4421C41.6788 37.5756 41.4151 37.7498 41.2268 37.9618C41.0443 38.1737 40.9487 38.4292 40.9487 38.7283C40.9487 38.9141 40.9893 39.0854 41.0501 39.2364C41.1225 39.3903 41.2152 39.5209 41.3427 39.6312C41.4702 39.7416 41.6121 39.8258 41.7859 39.8838C41.9511 39.9448 42.1423 39.9738 42.3393 39.9738C42.6232 39.9738 42.8926 39.9129 43.1214 39.7938C43.359 39.6748 43.5792 39.5035 43.7791 39.2857L44.4743 40L44.8538 39.7096L44.8596 39.7067ZM43.3474 36.4346C43.3474 36.632 43.275 36.8004 43.133 36.934C42.9911 37.0705 42.7767 37.1837 42.4986 37.2824C42.4117 37.1924 42.3393 37.1111 42.2842 37.0385C42.2292 36.9659 42.1799 36.8962 42.151 36.8324C42.1191 36.7685 42.0872 36.7075 42.0785 36.6495C42.064 36.5914 42.0554 36.5275 42.0554 36.4607C42.0554 36.2749 42.1191 36.121 42.2379 35.9991C42.3566 35.8772 42.5218 35.8162 42.7217 35.8162C42.9042 35.8162 43.0548 35.8743 43.1736 35.9904C43.2924 36.1065 43.3474 36.2546 43.3474 36.4375V36.4346ZM43.4749 38.9722C43.3155 39.1493 43.1417 39.2886 42.9592 39.3932C42.7767 39.4977 42.5797 39.5499 42.374 39.5499C42.2408 39.5499 42.1133 39.5296 42.0032 39.4861C41.8844 39.4454 41.7888 39.3845 41.7019 39.309C41.6237 39.2335 41.56 39.1435 41.5194 39.0419C41.4731 38.9402 41.447 38.827 41.447 38.7051C41.447 38.5163 41.5194 38.3363 41.6527 38.165C41.7859 37.9966 42.0003 37.8573 42.2929 37.7469L43.472 38.9693L43.4749 38.9722ZM56.5199 35.4446H56.0535L54.0343 39.9071H54.55L55.0714 38.737H57.4788L57.9945 39.9071H58.5333L56.5228 35.4446H56.5199ZM57.2789 38.2928H55.2684L56.2737 36.031L57.2789 38.2928ZM68.2179 37.686C68.2179 37.3724 68.1628 37.0821 68.0527 36.812C67.9427 36.542 67.7746 36.3069 67.569 36.1094C67.3633 35.912 67.1112 35.7552 66.8244 35.6449C66.5318 35.5346 66.2161 35.4765 65.8742 35.4765H64.3388V39.9071H65.8742C66.2132 39.9071 66.5318 39.849 66.8244 39.7358C67.1083 39.6225 67.3633 39.4657 67.569 39.2683C67.7746 39.0709 67.9398 38.8357 68.0527 38.5628C68.1628 38.2899 68.2179 37.9966 68.2179 37.686ZM67.7022 37.6976C67.7022 37.9473 67.6617 38.1766 67.5747 38.3886C67.4878 38.6005 67.3604 38.7835 67.2039 38.9431C67.0446 39.1028 66.8563 39.2248 66.6274 39.3148C66.4044 39.4048 66.1523 39.4483 65.8742 39.4483H64.8371V35.941H65.8742C66.1523 35.941 66.4044 35.9875 66.6274 36.0775C66.8563 36.1675 67.0475 36.2923 67.2039 36.452C67.3633 36.6088 67.4878 36.7975 67.5747 37.0124C67.6617 37.2272 67.7022 37.4566 67.7022 37.7034V37.6976ZM75.6747 39.2944L74.1074 35.4765H73.5454L75.4545 39.939H75.8977L77.7982 35.4765H77.2593L75.6747 39.2944ZM83.6471 35.4765V39.9071H84.1454V35.4765H83.6471ZM90.765 36.5798C90.765 36.4782 90.7795 36.3823 90.8287 36.2952C90.8693 36.2081 90.9388 36.1298 91.0199 36.0659C91.0981 36.002 91.2024 35.9526 91.3125 35.9149C91.4313 35.8772 91.5587 35.8568 91.7007 35.8568C91.9296 35.8568 92.1526 35.8946 92.3583 35.9701C92.564 36.0456 92.7784 36.1675 92.9841 36.3388L93.268 35.9526C93.0449 35.7726 92.8102 35.6391 92.564 35.5491C92.3264 35.4591 92.0425 35.4155 91.7181 35.4155C91.5037 35.4155 91.3154 35.4475 91.1416 35.5055C90.9591 35.5665 90.8084 35.6507 90.6752 35.761C90.5477 35.8684 90.4463 35.9962 90.3739 36.1443C90.3015 36.2923 90.2638 36.4549 90.2638 36.632C90.2638 36.8091 90.2957 36.9775 90.3594 37.114C90.4144 37.2505 90.51 37.3695 90.6288 37.4711C90.7563 37.5727 90.9069 37.6598 91.0952 37.7295C91.2864 37.8021 91.5066 37.866 91.7528 37.9211C91.9904 37.9734 92.1816 38.0257 92.3322 38.0808C92.4829 38.136 92.6017 38.197 92.6799 38.2637C92.7668 38.3305 92.8218 38.406 92.8624 38.4873C92.8942 38.5715 92.9087 38.6644 92.9087 38.7689C92.9087 38.9983 92.8218 39.1812 92.6393 39.3206C92.4655 39.4599 92.2193 39.5296 91.9267 39.5296C91.6196 39.5296 91.3415 39.4774 91.1126 39.3728C90.8751 39.2683 90.6375 39.1115 90.4087 38.9025L90.0987 39.2683C90.3594 39.5064 90.6462 39.6864 90.9388 39.7996C91.2314 39.9158 91.5472 39.9709 91.9035 39.9709C92.1236 39.9709 92.3235 39.9419 92.5118 39.8809C92.6944 39.8229 92.8508 39.7387 92.987 39.6283C93.1144 39.518 93.2158 39.3845 93.294 39.2306C93.3665 39.0738 93.4041 38.8996 93.4041 38.7109C93.4041 38.3683 93.2853 38.1012 93.0565 37.9066C92.8189 37.7121 92.4539 37.5611 91.9643 37.4508C91.7181 37.3985 91.5211 37.3463 91.3617 37.2911C91.2111 37.233 91.0836 37.1692 90.9967 37.0995C90.9098 37.0298 90.8461 36.9543 90.8142 36.8672C90.7824 36.783 90.7679 36.6872 90.7679 36.5827L90.765 36.5798ZM103.668 37.686C103.668 37.3782 103.613 37.085 103.509 36.8091C103.399 36.5333 103.248 36.2894 103.051 36.0804C102.854 35.8713 102.616 35.7059 102.338 35.5839C102.06 35.462 101.762 35.401 101.42 35.401C101.078 35.401 100.78 35.4649 100.493 35.5897C100.215 35.7146 99.9773 35.883 99.7803 36.092C99.5833 36.304 99.4327 36.5478 99.3226 36.8237C99.2125 37.0995 99.1575 37.3927 99.1575 37.7005C99.1575 38.0082 99.2125 38.3015 99.3226 38.5773C99.4269 38.8531 99.5747 39.097 99.7745 39.3061C99.9715 39.5151 100.209 39.6806 100.487 39.8025C100.765 39.9245 101.072 39.9855 101.406 39.9855C101.739 39.9855 102.054 39.9245 102.333 39.7996C102.611 39.6748 102.848 39.5064 103.045 39.2974C103.242 39.0854 103.393 38.8415 103.503 38.5657C103.613 38.2899 103.668 37.9966 103.668 37.6889V37.686ZM103.152 37.6976C103.152 37.9502 103.106 38.1883 103.019 38.4089C102.932 38.6296 102.813 38.8241 102.663 38.9867C102.512 39.1522 102.33 39.2799 102.115 39.3757C101.901 39.4716 101.672 39.518 101.42 39.518C101.168 39.518 100.936 39.4716 100.725 39.3728C100.51 39.277 100.328 39.1435 100.171 38.9809C100.012 38.8154 99.8933 38.6238 99.8064 38.3973C99.7195 38.1737 99.6789 37.9357 99.6789 37.6831C99.6789 37.4305 99.7195 37.1924 99.8064 36.9717C99.8933 36.7511 100.012 36.5566 100.163 36.394C100.313 36.2285 100.496 36.0978 100.71 36.0049C100.925 35.9091 101.154 35.8626 101.406 35.8626C101.658 35.8626 101.895 35.912 102.11 36.0078C102.315 36.1065 102.506 36.2343 102.657 36.3998C102.816 36.5653 102.935 36.7569 103.022 36.9833C103.109 37.2069 103.155 37.445 103.155 37.6976H103.152ZM113.315 39.9071L111.953 38.0983C112.127 38.0692 112.287 38.017 112.437 37.9473C112.588 37.8747 112.715 37.7847 112.817 37.6773C112.927 37.5698 113.008 37.4421 113.069 37.2969C113.124 37.1517 113.156 36.9863 113.156 36.8004C113.156 36.603 113.115 36.4201 113.046 36.2575C112.967 36.0949 112.854 35.9555 112.721 35.8394C112.579 35.7233 112.411 35.6333 112.214 35.5694C112.023 35.5055 111.803 35.4736 111.557 35.4736H109.656V39.9042H110.154V38.1824H111.415L112.698 39.9042H113.315V39.9071ZM112.657 36.8208C112.657 36.963 112.626 37.0937 112.57 37.2069C112.515 37.323 112.437 37.4189 112.333 37.4943C112.229 37.5727 112.11 37.6337 111.968 37.6773C111.835 37.7179 111.684 37.7411 111.516 37.7411H110.154V35.9352H111.525C111.881 35.9352 112.159 36.0136 112.356 36.1675C112.553 36.3214 112.657 36.5391 112.657 36.8179V36.8208ZM119.543 36.5769C119.543 36.4753 119.567 36.3794 119.607 36.2923C119.654 36.2052 119.717 36.1268 119.798 36.063C119.885 35.9991 119.981 35.9497 120.1 35.912C120.21 35.8743 120.346 35.8539 120.488 35.8539C120.711 35.8539 120.931 35.8917 121.137 35.9672C121.351 36.0426 121.557 36.1646 121.763 36.3359L122.055 35.9497C121.826 35.7697 121.589 35.6362 121.351 35.5462C121.105 35.4562 120.821 35.4126 120.497 35.4126C120.291 35.4126 120.094 35.4446 119.92 35.5026C119.746 35.5636 119.587 35.6478 119.462 35.7581C119.329 35.8655 119.225 35.9933 119.152 36.1414C119.08 36.2894 119.048 36.452 119.048 36.6291C119.048 36.8062 119.08 36.9746 119.135 37.1111C119.19 37.2476 119.286 37.3666 119.404 37.4682C119.532 37.5698 119.683 37.6569 119.871 37.7266C120.062 37.7992 120.282 37.8631 120.537 37.9182C120.766 37.9705 120.957 38.0228 121.108 38.0779C121.258 38.1331 121.377 38.1941 121.464 38.2608C121.542 38.3276 121.606 38.4031 121.638 38.4844C121.67 38.5686 121.684 38.6615 121.684 38.766C121.684 38.9954 121.597 39.1783 121.415 39.3177C121.241 39.457 121.004 39.5267 120.702 39.5267C120.401 39.5267 120.126 39.4745 119.888 39.3699C119.651 39.2654 119.422 39.1086 119.184 38.8996L118.874 39.2654C119.144 39.5035 119.422 39.6835 119.714 39.7967C120.007 39.9129 120.331 39.968 120.688 39.968C120.902 39.968 121.108 39.939 121.29 39.878C121.482 39.82 121.629 39.7358 121.765 39.6254C121.899 39.5151 122.003 39.3815 122.075 39.2277C122.154 39.0709 122.185 38.8967 122.185 38.708C122.185 38.3654 122.075 38.0983 121.838 37.9037C121.609 37.7092 121.244 37.5582 120.746 37.4479C120.508 37.3956 120.302 37.3434 120.152 37.2882C119.992 37.2301 119.874 37.1663 119.781 37.0966C119.694 37.0269 119.639 36.9514 119.598 36.8643C119.567 36.7801 119.552 36.6843 119.552 36.5798L119.543 36.5769Z" fill="white"/>
<path fill-rule="evenodd" clip-rule="evenodd" d="M13.8129 0V5.74871L5.14512 10.76V20.7854L13.8129 25.7995L17.5094 23.6597V29.4084L13.8129 31.5482L6.99918 27.6054L0.182617 23.6597V7.88561L6.99918 3.9428L13.8129 0Z" fill="white"/>
<path fill-rule="evenodd" clip-rule="evenodd" d="M13.813 0L20.6296 3.9428L27.4461 7.88561V13.6343L22.4749 16.5087L27.4461 19.383V28.6739L23.3064 31.0663L22.4749 31.5482V22.2574L13.813 17.2461V11.4974L17.5095 13.6343L20.6296 11.8313L22.4749 10.76L21.3509 10.1096L13.813 5.74871V0Z" fill="white"/>
</g>
<defs>
<clipPath id="clip0_444_28908">
<rect width="122" height="40" fill="white" transform="translate(0.182617)"/>
</clipPath>
</defs>
</svg>
