<svg width="123" height="40" viewBox="0 0 123 40" fill="none" xmlns="http://www.w3.org/2000/svg">
<g clip-path="url(#clip0_444_28733)">
<path d="M45.8521 27.9248L43.0652 24.0023C43.4303 23.9036 43.7634 23.7613 44.0618 23.5813C44.3631 23.3984 44.6151 23.1778 44.8382 22.9135C45.0526 22.6522 45.2177 22.3503 45.3452 22.0106C45.4726 21.6709 45.5277 21.2818 45.5277 20.8492C45.5277 20.344 45.4408 19.8882 45.2669 19.4788C45.0844 19.0695 44.8324 18.724 44.5079 18.4423C44.1748 18.1607 43.7721 17.9429 43.297 17.792C42.8132 17.6381 42.2831 17.5626 41.6892 17.5626H37.083V27.9248H38.8878V24.313H41.1677L43.7171 27.9248H45.855H45.8521ZM43.6823 20.945C43.6823 21.4793 43.4911 21.9061 43.1058 22.2225C42.7176 22.5419 42.202 22.6987 41.5472 22.6987H38.8878V19.2059H41.5385C42.2193 19.2059 42.7495 19.3511 43.1203 19.6443C43.4911 19.9347 43.6823 20.3702 43.6823 20.945ZM59.9111 17.5626H52.2631V27.9248H59.9893V26.2815H54.0679V23.5116H59.2535V21.8683H54.0679V19.203H59.9111V17.5597V17.5626ZM74.3409 17.5626H66.6611V27.9248H68.4659V23.7062H73.6746V22.0628H68.4659V19.2059H74.338V17.5626H74.3409ZM89.5384 17.5626H87.7336V23.5291C87.7336 24.4872 87.5047 25.2072 87.0383 25.6892C86.5719 26.1711 85.9375 26.415 85.1234 26.415C84.3094 26.415 83.6576 26.1624 83.1911 25.6601C82.7334 25.155 82.4959 24.4204 82.4959 23.4536V17.5626H80.6911V23.5291C80.6911 24.2781 80.7925 24.9372 81.0068 25.5034C81.2125 26.0724 81.5051 26.5486 81.8933 26.9318C82.2728 27.318 82.7392 27.6054 83.2781 27.797C83.8169 27.9887 84.4253 28.0845 85.0916 28.0845C85.7579 28.0845 86.3894 27.9887 86.9369 27.797C87.4845 27.6054 87.9509 27.3122 88.3304 26.9231C88.7186 26.5341 89.0112 26.0463 89.2255 25.4656C89.4399 24.882 89.5413 24.2085 89.5413 23.4391V17.5626H89.5384ZM103.748 24.7282L98.2235 17.5626H96.5375V27.9248H98.3423V20.5531L104.035 27.9248H105.556V17.5626H103.751V24.7282H103.748ZM122.057 22.7306C122.057 22.0019 121.929 21.3196 121.66 20.6866C121.391 20.0566 121.02 19.5079 120.527 19.0433C120.043 18.5788 119.458 18.2159 118.786 17.9546C118.114 17.6932 117.37 17.5626 116.561 17.5626H112.705V27.9248H116.561C117.37 27.9248 118.114 27.7912 118.786 27.5241C119.458 27.257 120.043 26.8912 120.527 26.4295C121.017 25.965 121.391 25.4163 121.66 24.7775C121.929 24.1417 122.057 23.4594 122.057 22.7277V22.7306ZM120.156 22.7597C120.156 23.2765 120.07 23.7497 119.896 24.1794C119.722 24.612 119.484 24.9837 119.169 25.2943C118.859 25.6079 118.479 25.8489 118.036 26.026C117.593 26.2002 117.103 26.2844 116.556 26.2844H114.513V19.2088H116.556C117.103 19.2088 117.593 19.2988 118.036 19.4759C118.479 19.6559 118.859 19.9027 119.169 20.2221C119.484 20.5386 119.722 20.9131 119.896 21.3457C120.07 21.7754 120.156 22.2487 120.156 22.7655V22.7597Z" fill="#4682B4"/>
<path d="M45.9213 12.3627L44.7509 11.1752C44.3077 11.5904 43.8558 11.9185 43.4038 12.1623C42.9461 12.4062 42.4073 12.5253 41.7728 12.5253C41.2832 12.5253 40.8226 12.4295 40.4026 12.2349C39.9825 12.0433 39.6204 11.7762 39.3104 11.4394C39.0091 11.1026 38.7716 10.7106 38.6065 10.2606C38.4326 9.8106 38.3544 9.32864 38.3544 8.81474C38.3544 8.30084 38.4326 7.81887 38.6065 7.37465C38.7716 6.93044 39.0091 6.54138 39.3104 6.21039C39.6204 5.87941 39.9825 5.6152 40.4026 5.42358C40.8226 5.23195 41.2804 5.13324 41.7728 5.13324C42.3667 5.13324 42.8969 5.25228 43.3575 5.49035C43.8239 5.72843 44.2584 6.03909 44.6785 6.42525L45.8431 5.07517C45.5968 4.83709 45.3361 4.61934 45.058 4.42191C44.7799 4.22448 44.4815 4.05318 44.157 3.91091C43.8326 3.76864 43.4763 3.65541 43.0881 3.57702C42.6912 3.49863 42.2653 3.45798 41.7902 3.45798C40.9993 3.45798 40.278 3.60025 39.6291 3.88188C38.9715 4.16351 38.4095 4.54966 37.9344 5.04033C37.4679 5.531 37.0942 6.10007 36.8335 6.75623C36.5728 7.4095 36.4453 8.10631 36.4453 8.84667C36.4453 9.58704 36.5728 10.3013 36.8422 10.9545C37.1116 11.6078 37.4766 12.174 37.943 12.653C38.4181 13.135 38.9715 13.5124 39.6146 13.7882C40.2548 14.0641 40.953 14.2034 41.7207 14.2034C42.2045 14.2034 42.639 14.1628 43.0417 14.0786C43.4386 13.9944 43.8094 13.8695 44.1426 13.7069C44.4815 13.5444 44.7915 13.3498 45.0841 13.1292C45.3767 12.9056 45.6548 12.653 45.9242 12.3656L45.9213 12.3627ZM59.9165 8.81474C59.9165 8.08308 59.7833 7.38917 59.5139 6.73591C59.2531 6.08265 58.8794 5.51358 58.4043 5.02872C57.9292 4.54385 57.3585 4.1606 56.7009 3.87897C56.0346 3.59734 55.3075 3.45508 54.5079 3.45508C53.7083 3.45508 52.9812 3.59734 52.3149 3.88478C51.6573 4.17222 51.0808 4.56127 50.597 5.04904C50.1132 5.53971 49.7424 6.11168 49.473 6.76204C49.2036 7.4153 49.0703 8.10631 49.0703 8.84087C49.0703 9.57542 49.2036 10.2664 49.473 10.9197C49.7424 11.573 50.1074 12.1391 50.5825 12.6269C51.0576 13.1118 51.6283 13.495 52.2859 13.7766C52.9522 14.0583 53.6794 14.2005 54.4789 14.2005C55.2785 14.2005 56.0143 14.0554 56.6719 13.7708C57.3382 13.4834 57.906 13.0943 58.3898 12.6066C58.8736 12.1159 59.2531 11.5439 59.5139 10.8907C59.7833 10.2374 59.9165 9.54639 59.9165 8.81183V8.81474ZM58.0074 8.84377C58.0074 9.34896 57.9205 9.82511 57.7467 10.2751C57.5729 10.7252 57.3353 11.1171 57.0254 11.4481C56.7154 11.7791 56.3533 12.0433 55.9245 12.2349C55.49 12.4266 55.0207 12.5253 54.5079 12.5253C53.9951 12.5253 53.5171 12.4266 53.0826 12.2291C52.6538 12.0317 52.283 11.7646 51.9673 11.4278C51.6573 11.091 51.4139 10.699 51.2459 10.249C51.0721 9.79898 50.9852 9.32283 50.9852 8.81764C50.9852 8.31245 51.0721 7.83629 51.2459 7.38627C51.411 6.93624 51.6573 6.54428 51.9586 6.2133C52.2657 5.88231 52.6307 5.6181 53.0681 5.42648C53.4969 5.23486 53.9633 5.13614 54.476 5.13614C54.9888 5.13614 55.4668 5.23486 55.9013 5.43229C56.3359 5.62972 56.7096 5.89683 57.0167 6.23362C57.3267 6.57042 57.57 6.96237 57.7438 7.4124C57.9176 7.86242 58.0045 8.33858 58.0045 8.84377H58.0074ZM72.921 14.0234L70.1197 10.0922C70.4847 9.99351 70.8149 9.85415 71.1162 9.66833C71.4175 9.48542 71.6782 9.26186 71.8926 9.00055C72.1157 8.73925 72.2808 8.43729 72.4083 8.09469C72.5357 7.755 72.5908 7.36594 72.5908 6.93044C72.5908 6.42525 72.5039 5.96941 72.33 5.55713C72.1475 5.14485 71.8955 4.79935 71.5624 4.51772C71.2379 4.23609 70.8265 4.01834 70.3514 3.86446C69.8763 3.71058 69.3375 3.63509 68.7436 3.63509H64.12V14.0263H65.9335V10.4058H68.2222L70.7715 14.0263H72.9239L72.921 14.0234ZM70.7454 7.02625C70.7454 7.56337 70.5484 7.99017 70.1602 8.30664C69.7807 8.62602 69.2593 8.7857 68.6017 8.7857H65.9335V5.28421H68.5843C69.2737 5.28421 69.8039 5.42938 70.1747 5.72553C70.5542 6.01877 70.7454 6.45138 70.7454 7.02915V7.02625ZM85.6271 14.0234L82.8258 10.0922C83.1908 9.99351 83.5297 9.85415 83.831 9.66833C84.1323 9.48542 84.3843 9.26186 84.6074 9.00055C84.8218 8.73925 84.9956 8.43729 85.1144 8.09469C85.2418 7.755 85.3056 7.36594 85.3056 6.93044C85.3056 6.42525 85.21 5.96941 85.0361 5.55713C84.8623 5.14485 84.6016 4.79935 84.2771 4.51772C83.944 4.23609 83.5413 4.01834 83.0575 3.86446C82.5824 3.71058 82.0436 3.63509 81.4497 3.63509H76.8348V14.0263H78.6396V10.4058H80.9282L83.4863 14.0263H85.63L85.6271 14.0234ZM83.4515 7.02625C83.4515 7.56337 83.2603 7.99017 82.8721 8.30664C82.4839 8.62602 81.9625 8.7857 81.3135 8.7857H78.6367V5.28421H81.2962C81.9769 5.28421 82.5071 5.42938 82.8808 5.72553C83.2603 6.01877 83.4515 6.45138 83.4515 7.02915V7.02625ZM97.2092 3.63509H89.538V14.0263H97.2787V12.3801H91.3428V9.60446H96.5429V7.95824H91.3428V5.28712H97.2092V3.63799V3.63509ZM110.477 12.3627L109.313 11.1752C108.861 11.5904 108.418 11.9185 107.96 12.1623C107.508 12.4062 106.963 12.5253 106.338 12.5253C105.839 12.5253 105.379 12.4295 104.959 12.2349C104.547 12.0433 104.182 11.7762 103.875 11.4394C103.565 11.1026 103.328 10.7106 103.162 10.2606C102.997 9.8106 102.91 9.32864 102.91 8.81474C102.91 8.30084 102.997 7.81887 103.162 7.37465C103.328 6.93044 103.565 6.54138 103.875 6.21039C104.185 5.87941 104.547 5.6152 104.959 5.42358C105.379 5.23195 105.836 5.13324 106.338 5.13324C106.923 5.13324 107.453 5.25228 107.919 5.49035C108.377 5.72843 108.823 6.03909 109.235 6.42525L110.405 5.07517C110.159 4.83709 109.898 4.61934 109.623 4.42191C109.345 4.22448 109.046 4.05318 108.719 3.91091C108.394 3.76864 108.029 3.65541 107.641 3.57702C107.253 3.49863 106.818 3.45798 106.343 3.45798C105.558 3.45798 104.84 3.60025 104.182 3.88188C103.533 4.16351 102.971 4.54966 102.496 5.04033C102.021 5.531 101.656 6.10007 101.395 6.75623C101.135 7.4095 100.998 8.10631 100.998 8.84667C100.998 9.58704 101.132 10.3013 101.401 10.9545C101.662 11.6078 102.036 12.174 102.502 12.653C102.968 13.135 103.525 13.5124 104.165 13.7882C104.805 14.0641 105.512 14.2034 106.271 14.2034C106.755 14.2034 107.198 14.1628 107.592 14.0786C107.995 13.9944 108.36 13.8695 108.701 13.7069C109.035 13.5444 109.35 13.3498 109.643 13.1292C109.927 12.9056 110.214 12.653 110.474 12.3656L110.477 12.3627ZM118.774 5.32776H122.059V3.63509H113.652V5.32776H116.938V14.0263H118.774V5.32776Z" fill="#010080"/>
<path d="M4.03704 39.2073L3.71258 38.8851C3.49821 39.0883 3.28383 39.2451 3.06366 39.3583C2.84928 39.4687 2.58856 39.5267 2.28727 39.5267C2.04103 39.5267 1.81217 39.4803 1.60649 39.3845C1.39211 39.2886 1.21829 39.1609 1.05896 38.9954C0.908316 38.8299 0.789541 38.6354 0.702632 38.4118C0.615723 38.1883 0.569371 37.9473 0.569371 37.6889C0.569371 37.4305 0.615723 37.1924 0.702632 36.9688C0.789541 36.7482 0.908316 36.5536 1.05896 36.3882C1.21829 36.2227 1.39211 36.0949 1.60649 36.002C1.81217 35.9091 2.04103 35.8626 2.28727 35.8626C2.58856 35.8626 2.84928 35.9178 3.06366 36.0339C3.27804 36.1472 3.48372 36.2923 3.67202 36.4724L4.01097 36.1065C3.90088 36.002 3.7879 35.9033 3.67202 35.8191C3.55325 35.732 3.42578 35.6594 3.28383 35.5984C3.15057 35.5375 2.99993 35.491 2.8319 35.4562C2.67257 35.4213 2.49296 35.4039 2.28438 35.4039C1.95992 35.4039 1.66732 35.4649 1.38921 35.5839C1.1111 35.703 0.882244 35.8684 0.68525 36.0775C0.488256 36.2865 0.328923 36.5304 0.218838 36.8091C0.108753 37.0879 0.0537109 37.384 0.0537109 37.7005C0.0537109 38.017 0.108753 38.3218 0.218838 38.6005C0.328923 38.8793 0.488256 39.1202 0.68525 39.3264C0.882244 39.5296 1.114 39.6922 1.38052 39.8113C1.64994 39.9303 1.95122 39.9884 2.26699 39.9884C2.46399 39.9884 2.65519 39.968 2.81452 39.9303C2.97965 39.8925 3.13898 39.8403 3.28093 39.7706C3.42288 39.7038 3.55904 39.6225 3.67782 39.5267C3.80528 39.4309 3.92406 39.3235 4.03414 39.2073H4.03704ZM13.1567 36.8904C13.1567 36.6698 13.1161 36.4724 13.0379 36.2981C12.9655 36.1239 12.8467 35.9759 12.7048 35.8568C12.5628 35.7349 12.389 35.642 12.1833 35.5781C11.9776 35.5142 11.7488 35.4794 11.5025 35.4794H9.84836V39.91H10.3466V38.345H11.4243C11.6532 38.345 11.882 38.3131 12.0906 38.2521C12.305 38.1912 12.4875 38.0983 12.6439 37.9763C12.8033 37.8544 12.9278 37.7034 13.0234 37.5205C13.1103 37.3405 13.1567 37.1285 13.1567 36.8875V36.8904ZM12.6584 36.9079C12.6584 37.0559 12.6266 37.1895 12.5715 37.3114C12.5165 37.4305 12.4382 37.535 12.3253 37.6221C12.2152 37.7092 12.0877 37.776 11.9371 37.8224C11.7864 37.8689 11.6213 37.8921 11.4388 37.8921H10.3466V35.941H11.4707C11.827 35.941 12.1109 36.0223 12.334 36.1849C12.5483 36.3475 12.6584 36.5885 12.6584 36.9079ZM20.6627 35.4446H20.1963L18.1858 39.9071H18.6928L19.2229 38.737H21.6303L22.146 39.9071H22.6848L20.6656 35.4446H20.6627ZM21.4304 38.2928H19.4112L20.4252 36.031L21.4304 38.2928ZM28.7829 36.5798C28.7829 36.4782 28.8061 36.3823 28.8467 36.2952C28.893 36.2081 28.9568 36.1298 29.0379 36.0659C29.1248 36.002 29.2204 35.9526 29.3392 35.9149C29.4492 35.8772 29.5854 35.8568 29.7274 35.8568C29.9562 35.8568 30.1706 35.8946 30.3763 35.9701C30.5907 36.0456 30.7963 36.1675 31.002 36.3388L31.2946 35.9526C31.0658 35.7726 30.8282 35.6391 30.5906 35.5491C30.3444 35.4591 30.0605 35.4155 29.736 35.4155C29.5304 35.4155 29.3334 35.4475 29.1566 35.5055C28.9828 35.5665 28.8235 35.6507 28.6989 35.761C28.5657 35.8684 28.4701 35.9962 28.389 36.1443C28.3165 36.2923 28.2876 36.4549 28.2876 36.632C28.2876 36.8091 28.3194 36.9775 28.3745 37.114C28.4382 37.2505 28.5251 37.3695 28.6439 37.4711C28.7714 37.5727 28.922 37.6598 29.1103 37.7295C29.3015 37.8021 29.5217 37.866 29.7766 37.9211C30.0055 37.9734 30.1967 38.0257 30.3473 38.0808C30.4979 38.136 30.6167 38.197 30.7036 38.2637C30.7818 38.3305 30.8456 38.406 30.8774 38.4873C30.9093 38.5715 30.9238 38.6644 30.9238 38.7689C30.9238 38.9983 30.8369 39.1812 30.6631 39.3206C30.4806 39.4599 30.243 39.5296 29.9417 39.5296C29.6404 39.5296 29.3652 39.4774 29.1277 39.3728C28.8901 39.2683 28.6613 39.1115 28.4237 38.9025L28.1137 39.2683C28.3832 39.5064 28.6613 39.6864 28.9539 39.7996C29.2465 39.9158 29.5709 39.9709 29.9272 39.9709C30.1416 39.9709 30.3473 39.9419 30.5298 39.8809C30.721 39.8229 30.8774 39.7387 31.0049 39.6283C31.1382 39.518 31.2425 39.3845 31.3149 39.2306C31.3931 39.0738 31.4337 38.8996 31.4337 38.7109C31.4337 38.3683 31.3149 38.1012 31.0773 37.9066C30.8485 37.7121 30.4835 37.5611 29.9939 37.4508C29.7476 37.3985 29.5419 37.3463 29.3913 37.2911C29.232 37.233 29.1132 37.1692 29.0205 37.0995C28.9336 37.0298 28.8785 36.9543 28.838 36.8672C28.8061 36.783 28.7916 36.6872 28.7916 36.5827L28.7829 36.5798ZM44.7336 39.7067L43.9659 38.9141C44.0847 38.7544 44.1948 38.5802 44.2991 38.3944C44.4005 38.2086 44.5048 38.0111 44.6004 37.7992L44.189 37.6105C44.1108 37.7963 44.0297 37.9705 43.9428 38.136C43.8472 38.3015 43.7603 38.4554 43.6589 38.5976L42.6536 37.5669C42.9781 37.4508 43.2301 37.3027 43.4126 37.1198C43.6038 36.9369 43.6907 36.6988 43.6907 36.4085C43.6907 36.2691 43.6676 36.1385 43.6125 36.0165C43.5575 35.8946 43.4851 35.7872 43.3895 35.6971C43.2939 35.6071 43.1838 35.5346 43.0505 35.4823C42.923 35.43 42.7724 35.4039 42.6218 35.4039C42.4392 35.4039 42.2828 35.4329 42.138 35.4852C41.996 35.5404 41.8772 35.6159 41.7729 35.7088C41.6715 35.8046 41.5904 35.9149 41.5354 36.0456C41.4803 36.1733 41.4485 36.3127 41.4485 36.4607C41.4485 36.6378 41.489 36.8033 41.5586 36.9514C41.631 37.1024 41.7411 37.265 41.8917 37.4421C41.5528 37.5756 41.2891 37.7498 41.1008 37.9618C40.9183 38.1737 40.8227 38.4292 40.8227 38.7283C40.8227 38.9141 40.8633 39.0854 40.9241 39.2364C40.9966 39.3903 41.0893 39.5209 41.2167 39.6312C41.3442 39.7416 41.4861 39.8258 41.66 39.8838C41.8251 39.9448 42.0163 39.9738 42.2133 39.9738C42.4972 39.9738 42.7666 39.9129 42.9955 39.7938C43.233 39.6748 43.4532 39.5035 43.6531 39.2857L44.3483 40L44.7278 39.7096L44.7336 39.7067ZM43.2214 36.4346C43.2214 36.632 43.149 36.8004 43.007 36.934C42.8651 37.0705 42.6507 37.1837 42.3726 37.2824C42.2857 37.1924 42.2133 37.1111 42.1582 37.0385C42.1032 36.9659 42.0539 36.8962 42.025 36.8324C41.9931 36.7685 41.9612 36.7075 41.9526 36.6495C41.9381 36.5914 41.9294 36.5275 41.9294 36.4607C41.9294 36.2749 41.9931 36.121 42.1119 35.9991C42.2307 35.8772 42.3958 35.8162 42.5957 35.8162C42.7782 35.8162 42.9288 35.8743 43.0476 35.9904C43.1664 36.1065 43.2214 36.2546 43.2214 36.4375V36.4346ZM43.3489 38.9722C43.1896 39.1493 43.0157 39.2886 42.8332 39.3932C42.6507 39.4977 42.4537 39.5499 42.248 39.5499C42.1148 39.5499 41.9873 39.5296 41.8772 39.4861C41.7585 39.4454 41.6629 39.3845 41.576 39.309C41.4977 39.2335 41.434 39.1435 41.3934 39.0419C41.3471 38.9402 41.321 38.827 41.321 38.7051C41.321 38.5163 41.3934 38.3363 41.5267 38.165C41.66 37.9966 41.8743 37.8573 42.1669 37.7469L43.346 38.9693L43.3489 38.9722ZM56.3939 35.4446H55.9275L53.9083 39.9071H54.424L54.9455 38.737H57.3528L57.8685 39.9071H58.4073L56.3968 35.4446H56.3939ZM57.1529 38.2928H55.1424L56.1477 36.031L57.1529 38.2928ZM68.0919 37.686C68.0919 37.3724 68.0369 37.0821 67.9268 36.812C67.8167 36.542 67.6487 36.3069 67.443 36.1094C67.2373 35.912 66.9853 35.7552 66.6985 35.6449C66.4059 35.5346 66.0901 35.4765 65.7482 35.4765H64.2129V39.9071H65.7482C66.0872 39.9071 66.4059 39.849 66.6985 39.7358C66.9824 39.6225 67.2373 39.4657 67.443 39.2683C67.6487 39.0709 67.8138 38.8357 67.9268 38.5628C68.0369 38.2899 68.0919 37.9966 68.0919 37.686ZM67.5762 37.6976C67.5762 37.9473 67.5357 38.1766 67.4488 38.3886C67.3619 38.6005 67.2344 38.7835 67.078 38.9431C66.9186 39.1028 66.7303 39.2248 66.5015 39.3148C66.2784 39.4048 66.0264 39.4483 65.7482 39.4483H64.7111V35.941H65.7482C66.0264 35.941 66.2784 35.9875 66.5015 36.0775C66.7303 36.1675 66.9215 36.2923 67.078 36.452C67.2373 36.6088 67.3619 36.7975 67.4488 37.0124C67.5357 37.2272 67.5762 37.4566 67.5762 37.7034V37.6976ZM75.5487 39.2944L73.9814 35.4765H73.4194L75.3285 39.939H75.7718L77.6722 35.4765H77.1333L75.5487 39.2944ZM83.5211 35.4765V39.9071H84.0194V35.4765H83.5211ZM90.639 36.5798C90.639 36.4782 90.6535 36.3823 90.7027 36.2952C90.7433 36.2081 90.8128 36.1298 90.8939 36.0659C90.9722 36.002 91.0764 35.9526 91.1865 35.9149C91.3053 35.8772 91.4328 35.8568 91.5747 35.8568C91.8036 35.8568 92.0266 35.8946 92.2323 35.9701C92.438 36.0456 92.6524 36.1675 92.8581 36.3388L93.142 35.9526C92.9189 35.7726 92.6843 35.6391 92.438 35.5491C92.2005 35.4591 91.9166 35.4155 91.5921 35.4155C91.3777 35.4155 91.1894 35.4475 91.0156 35.5055C90.8331 35.5665 90.6825 35.6507 90.5492 35.761C90.4217 35.8684 90.3203 35.9962 90.2479 36.1443C90.1755 36.2923 90.1378 36.4549 90.1378 36.632C90.1378 36.8091 90.1697 36.9775 90.2334 37.114C90.2885 37.2505 90.3841 37.3695 90.5028 37.4711C90.6303 37.5727 90.781 37.6598 90.9693 37.7295C91.1605 37.8021 91.3806 37.866 91.6269 37.9211C91.8644 37.9734 92.0556 38.0257 92.2063 38.0808C92.3569 38.136 92.4757 38.197 92.5539 38.2637C92.6408 38.3305 92.6959 38.406 92.7364 38.4873C92.7683 38.5715 92.7828 38.6644 92.7828 38.7689C92.7828 38.9983 92.6958 39.1812 92.5133 39.3206C92.3395 39.4599 92.0933 39.5296 91.8007 39.5296C91.4936 39.5296 91.2155 39.4774 90.9866 39.3728C90.7491 39.2683 90.5115 39.1115 90.2827 38.9025L89.9727 39.2683C90.2334 39.5064 90.5202 39.6864 90.8128 39.7996C91.1054 39.9158 91.4212 39.9709 91.7775 39.9709C91.9977 39.9709 92.1976 39.9419 92.3859 39.8809C92.5684 39.8229 92.7248 39.7387 92.861 39.6283C92.9884 39.518 93.0898 39.3845 93.1681 39.2306C93.2405 39.0738 93.2781 38.8996 93.2781 38.7109C93.2781 38.3683 93.1594 38.1012 92.9305 37.9066C92.6929 37.7121 92.3279 37.5611 91.8383 37.4508C91.5921 37.3985 91.3951 37.3463 91.2358 37.2911C91.0851 37.233 90.9577 37.1692 90.8708 37.0995C90.7839 37.0298 90.7201 36.9543 90.6883 36.8672C90.6564 36.783 90.6419 36.6872 90.6419 36.5827L90.639 36.5798ZM103.542 37.686C103.542 37.3782 103.487 37.085 103.383 36.8091C103.273 36.5333 103.122 36.2894 102.925 36.0804C102.728 35.8713 102.49 35.7059 102.212 35.5839C101.934 35.462 101.636 35.401 101.294 35.401C100.952 35.401 100.654 35.4649 100.367 35.5897C100.089 35.7146 99.8514 35.883 99.6544 36.092C99.4574 36.304 99.3067 36.5478 99.1966 36.8237C99.0866 37.0995 99.0315 37.3927 99.0315 37.7005C99.0315 38.0082 99.0866 38.3015 99.1966 38.5773C99.3009 38.8531 99.4487 39.097 99.6486 39.3061C99.8456 39.5151 100.083 39.6806 100.361 39.8025C100.639 39.9245 100.946 39.9855 101.28 39.9855C101.613 39.9855 101.928 39.9245 102.207 39.7996C102.485 39.6748 102.722 39.5064 102.919 39.2974C103.116 39.0854 103.267 38.8415 103.377 38.5657C103.487 38.2899 103.542 37.9966 103.542 37.6889V37.686ZM103.026 37.6976C103.026 37.9502 102.98 38.1883 102.893 38.4089C102.806 38.6296 102.687 38.8241 102.537 38.9867C102.386 39.1522 102.204 39.2799 101.989 39.3757C101.775 39.4716 101.546 39.518 101.294 39.518C101.042 39.518 100.81 39.4716 100.599 39.3728C100.384 39.277 100.202 39.1435 100.045 38.9809C99.8861 38.8154 99.7674 38.6238 99.6804 38.3973C99.5935 38.1737 99.553 37.9357 99.553 37.6831C99.553 37.4305 99.5935 37.1924 99.6804 36.9717C99.7674 36.7511 99.8861 36.5565 100.037 36.394C100.187 36.2285 100.37 36.0978 100.584 36.0049C100.799 35.9091 101.028 35.8626 101.28 35.8626C101.532 35.8626 101.769 35.912 101.984 36.0078C102.189 36.1065 102.38 36.2343 102.531 36.3998C102.69 36.5653 102.809 36.7569 102.896 36.9833C102.983 37.2069 103.029 37.445 103.029 37.6976H103.026ZM113.189 39.9071L111.827 38.0983C112.001 38.0692 112.161 38.017 112.311 37.9473C112.462 37.8747 112.589 37.7847 112.691 37.6773C112.801 37.5698 112.882 37.4421 112.943 37.2969C112.998 37.1517 113.03 36.9863 113.03 36.8004C113.03 36.603 112.989 36.4201 112.92 36.2575C112.841 36.0949 112.728 35.9555 112.595 35.8394C112.453 35.7233 112.285 35.6333 112.088 35.5694C111.897 35.5055 111.677 35.4736 111.431 35.4736H109.53V39.9042H110.028V38.1824H111.289L112.572 39.9042H113.189V39.9071ZM112.531 36.8208C112.531 36.963 112.5 37.0937 112.444 37.2069C112.389 37.323 112.311 37.4189 112.207 37.4943C112.103 37.5727 111.984 37.6337 111.842 37.6773C111.709 37.7179 111.558 37.7411 111.39 37.7411H110.028V35.9352H111.399C111.755 35.9352 112.033 36.0136 112.23 36.1675C112.427 36.3214 112.531 36.5391 112.531 36.8179V36.8208ZM119.417 36.5769C119.417 36.4753 119.441 36.3794 119.481 36.2923C119.528 36.2052 119.591 36.1268 119.672 36.063C119.759 35.9991 119.855 35.9497 119.974 35.912C120.084 35.8743 120.22 35.8539 120.362 35.8539C120.585 35.8539 120.805 35.8917 121.011 35.9672C121.225 36.0426 121.431 36.1646 121.637 36.3359L121.929 35.9497C121.7 35.7697 121.463 35.6362 121.225 35.5462C120.979 35.4562 120.695 35.4126 120.371 35.4126C120.165 35.4126 119.968 35.4446 119.794 35.5026C119.62 35.5636 119.461 35.6478 119.336 35.7581C119.203 35.8655 119.099 35.9933 119.026 36.1414C118.954 36.2894 118.922 36.452 118.922 36.6291C118.922 36.8062 118.954 36.9746 119.009 37.1111C119.064 37.2476 119.16 37.3666 119.278 37.4682C119.406 37.5698 119.557 37.6569 119.745 37.7266C119.936 37.7992 120.156 37.8631 120.411 37.9182C120.64 37.9705 120.831 38.0228 120.982 38.0779C121.132 38.1331 121.251 38.1941 121.338 38.2608C121.416 38.3276 121.48 38.4031 121.512 38.4844C121.544 38.5686 121.558 38.6615 121.558 38.766C121.558 38.9954 121.471 39.1783 121.289 39.3177C121.115 39.457 120.878 39.5267 120.576 39.5267C120.275 39.5267 120 39.4745 119.762 39.3699C119.525 39.2654 119.296 39.1086 119.058 38.8996L118.748 39.2654C119.018 39.5035 119.296 39.6835 119.588 39.7967C119.881 39.9129 120.205 39.968 120.562 39.968C120.776 39.968 120.982 39.939 121.164 39.878C121.356 39.82 121.503 39.7358 121.639 39.6254C121.773 39.5151 121.877 39.3815 121.949 39.2277C122.028 39.0709 122.06 38.8967 122.06 38.708C122.06 38.3654 121.949 38.0983 121.712 37.9037C121.483 37.7092 121.118 37.5582 120.62 37.4479C120.382 37.3956 120.176 37.3434 120.026 37.2882C119.867 37.2301 119.748 37.1663 119.655 37.0966C119.568 37.0269 119.513 36.9514 119.473 36.8643C119.441 36.7801 119.426 36.6843 119.426 36.5798L119.417 36.5769Z" fill="#4682B4"/>
<path fill-rule="evenodd" clip-rule="evenodd" d="M13.6869 0V5.74871L5.01915 10.76V20.7854L13.6869 25.7995L17.3834 23.6597V29.4084L13.6869 31.5482L6.87321 27.6054L0.0566406 23.6597V7.88561L6.87321 3.9428L13.6869 0Z" fill="#010080"/>
<path fill-rule="evenodd" clip-rule="evenodd" d="M13.6865 0L20.5031 3.9428L27.3197 7.88561V13.6343L22.3485 16.5087L27.3197 19.383V28.6739L23.1799 31.0663L22.3485 31.5482V22.2574L13.6865 17.2461V11.4974L17.3831 13.6343L20.5031 11.8313L22.3485 10.76L21.2244 10.1096L13.6865 5.74871V0Z" fill="#4682B4"/>
</g>
<defs>
<clipPath id="clip0_444_28733">
<rect width="122" height="40" fill="white" transform="translate(0.0566406)"/>
</clipPath>
</defs>
</svg>
