<svg width="49" height="49" viewBox="0 0 49 49" fill="none" xmlns="http://www.w3.org/2000/svg">
<path d="M9.18328 14.0977L11.6988 11.5808C11.6988 11.5808 20.9237 14.6563 26.2361 17.7317L32.1509 11.8169C33.0334 10.9344 34.1559 10.3224 35.3938 10.1536C36.338 10.0246 37.4962 9.90381 38.5365 9.90381L39.095 10.4624C39.095 11.5012 38.9743 12.6609 38.8453 13.605C38.6765 14.8429 38.0644 15.9655 37.182 16.8493L31.2671 22.7641C34.3426 28.0751 37.418 37.3 37.418 37.3L34.9011 39.8156C34.9011 39.8156 29.8701 32.5476 25.6762 28.3537C25.6762 28.3537 22.5692 30.3436 17.8497 35.0645C17.8497 35.0645 18.4082 37.3 18.4082 39.537L17.8497 40.0955C17.8497 40.0955 15.6127 37.3 13.6558 35.3431C11.6988 33.3861 8.90332 31.1505 8.90332 31.1505L9.46187 30.5906C11.6988 30.5906 13.9357 31.1492 13.9357 31.1492C18.6552 26.4297 20.6452 23.3227 20.6452 23.3227C16.4512 19.1287 9.18328 14.0977 9.18328 14.0977Z" stroke="url(#paint0_linear_463_31410)" stroke-width="1.5"/>
<defs>
<linearGradient id="paint0_linear_463_31410" x1="39.4134" y1="9.90381" x2="15.824" y2="11.1908" gradientUnits="userSpaceOnUse">
<stop stop-color="#3B82F6"/>
<stop offset="1" stop-color="#9747FF"/>
</linearGradient>
</defs>
</svg>
