<svg width="49" height="49" viewBox="0 0 49 49" fill="none" xmlns="http://www.w3.org/2000/svg">
<path d="M32.7336 18.6782H30.2857C29.9106 18.6785 29.5472 18.8093 29.2578 19.0482C28.9686 19.2871 28.7715 19.6192 28.7003 19.9875C28.629 20.3559 28.6883 20.7375 28.8677 21.067C29.0471 21.3965 29.3356 21.6532 29.6836 21.7933L32.1689 22.7867C32.5177 22.9262 32.8071 23.183 32.9871 23.5128C33.1671 23.8425 33.2266 24.2247 33.1553 24.5936C33.084 24.9624 32.8866 25.295 32.5966 25.5339C32.3067 25.7729 31.9427 25.9034 31.5668 25.903H29.1213" stroke="url(#paint0_linear_463_31418)" stroke-width="1.2" stroke-linecap="round" stroke-linejoin="round"/>
<path d="M30.9277 18.678V17.7749" stroke="url(#paint1_linear_463_31418)" stroke-width="1.2" stroke-linecap="round" stroke-linejoin="round"/>
<path d="M30.9277 26.8059V25.9028" stroke="url(#paint2_linear_463_31418)" stroke-width="1.2" stroke-linecap="round" stroke-linejoin="round"/>
<path d="M23.7031 22.2907C23.7031 24.2068 24.4643 26.0444 25.8193 27.3993C27.1741 28.7543 29.0117 29.5154 30.9279 29.5154C32.844 29.5154 34.6816 28.7543 36.0365 27.3993C37.3915 26.0444 38.1526 24.2068 38.1526 22.2907C38.1526 20.3745 37.3915 18.5369 36.0365 17.182C34.6816 15.8271 32.844 15.0659 30.9279 15.0659C29.0117 15.0659 27.1741 15.8271 25.8193 17.182C24.4643 18.5369 23.7031 20.3745 23.7031 22.2907Z" stroke="url(#paint3_linear_463_31418)" stroke-width="1.2" stroke-linecap="round" stroke-linejoin="round"/>
<path d="M12.4141 14.6144C12.4141 15.0295 12.4958 15.4405 12.6547 15.824C12.8135 16.2075 13.0463 16.556 13.3398 16.8495C13.6334 17.143 13.9818 17.3758 14.3653 17.5347C14.7488 17.6935 15.1598 17.7753 15.5749 17.7753C15.99 17.7753 16.401 17.6935 16.7845 17.5347C17.168 17.3758 17.5164 17.143 17.8099 16.8495C18.1034 16.556 18.3363 16.2075 18.4951 15.824C18.6539 15.4405 18.7357 15.0295 18.7357 14.6144C18.7357 14.1994 18.6539 13.7883 18.4951 13.4048C18.3363 13.0214 18.1034 12.6729 17.8099 12.3794C17.5164 12.0859 17.168 11.8531 16.7845 11.6942C16.401 11.5354 15.99 11.4536 15.5749 11.4536C15.1598 11.4536 14.7488 11.5354 14.3653 11.6942C13.9818 11.8531 13.6334 12.0859 13.3398 12.3794C13.0463 12.6729 12.8135 13.0214 12.6547 13.4048C12.4958 13.7883 12.4141 14.1994 12.4141 14.6144Z" stroke="url(#paint4_linear_463_31418)" stroke-width="1.2" stroke-linecap="round" stroke-linejoin="round"/>
<path d="M17.8328 29.5153L18.2843 25.903H20.0905V23.1937C20.0905 21.9961 19.6148 20.8476 18.7679 20.0008C17.9211 19.154 16.7726 18.6782 15.575 18.6782C14.3775 18.6782 13.2289 19.154 12.3821 20.0008C11.5353 20.8476 11.0596 21.9961 11.0596 23.1937V25.903H12.8658L13.3173 29.5153" stroke="url(#paint5_linear_463_31418)" stroke-width="1.2" stroke-linecap="round" stroke-linejoin="round"/>
<path d="M11.0596 33.1279H38.1523" stroke="url(#paint6_linear_463_31418)" stroke-width="1.2" stroke-linecap="round" stroke-linejoin="round"/>
<path d="M28.2179 38.5462H20.9932L24.6055 34.0308L28.2179 38.5462Z" stroke="url(#paint7_linear_463_31418)" stroke-width="1.2" stroke-linecap="round" stroke-linejoin="round"/>
<defs>
<linearGradient id="paint0_linear_463_31418" x1="33.2323" y1="18.6782" x2="29.6992" y2="18.7986" gradientUnits="userSpaceOnUse">
<stop stop-color="#3B82F6"/>
<stop offset="1" stop-color="#9747FF"/>
</linearGradient>
<linearGradient id="paint1_linear_463_31418" x1="31.9383" y1="17.7749" x2="31.1575" y2="17.8221" gradientUnits="userSpaceOnUse">
<stop stop-color="#3B82F6"/>
<stop offset="1" stop-color="#9747FF"/>
</linearGradient>
<linearGradient id="paint2_linear_463_31418" x1="31.9383" y1="25.9028" x2="31.1575" y2="25.95" gradientUnits="userSpaceOnUse">
<stop stop-color="#3B82F6"/>
<stop offset="1" stop-color="#9747FF"/>
</linearGradient>
<linearGradient id="paint3_linear_463_31418" x1="38.305" y1="15.0659" x2="27.0153" y2="15.6818" gradientUnits="userSpaceOnUse">
<stop stop-color="#3B82F6"/>
<stop offset="1" stop-color="#9747FF"/>
</linearGradient>
<linearGradient id="paint4_linear_463_31418" x1="18.8024" y1="11.4536" x2="13.8631" y2="11.7231" gradientUnits="userSpaceOnUse">
<stop stop-color="#3B82F6"/>
<stop offset="1" stop-color="#9747FF"/>
</linearGradient>
<linearGradient id="paint5_linear_463_31418" x1="20.1857" y1="18.6782" x2="13.1233" y2="18.9993" gradientUnits="userSpaceOnUse">
<stop stop-color="#3B82F6"/>
<stop offset="1" stop-color="#9747FF"/>
</linearGradient>
<linearGradient id="paint6_linear_463_31418" x1="38.4381" y1="33.1279" x2="31.7716" y2="42.9817" gradientUnits="userSpaceOnUse">
<stop stop-color="#3B82F6"/>
<stop offset="1" stop-color="#9747FF"/>
</linearGradient>
<linearGradient id="paint7_linear_463_31418" x1="28.2941" y1="34.0308" x2="22.6753" y2="34.5212" gradientUnits="userSpaceOnUse">
<stop stop-color="#3B82F6"/>
<stop offset="1" stop-color="#9747FF"/>
</linearGradient>
</defs>
</svg>
