<svg width="49" height="48" viewBox="0 0 49 48" fill="none" xmlns="http://www.w3.org/2000/svg">
<path d="M44.0311 23.9999C44.0311 35.0631 35.0626 44.0316 23.9995 44.0316C12.9363 44.0316 3.96777 35.0631 3.96777 23.9999C3.96777 12.9367 12.9363 3.96826 23.9995 3.96826C35.0626 3.96826 44.0311 12.9367 44.0311 23.9999Z" stroke="url(#paint0_linear_463_31433)" stroke-width="2"/>
<path d="M8.03702 23.9931C8.0387 28.7479 11.8732 32.6144 16.628 32.6565H17.8445V29.4782H16.628C13.6802 30.2824 10.6399 28.5444 9.83733 25.5966C9.8306 25.573 9.82555 25.5494 9.81882 25.5259C8.9927 22.5394 10.7223 19.4452 13.6987 18.5854H14.3061C15.0683 18.4189 15.8574 18.4189 16.6196 18.5854H19.5742V35.4596C19.559 37.2447 20.9942 38.7052 22.7794 38.722V15.2439H16.6465C11.8581 15.2692 7.99832 19.171 8.02356 23.9594V23.9611L8.03702 23.9931ZM31.3822 15.2473H30.1657V18.5938H31.3822C34.3233 17.7913 37.3569 19.5243 38.1594 22.4637C38.1662 22.4855 38.1712 22.5091 38.1779 22.531C38.999 25.5074 37.2744 28.5898 34.3098 29.4479H33.7024C32.9402 29.6144 32.1511 29.6144 31.3889 29.4479H28.4344V12.5754C28.4495 10.7903 27.0143 9.32981 25.2292 9.31299V32.8247H31.362C36.1925 32.749 40.0472 28.7732 39.9732 23.9426C39.8992 19.2181 36.0882 15.4054 31.362 15.3314L31.3822 15.2473Z" fill="url(#paint1_linear_463_31433)"/>
<defs>
<linearGradient id="paint0_linear_463_31433" x1="45.4748" y1="2.96826" x2="12.6097" y2="4.76127" gradientUnits="userSpaceOnUse">
<stop stop-color="#3B82F6"/>
<stop offset="1" stop-color="#9747FF"/>
</linearGradient>
<linearGradient id="paint1_linear_463_31433" x1="40.3112" y1="9.31299" x2="15.3607" y2="10.7919" gradientUnits="userSpaceOnUse">
<stop stop-color="#3B82F6"/>
<stop offset="1" stop-color="#9747FF"/>
</linearGradient>
</defs>
</svg>
