<svg width="48" height="48" viewBox="0 0 48 48" fill="none" xmlns="http://www.w3.org/2000/svg">
<path d="M43.3924 19.4226C42.5759 18.5653 41.7186 17.6794 41.3511 16.8098C41.0143 15.9933 40.998 14.8644 40.9796 13.6642C40.9511 11.827 40.9204 9.74694 39.5854 8.4099C38.2504 7.07285 36.1683 7.04427 34.3312 7.01569C33.1309 6.99732 31.998 6.98099 31.1855 6.64418C30.3159 6.28492 29.43 5.4337 28.5727 4.6029C27.2091 3.29648 25.7986 1.94922 23.9961 1.94922C22.1937 1.94922 20.7831 3.30055 19.4195 4.6029C18.5622 5.4194 17.6763 6.27674 16.8067 6.64418C15.9902 6.98099 14.8613 6.99732 13.6611 7.01569C11.8239 7.04427 9.74384 7.07489 8.4068 8.4099C7.06975 9.74491 7.04525 11.827 7.01667 13.6642C6.9983 14.8644 6.98197 15.9974 6.64515 16.8098C6.28589 17.6794 5.43467 18.5653 4.60388 19.4226C3.29745 20.7862 1.9502 22.1968 1.9502 23.9992C1.9502 25.8017 3.30153 27.2122 4.60388 28.5758C5.42038 29.4331 6.27774 30.319 6.64515 31.1886C6.98197 32.0052 6.9983 33.134 7.01667 34.3343C7.04525 36.1714 7.07587 38.2515 8.41088 39.5885C9.74588 40.9256 11.828 40.9542 13.6652 40.9827C14.8654 41.0011 15.9984 41.0174 16.8108 41.3543C17.6804 41.7135 18.5663 42.5647 19.4236 43.3955C20.7872 44.702 22.1977 46.0492 24.0002 46.0492C25.8027 46.0492 27.2132 44.6979 28.5768 43.3955C29.4341 42.579 30.32 41.7217 31.1896 41.3543C32.0061 41.0174 33.135 41.0011 34.3352 40.9827C36.1724 40.9542 38.2525 40.9235 39.5895 39.5885C40.9266 38.2535 40.9551 36.1714 40.9837 34.3343C41.0021 33.134 41.0184 32.0011 41.3552 31.1886C41.7145 30.319 42.5657 29.4331 43.3965 28.5758C44.7029 27.2122 46.0502 25.8017 46.0502 23.9992C46.0502 22.1968 44.6948 20.7862 43.3924 19.4226ZM42.2126 27.4449C41.2858 28.4104 40.3264 29.4107 39.8508 30.564C39.3956 31.6643 39.3752 33.0135 39.3548 34.3098C39.3303 35.9836 39.3058 37.5758 38.4382 38.4332C37.5707 39.2905 35.9887 39.3252 34.3148 39.3497C33.0145 39.3701 31.6611 39.3905 30.5691 39.8457C29.4157 40.3234 28.4155 41.2746 27.45 42.2075C26.264 43.3404 25.1474 44.4121 24.0002 44.4121C22.853 44.4121 21.7364 43.3404 20.5545 42.2075C19.589 41.2808 18.5887 40.3234 17.4354 39.8457C16.3351 39.3905 14.9859 39.3701 13.6896 39.3497C12.0158 39.3252 10.4338 39.3007 9.56623 38.4332C8.69868 37.5656 8.6742 35.9836 8.64971 34.3098C8.62928 33.0095 8.60888 31.6561 8.15367 30.564C7.67804 29.4107 6.72477 28.4104 5.79189 27.4449C4.65898 26.263 3.58732 25.1464 3.58732 23.9992C3.58732 22.852 4.65898 21.7354 5.79189 20.5535C6.71865 19.588 7.67804 18.5878 8.15367 17.4344C8.60888 16.3342 8.62928 14.9849 8.64971 13.6887C8.6742 12.0148 8.6987 10.4328 9.56625 9.56526C10.4338 8.69771 12.0158 8.67322 13.6896 8.64873C14.9899 8.62831 16.3433 8.6079 17.4354 8.1527C18.5887 7.67503 19.589 6.72379 20.5545 5.79092C21.7364 4.65801 22.853 3.58634 24.0002 3.58634C25.1474 3.58634 26.264 4.65801 27.4459 5.79092C28.4114 6.71767 29.4117 7.67503 30.565 8.1527C31.6652 8.6079 33.0145 8.62831 34.3108 8.64873C35.9846 8.67322 37.5768 8.69772 38.4341 9.56528C39.2915 10.4328 39.3262 12.0148 39.3507 13.6887C39.3711 14.989 39.3915 16.3423 39.8467 17.4344C40.3223 18.5878 41.2756 19.588 42.2085 20.5535C43.3414 21.7354 44.4131 22.852 44.4131 23.9992C44.4131 25.1464 43.3414 26.263 42.2085 27.4449H42.2126ZM21.5506 17.4671C21.5506 14.3243 18.1485 12.3601 15.4268 13.9315C12.7051 15.5029 12.7051 19.4313 15.4268 21.0027C16.0474 21.361 16.7515 21.5496 17.4681 21.5497C19.7229 21.5498 21.5506 19.7219 21.5506 17.4671ZM15.0185 17.4671C15.0185 15.5814 17.0598 14.4029 18.6928 15.3457C20.3259 16.2886 20.3259 18.6456 18.6928 19.5885C18.3205 19.8035 17.8981 19.9166 17.4681 19.9166C16.1152 19.9166 15.0185 18.8199 15.0185 17.4671ZM30.5323 26.4488C27.3896 26.4489 25.4253 29.8511 26.9968 32.5728C28.5683 35.2944 32.4968 35.2943 34.068 32.5725C34.4263 31.9519 34.6149 31.2479 34.6149 30.5313C34.6149 28.2767 32.787 26.4489 30.5323 26.4488ZM30.5323 32.9809C28.6467 32.9809 27.4681 30.9396 28.411 29.3066C29.3538 27.6735 31.7109 27.6735 32.6537 29.3066C32.8687 29.6789 32.9819 30.1014 32.9819 30.5313C32.9819 31.8842 31.8852 32.9809 30.5323 32.9809ZM32.743 16.4117L16.4127 32.7421C15.968 33.1868 15.2087 32.9833 15.0459 32.3758C14.9704 32.0939 15.051 31.7931 15.2574 31.5867L31.5877 15.2564C32.0324 14.8117 32.7917 15.0151 32.9545 15.6226C33.03 15.9045 32.9494 16.2054 32.743 16.4117Z" fill="url(#paint0_linear_463_31386)"/>
<defs>
<linearGradient id="paint0_linear_463_31386" x1="46.5153" y1="1.94922" x2="12.059" y2="3.82904" gradientUnits="userSpaceOnUse">
<stop stop-color="#3B82F6"/>
<stop offset="1" stop-color="#9747FF"/>
</linearGradient>
</defs>
</svg>
