<svg width="17" height="16" viewBox="0 0 17 16" fill="none" xmlns="http://www.w3.org/2000/svg">
<path d="M6.75016 3.33333H5.41683C5.06321 3.33333 4.72407 3.47381 4.47402 3.72386C4.22397 3.97391 4.0835 4.31304 4.0835 4.66667V12.6667C4.0835 13.0203 4.22397 13.3594 4.47402 13.6095C4.72407 13.8595 5.06321 14 5.41683 14H12.0835C12.4371 14 12.7763 13.8595 13.0263 13.6095C13.2764 13.3594 13.4168 13.0203 13.4168 12.6667V4.66667C13.4168 4.31304 13.2764 3.97391 13.0263 3.72386C12.7763 3.47381 12.4371 3.33333 12.0835 3.33333H10.7502M6.75016 3.33333C6.75016 3.68696 6.89064 4.02609 7.14069 4.27614C7.39074 4.52619 7.72987 4.66667 8.0835 4.66667H9.41683C9.77045 4.66667 10.1096 4.52619 10.3596 4.27614C10.6097 4.02609 10.7502 3.68696 10.7502 3.33333M6.75016 3.33333C6.75016 2.97971 6.89064 2.64057 7.14069 2.39052C7.39074 2.14048 7.72987 2 8.0835 2H9.41683C9.77045 2 10.1096 2.14048 10.3596 2.39052C10.6097 2.64057 10.7502 2.97971 10.7502 3.33333M8.75016 8H10.7502M8.75016 10.6667H10.7502M6.75016 8H6.75683M6.75016 10.6667H6.75683" stroke="white" stroke-width="1.5" stroke-linecap="round" stroke-linejoin="round"/>
</svg>
