<svg width="17" height="16" viewBox="0 0 17 16" fill="none" xmlns="http://www.w3.org/2000/svg">
<path d="M8.75012 5.33333V8L10.7501 10M14.7501 8C14.7501 8.78793 14.5949 9.56815 14.2934 10.2961C13.9919 11.0241 13.5499 11.6855 12.9928 12.2426C12.4356 12.7998 11.7742 13.2417 11.0462 13.5433C10.3183 13.8448 9.53805 14 8.75012 14C7.96219 14 7.18198 13.8448 6.45402 13.5433C5.72607 13.2417 5.06463 12.7998 4.50748 12.2426C3.95033 11.6855 3.50837 11.0241 3.20684 10.2961C2.90532 9.56815 2.75012 8.78793 2.75012 8C2.75012 6.4087 3.38226 4.88258 4.50748 3.75736C5.6327 2.63214 7.15882 2 8.75012 2C10.3414 2 11.8675 2.63214 12.9928 3.75736C14.118 4.88258 14.7501 6.4087 14.7501 8Z" stroke="white" stroke-width="1.5" stroke-linecap="round" stroke-linejoin="round"/>
</svg>
