<svg width="14" height="14" viewBox="0 0 14 14" fill="none" xmlns="http://www.w3.org/2000/svg">
<path fill-rule="evenodd" clip-rule="evenodd" d="M2.30511 6.79514C2.17388 6.66387 2.10016 6.48586 2.10016 6.30024C2.10016 6.11463 2.17388 5.93661 2.30511 5.80534L6.50511 1.60534C6.63638 1.47411 6.81439 1.40039 7.00001 1.40039C7.18562 1.40039 7.36364 1.47411 7.49491 1.60534L11.6949 5.80534C11.8224 5.93736 11.893 6.11418 11.8914 6.29772C11.8898 6.48126 11.8162 6.65683 11.6864 6.78661C11.5566 6.9164 11.381 6.99002 11.1975 6.99161C11.014 6.99321 10.8371 6.92265 10.7051 6.79514L7.70001 3.79004V11.9002C7.70001 12.0859 7.62626 12.2639 7.49498 12.3952C7.36371 12.5265 7.18566 12.6002 7.00001 12.6002C6.81436 12.6002 6.63631 12.5265 6.50503 12.3952C6.37376 12.2639 6.30001 12.0859 6.30001 11.9002V3.79004L3.29491 6.79514C3.16364 6.92637 2.98562 7.00009 2.80001 7.00009C2.61439 7.00009 2.43638 6.92637 2.30511 6.79514Z" fill="#EF4444"/>
</svg>
