<svg width="14" height="14" viewBox="0 0 14 14" fill="none" xmlns="http://www.w3.org/2000/svg">
<path fill-rule="evenodd" clip-rule="evenodd" d="M11.6949 7.205C11.8261 7.33627 11.8999 7.51429 11.8999 7.6999C11.8999 7.88552 11.8261 8.06353 11.6949 8.1948L7.4949 12.3948C7.36363 12.526 7.18562 12.5998 7 12.5998C6.81439 12.5998 6.63637 12.526 6.5051 12.3948L2.3051 8.1948C2.23824 8.13023 2.18492 8.05299 2.14823 7.96759C2.11154 7.88218 2.09223 7.79033 2.09143 7.69738C2.09062 7.60444 2.10833 7.51226 2.14353 7.42623C2.17872 7.34021 2.2307 7.26205 2.29643 7.19633C2.36215 7.1306 2.44031 7.07862 2.52633 7.04343C2.61236 7.00823 2.70454 6.99052 2.79748 6.99133C2.89043 6.99213 2.98228 7.01145 3.06769 7.04813C3.15309 7.08482 3.23033 7.13815 3.2949 7.205L6.3 10.2101V2.0999C6.3 1.91425 6.37375 1.7362 6.50503 1.60493C6.6363 1.47365 6.81435 1.3999 7 1.3999C7.18565 1.3999 7.3637 1.47365 7.49498 1.60493C7.62625 1.7362 7.7 1.91425 7.7 2.0999V10.2101L10.7051 7.205C10.8364 7.07377 11.0144 7.00005 11.2 7.00005C11.3856 7.00005 11.5636 7.07377 11.6949 7.205Z" fill="#10B981"/>
</svg>
